<svg width="1136" height="158" viewBox="-320 24 131 175" fill="none" xmlns="http://www.w3.org/2000/svg">
<path opacity="0.3" d="M349 201H207L301.144 171L349 201Z" fill="#C6C7B9"/>
<path opacity="0.3" d="M377 137L377 26L325 99.5912L377 137Z" fill="#C6C7B9"/>
<path opacity="0.3" d="M4.19629e-06 24L116 24L39.0939 72L4.19629e-06 24Z" fill="#C6C7B9"/>
<path d="M154.22 78.7856L155.342 71.7175L159.849 77.2773C160.53 78.1187 161.609 78.5327 162.679 78.3638L169.748 77.2473L165.853 83.251C165.263 84.1596 165.203 85.3134 165.694 86.2786L168.94 92.6566L162.027 90.8073C160.98 90.5275 159.864 90.8265 159.098 91.592L154.036 96.6503L153.658 89.5036C153.601 88.4222 152.972 87.4531 152.007 86.961L145.632 83.7092L152.312 81.1416C153.323 80.7531 154.05 79.8551 154.22 78.7856ZM170.255 93.0084L170.254 93.0081L170.255 93.0084ZM155.556 70.3742L155.556 70.3731L154.957 70.2779L155.556 70.3731C155.556 70.3734 155.556 70.3738 155.556 70.3742Z" stroke="#1B1B21" stroke-width="3.64079"/>
<path d="M193.987 58.9167L198.623 46.7502L204.572 58.3314C205.067 59.2947 206.038 59.9212 207.119 59.9752L220.123 60.6249L210.947 69.8618C210.184 70.6301 209.888 71.747 210.171 72.7924L213.572 85.3604L201.951 79.488C200.985 78.9995 199.831 79.0633 198.924 79.6554L188.022 86.7732L190.016 73.9069C190.182 72.8367 189.765 71.7592 188.922 71.0797L178.783 62.9107L191.636 60.8314C192.705 60.6584 193.601 59.9287 193.987 58.9167ZM214.786 85.9744L214.785 85.9737L214.786 85.9744Z" stroke="#1B1B21" stroke-width="3.64079"/>
<path d="M174.161 106.434L176.037 97.6891L181.287 104.93C181.922 105.807 182.977 106.278 184.054 106.167L192.951 105.249L187.687 112.479C187.049 113.355 186.927 114.504 187.366 115.494L190.988 123.671L182.485 120.899C181.455 120.563 180.325 120.802 179.518 121.525L172.861 127.497L172.87 118.554C172.871 117.471 172.294 116.469 171.357 115.926L163.62 111.439L172.129 108.684C173.159 108.35 173.934 107.493 174.161 106.434L172.381 106.052L174.161 106.434ZM192.282 124.093L192.281 124.093L192.282 124.093ZM176.322 96.3592L176.322 96.3581L175.729 96.2308L176.322 96.358C176.322 96.3584 176.322 96.3588 176.322 96.3592Z" stroke="#1B1B21" stroke-width="3.64079"/>
<path d="M204.518 106.694L200.447 98.7307L209.091 101.026C210.137 101.304 211.253 101.003 212.018 100.237L218.334 93.9039L218.821 102.834C218.88 103.916 219.511 104.884 220.477 105.374L228.451 109.424L220.109 112.648C219.098 113.038 218.373 113.937 218.205 115.007L216.818 123.843L211.174 116.904C210.49 116.064 209.411 115.652 208.341 115.823L199.51 117.234L204.364 109.722C204.952 108.813 205.011 107.659 204.518 106.694ZM229.721 108.933L229.72 108.934L229.721 108.933ZM199.827 97.5196L199.827 97.5186L199.287 97.7948L199.827 97.5186C199.827 97.5189 199.827 97.5192 199.827 97.5196Z" stroke="#1B1B21" stroke-width="3.64079"/>
<path d="M246.218 98.4356L249.814 93.9981L250.71 99.6394C250.88 100.709 251.607 101.607 252.618 101.995L257.95 104.045L252.861 106.64C251.897 107.132 251.267 108.101 251.21 109.183L250.909 114.887L246.868 110.85C246.102 110.084 244.986 109.785 243.94 110.065L238.422 111.541L241.013 106.45C241.504 105.485 241.443 104.331 240.854 103.423L237.745 98.631L243.387 99.5221C244.457 99.691 245.536 99.277 246.218 98.4356Z" stroke="#1B1B21" stroke-width="3.64079"/>
<path d="M249.466 133.998L253.062 129.561L253.958 135.202C254.128 136.271 254.855 137.169 255.866 137.558L261.198 139.607L256.11 142.203C255.145 142.695 254.515 143.664 254.458 144.745L254.157 150.449L250.116 146.412C249.35 145.647 248.234 145.348 247.188 145.627L241.67 147.103L244.261 142.013C244.752 141.048 244.692 139.894 244.102 138.985L240.993 134.193L246.635 135.085C247.705 135.254 248.784 134.839 249.466 133.998Z" stroke="#1B1B21" stroke-width="3.64079"/>
<path d="M235.445 70.0832L236.593 64.4879L239.987 69.0825C240.63 69.9537 241.689 70.4158 242.765 70.2951L248.442 69.6585L245.121 74.3057C244.491 75.1869 244.379 76.3368 244.826 77.3231L247.186 82.5249L241.74 80.8025C240.707 80.4759 239.579 80.7245 238.779 81.4547L234.561 85.3063L234.516 79.5944C234.508 78.5115 233.922 77.5152 232.981 76.9802L228.014 74.1587L233.433 72.3511C234.46 72.0084 235.227 71.144 235.445 70.0832Z" stroke="#1B1B21" stroke-width="3.64079"/>
<path d="M154.815 104.93L154.153 171.115C154.139 172.559 156.208 172.815 156.547 171.411L166.843 128.72" stroke="#1B1B21" stroke-width="3.64079"/>
<path d="M178.783 129.401L159.916 194.988C159.527 196.34 161.363 197.16 162.11 195.969L206.669 124.954" stroke="#1B1B21" stroke-width="3.64079"/>
<path d="M178.676 129.007L159.809 194.594C159.42 195.945 161.256 196.765 162.003 195.574L206.563 124.559" stroke="#1B1B21" stroke-width="3.64079"/>
<path d="M235.02 121.753L171.926 194.106C171.038 195.125 172.23 196.615 173.419 195.97L246.498 156.369" stroke="#1B1B21" stroke-width="3.64079"/>
<rect x="154.204" y="51.0625" width="4.85439" height="4.85439" rx="2.42719" transform="rotate(-15 154.204 51.0625)" fill="#1B1B21"/>
<rect x="133.34" y="88.6367" width="4.85439" height="4.85439" rx="2.42719" transform="rotate(-15 133.34 88.6367)" fill="#1B1B21"/>
<rect x="220.069" y="151.523" width="4.85439" height="4.85439" rx="2.42719" transform="rotate(-15 220.069 151.523)" fill="#1B1B21"/>
<rect x="219.075" y="39.9609" width="4.85439" height="4.85439" rx="2.42719" transform="rotate(-15 219.075 39.9609)" fill="#1B1B21"/>
<rect x="223.311" y="116.719" width="4.85439" height="4.85439" rx="2.42719" transform="rotate(-15 223.311 116.719)" fill="#1B1B21"/>
<rect x="177.38" y="81.2852" width="4.85439" height="4.85439" rx="2.42719" transform="rotate(-15 177.38 81.2852)" fill="#1B1B21"/>
<rect x="252.196" y="83.8555" width="4.85439" height="4.85439" rx="2.42719" transform="rotate(-15 252.196 83.8555)" fill="#1B1B21"/>
<rect x="267.587" y="141.297" width="4.85439" height="4.85439" rx="2.42719" transform="rotate(-15 267.587 141.297)" fill="#1B1B21"/>
<rect x="276.376" y="103.766" width="4.85439" height="4.85439" rx="2.42719" transform="rotate(-15 276.376 103.766)" fill="#1B1B21"/>
<rect x="282.215" y="83.3516" width="4.85439" height="4.85439" rx="2.42719" transform="rotate(-15 282.215 83.3516)" fill="#1B1B21"/>
<rect x="260.609" y="58.9883" width="4.85439" height="4.85439" rx="2.42719" transform="rotate(-15 260.609 58.9883)" fill="#1B1B21"/>
<rect x="125.303" y="135.453" width="3.64079" height="20.6311" rx="1.8204" transform="rotate(-15 125.303 135.453)" fill="#1B1B21"/>
<rect x="126.928" y="108.695" width="3.64079" height="20.6311" rx="1.8204" transform="rotate(-58.1534 126.928 108.695)" fill="#1B1B21"/>
<rect x="126.928" y="108.695" width="3.64079" height="20.6311" rx="1.8204" transform="rotate(-58.1534 126.928 108.695)" fill="#1B1B21"/>
<rect x="168.118" y="37.3477" width="3.64079" height="20.6311" rx="1.8204" transform="rotate(-58.1534 168.118 37.3477)" fill="#1B1B21"/>
<rect x="131.953" y="64.1289" width="3.64079" height="20.6311" rx="1.8204" transform="rotate(44.8269 131.953 64.1289)" fill="#1B1B21"/>
<rect x="311.188" y="94.4336" width="3.64079" height="20.6311" rx="1.8204" transform="rotate(44.8269 311.188 94.4336)" fill="#1B1B21"/>
<rect x="237.401" y="42.7109" width="3.64079" height="20.6311" rx="1.8204" transform="rotate(-36.4004 237.401 42.7109)" fill="#1B1B21"/>
<rect x="275.569" y="124.203" width="3.64079" height="20.6311" rx="1.8204" transform="rotate(-36.4004 275.569 124.203)" fill="#1B1B21"/>
<rect x="259.091" y="72.0781" width="3.64079" height="20.6311" rx="1.8204" transform="rotate(-36.4004 259.091 72.0781)" fill="#1B1B21"/>
<rect x="259.091" y="72.0781" width="3.64079" height="20.6311" rx="1.8204" transform="rotate(-36.4004 259.091 72.0781)" fill="#1B1B21"/>
</svg>
