<svg xmlns="http://www.w3.org/2000/svg" xmlns:xlink="http://www.w3.org/1999/xlink" width="304" height="240" viewBox="0 0 304 240">
  <defs>
    <rect id="b" width="304" height="240" rx="2"/>
    <rect id="a" width="304" height="240" rx="2"/>
    <mask id="d" width="304" height="240" x="0" y="0" fill="white">
      <use xlink:href="#a"/>
    </mask>
    <mask id="e" width="304" height="240" x="0" y="0" fill="white">
      <use xlink:href="#a"/>
    </mask>
    <rect id="g" width="96" height="16" x="99" y="62"/>
    <rect id="h" width="120" height="16" x="99" y="141"/>
    <rect id="i" width="8" height="8" x="99" y="87"/>
    <rect id="j" width="8" height="8" x="99" y="99"/>
  </defs>
  <g fill="none" fill-rule="evenodd">
    <mask id="c" fill="white">
      <use xlink:href="#b"/>
    </mask>
    <use fill="#5C5D62" xlink:href="#b"/>
    <rect width="221" height="240" x="83" fill="#FAFAFA" mask="url(#c)"/>
    <mask id="f" fill="white">
      <use xlink:href="#a"/>
    </mask>
    <g stroke="#CCCCCC" stroke-dasharray="4 2" stroke-width="2" mask="url(#d)">
      <use mask="url(#e)" xlink:href="#a"/>
    </g>
    <rect width="83" height="240" fill="#351154" mask="url(#f)"/>
    <rect width="83" height="240" fill="#4F258D" mask="url(#f)"/>
    <text fill="#292929" font-family="HelveticaNeue, Helvetica Neue" font-size="14">
      <tspan x="99" y="30">Email settings</tspan>
    </text>
    <use fill="#FFFFFF" xlink:href="#g"/>
    <rect width="95" height="15" x="99.5" y="62.5" stroke="#D7D7D7"/>
    <rect width="56" height="3" x="99" y="52" fill="#5C5D62" opacity=".5" rx="1.5"/>
    <use fill="#FFFFFF" xlink:href="#h"/>
    <rect width="119" height="15" x="99.5" y="141.5" stroke="#D7D7D7"/>
    <use fill="#FFFFFF" xlink:href="#i"/>
    <rect width="7" height="7" x="99.5" y="87.5" stroke="#D7D7D7"/>
    <rect width="64" height="3" x="112" y="89" fill="#5C5D62" opacity=".5" rx="1.5"/>
    <use fill="#FFFFFF" xlink:href="#j"/>
    <rect width="7" height="7" x="99.5" y="99.5" stroke="#D7D7D7"/>
    <rect width="64" height="3" x="112" y="101" fill="#5C5D62" opacity=".5" rx="1.5"/>
    <text fill="#FFFFFF" font-family="HelveticaNeue, Helvetica Neue" font-size="12" opacity=".7">
      <tspan x="12" y="27">Your shop</tspan>
    </text>
    <rect width="39" height="4" x="21" y="50" fill="#FFFFFF" opacity=".3"/>
    <rect width="31" height="4" x="21" y="66" fill="#FFFFFF" opacity=".3"/>
    <rect width="39" height="4" x="21" y="82" fill="#FFFFFF" opacity=".3"/>
    <rect width="39" height="4" x="21" y="98" fill="#FFFFFF" opacity=".3"/>
    <rect width="15" height="4" x="21" y="114" fill="#FFFFFF" opacity=".3"/>
    <rect width="39" height="4" x="21" y="146" fill="#FFFFFF" opacity=".3"/>
    <rect width="28" height="4" x="21" y="162" fill="#FFFFFF" opacity=".5"/>
    <rect width="23" height="4" x="21" y="130" fill="#FFFFFF" opacity=".3"/>
    <rect width="4" height="4" x="13" y="50" fill="#FFFFFF" opacity=".3"/>
    <rect width="4" height="4" x="13" y="66" fill="#FFFFFF" opacity=".3"/>
    <rect width="4" height="4" x="13" y="82" fill="#FFFFFF" opacity=".3"/>
    <rect width="4" height="4" x="13" y="98" fill="#FFFFFF" opacity=".3"/>
    <rect width="4" height="4" x="13" y="114" fill="#FFFFFF" opacity=".3"/>
    <rect width="4" height="4" x="13" y="146" fill="#FFFFFF" opacity=".3"/>
    <rect width="4" height="4" x="13" y="162" fill="#FFFFFF" opacity=".5"/>
    <rect width="4" height="4" x="13" y="130" fill="#FFFFFF" opacity=".3"/>
    <g transform="translate(213 146)">
      <polygon fill="#292929" points="0 0 8 8.842 4 8.842 0 11.789"/>
      <path stroke="#292929" stroke-linecap="square" stroke-width="1.5" d="M3.2,7.36842105 L6,13.6315789"/>
    </g>
    <text fill="#292929" font-family="HelveticaNeue, Helvetica Neue" font-size="6">
      <tspan x="103" y="152">yourtrustpilotaddress@trustpilot.com</tspan>
    </text>
    <text fill="#292929" font-family="HelveticaNeue, Helvetica Neue" font-size="10">
      <tspan x="100" y="135">BCC to this email address:</tspan>
    </text>
    <g transform="translate(99 171)">
      <rect width="36" height="17" fill="#351154"/>
      <text fill="#FAFAFA" font-family="HelveticaNeue-Medium, Helvetica Neue" font-size="8" font-weight="400">
        <tspan x="9.884" y="11">Save</tspan>
      </text>
    </g>
  </g>
</svg>
