<svg xmlns="http://www.w3.org/2000/svg" xmlns:xlink="http://www.w3.org/1999/xlink" width="367" height="300" viewBox="0 0 367 300"><defs><filter id="a" width="110.5%" height="130.1%" x="-5.3%" y="-15.1%" filterUnits="objectBoundingBox"><feMorphology in="SourceAlpha" operator="dilate" radius="1" result="shadowSpreadOuter1"/><feOffset in="shadowSpreadOuter1" result="shadowOffsetOuter1"/><feGaussianBlur in="shadowOffsetOuter1" result="shadowBlurOuter1" stdDeviation="5"/><feColorMatrix in="shadowBlurOuter1" values="0 0 0 0 0.105882353 0 0 0 0 0.105882353 0 0 0 0 0.129411765 0 0 0 0.07 0"/></filter><rect id="b" width="342.453" height="119.575" x="7.075" y="14.151" rx="14.151"/></defs><g fill="none" fill-rule="evenodd"><path fill="#FFF" stroke="#F2F2F5" stroke-width=".708" d="M22.335.354h317.689v299.292H22.335z"/><path fill="#F2F2F5" d="M42.5 43.16h259.67v5.66H42.5z"/><path fill="#DCDCE6" d="M42.5 17.689h14.151V31.84H42.5z"/><path fill="#F2F2F5" d="M42.5 54.481h244.104v5.66H42.5zM42.5 254.717h274.528v5.66H42.5z"/><path fill="#DCDCE6" d="M42.5 229.245h14.151v14.151H42.5z"/><path fill="#F2F2F5" d="M42.5 266.038h263.208v5.66H42.5zM42.5 277.358h128.066v5.66H42.5z"/><g transform="translate(5 77.123)"><use fill="#000" filter="url(#a)" xlink:href="#b"/><path fill="#FFF" stroke="#DCDCE6" stroke-width=".708" d="M.354.354h356.604v133.019H.354z"/><path fill="#ACACBF" fill-rule="nonzero" d="M150.464 36.887c.456 0 .849-.051 1.179-.154.33-.102.6-.24.812-.416.212-.175.367-.383.466-.624.099-.24.148-.5.148-.777 0-.483-.112-.884-.336-1.204-.225-.32-.555-.527-.991-.62v-.019c.324-.139.573-.335.748-.59.175-.254.262-.559.262-.916 0-.587-.191-1.026-.574-1.317-.383-.29-.892-.436-1.526-.436h-3.437v7.073h3.25Zm.01-4.111h-2.02v-1.951h2.02c.337 0 .594.072.773.217.178.146.267.397.267.753 0 .317-.099.56-.297.728a1.107 1.107 0 0 1-.743.253Zm.168 3.1h-2.189v-2.209h2.19c.376 0 .668.095.876.283.208.188.312.457.312.807 0 .357-.104.632-.312.827-.208.195-.5.292-.877.292Zm4.091 3.041c.298 0 .542-.047.734-.143.191-.096.351-.225.48-.386.129-.162.238-.349.327-.56.089-.211.18-.433.272-.664l1.991-5.398h-1.179l-1.297 3.823h-.02l-1.337-3.823h-1.238l1.941 5.101-.129.396a2.18 2.18 0 0 1-.109.297.892.892 0 0 1-.143.223.54.54 0 0 1-.213.144.92.92 0 0 1-.327.05c-.093 0-.182-.009-.268-.025a5.642 5.642 0 0 0-.267-.045v.951c.257.04.518.06.782.06Zm10.6-2.03c.455 0 .848-.051 1.178-.154.33-.102.601-.24.813-.416.21-.175.366-.383.465-.624.1-.24.149-.5.149-.777 0-.483-.113-.884-.337-1.204-.225-.32-.555-.527-.99-.62v-.019c.323-.139.572-.335.747-.59.175-.254.263-.559.263-.916 0-.587-.192-1.026-.575-1.317-.383-.29-.891-.436-1.525-.436h-3.438v7.073h3.25Zm.01-4.111h-2.021v-1.951h2.02c.337 0 .595.072.773.217.178.146.268.397.268.753 0 .317-.1.56-.298.728a1.107 1.107 0 0 1-.743.253Zm.168 3.1h-2.19v-2.209h2.19c.376 0 .668.095.876.283.209.188.313.457.313.807 0 .357-.104.632-.313.827-.208.195-.5.292-.876.292Zm4.547-4.992v-1.07h-1.13v1.07h1.13Zm-1.466 8.033c.528 0 .904-.138 1.129-.416.224-.277.337-.67.337-1.178v-5.557h-1.13v5.507c0 .251-.024.44-.074.565-.05.125-.177.188-.381.188a2.626 2.626 0 0 1-.386-.04v.892a2.415 2.415 0 0 0 .505.04Zm4.774-7.993v-1.07h-1.13v1.07h1.13Zm1.704 0v-1.07h-1.13v1.07h1.13Zm-1.437 6.101c.41 0 .775-.067 1.095-.203.32-.135.591-.322.812-.56.222-.237.39-.521.506-.851a3.28 3.28 0 0 0 .173-1.09c0-.39-.058-.75-.173-1.08a2.394 2.394 0 0 0-.506-.851 2.334 2.334 0 0 0-.812-.56 2.789 2.789 0 0 0-1.095-.203c-.409 0-.774.068-1.094.203-.32.135-.591.322-.812.56-.222.237-.39.521-.506.852-.115.33-.173.69-.173 1.08 0 .395.058.759.173 1.089.116.33.284.614.506.852.22.237.492.424.812.56.32.135.685.202 1.094.202Zm0-.891a1.296 1.296 0 0 1-1.109-.575 1.816 1.816 0 0 1-.262-.579 2.593 2.593 0 0 1 0-1.313c.056-.217.143-.41.262-.579a1.4 1.4 0 0 1 .456-.411c.185-.106.403-.159.653-.159.251 0 .47.053.654.159a1.4 1.4 0 0 1 .456.411c.119.168.206.362.262.58a2.612 2.612 0 0 1 0 1.312 1.816 1.816 0 0 1-.262.58 1.296 1.296 0 0 1-1.11.575Zm4.656.753V34.45c0-.284.036-.535.11-.753a1.65 1.65 0 0 1 .296-.55 1.24 1.24 0 0 1 .441-.336c.168-.076.348-.114.54-.114.08 0 .16.005.243.015.082.01.163.021.242.034v-1.09a2.45 2.45 0 0 0-.426-.03c-.171 0-.34.034-.505.1a1.752 1.752 0 0 0-.45.262c-.136.11-.251.23-.347.362-.096.132-.16.267-.193.406h-.02v-.99h-1.06v5.12h1.13Zm3.665 0v-3.021c0-.185.03-.36.09-.525a1.35 1.35 0 0 1 .247-.431c.106-.122.234-.218.386-.288.152-.069.324-.104.515-.104.337 0 .585.091.743.273.159.181.245.474.258.876v3.22h1.13V33.37c0-.58-.163-1.017-.486-1.307-.324-.29-.766-.436-1.328-.436-.336 0-.643.08-.92.243a1.893 1.893 0 0 0-.674.668l-.02-.02v-.752h-1.07v5.12h1.13Zm10.718 0c.456 0 .849-.051 1.179-.154.33-.102.6-.24.812-.416.212-.175.367-.383.466-.624.099-.24.148-.5.148-.777 0-.483-.112-.884-.336-1.204-.225-.32-.555-.527-.991-.62v-.019c.324-.139.573-.335.748-.59.175-.254.262-.559.262-.916 0-.587-.191-1.026-.574-1.317-.383-.29-.892-.436-1.526-.436h-3.437v7.073h3.25Zm.01-4.111h-2.02v-1.951h2.02c.337 0 .594.072.773.217.178.146.267.397.267.753 0 .317-.099.56-.297.728a1.107 1.107 0 0 1-.743.253Zm.168 3.1h-2.189v-2.209h2.19c.376 0 .668.095.876.283.208.188.312.457.312.807 0 .357-.104.632-.312.827-.208.195-.5.292-.877.292Zm7.509 1.15a2.05 2.05 0 0 0 .367-.04 3.309 3.309 0 0 0 .346-.09v-.782a.74.74 0 0 1-.158.02h-.12c-.105 0-.176-.03-.212-.09-.036-.059-.055-.158-.055-.296v-2.635c0-.271-.06-.5-.178-.689a1.427 1.427 0 0 0-.47-.46 2.11 2.11 0 0 0-.66-.258 3.505 3.505 0 0 0-.742-.08c-.284 0-.561.027-.832.08-.27.053-.514.145-.728.277a1.642 1.642 0 0 0-.53.525c-.139.218-.218.492-.238.823h1.13c.026-.278.141-.482.346-.614.205-.133.466-.199.783-.199.112 0 .23.009.356.025.126.017.24.05.342.1.102.049.188.12.257.212.07.093.104.212.104.357 0 .165-.04.289-.123.371a.75.75 0 0 1-.337.184c-.142.04-.306.067-.49.084-.185.016-.38.044-.585.084a7.352 7.352 0 0 0-.708.114c-.235.05-.446.13-.634.243-.188.112-.34.267-.456.465-.115.198-.173.456-.173.773 0 .25.048.47.143.658.096.189.225.344.387.466.162.122.348.215.56.277.21.063.432.094.663.094.304 0 .62-.05.946-.148.327-.1.603-.258.827-.476.046.232.146.393.297.486.152.092.344.138.575.138Zm-2.229-.892c-.099 0-.21-.01-.332-.03a1.215 1.215 0 0 1-.336-.104.791.791 0 0 1-.263-.203.474.474 0 0 1-.109-.317c0-.145.025-.269.074-.371a.652.652 0 0 1 .203-.248c.086-.063.185-.112.298-.148.112-.037.227-.065.346-.085.251-.046.502-.08.753-.104.251-.023.462-.09.634-.203v.842a.764.764 0 0 1-.129.45 1.082 1.082 0 0 1-.322.303 1.35 1.35 0 0 1-.41.168 1.84 1.84 0 0 1-.407.05Zm5.528.891c.284 0 .563-.077.837-.232.274-.155.48-.362.619-.62h.02v.714h1.109v-5.121h-1.13v2.971c0 .198-.02.383-.064.555a1.12 1.12 0 0 1-.213.44c-.099.123-.228.22-.386.293a1.427 1.427 0 0 1-.594.109c-.31 0-.552-.092-.723-.277-.172-.185-.258-.502-.258-.951v-3.14h-1.13v3.249c0 .673.151 1.177.451 1.51.3.334.788.5 1.462.5Zm4.903-.138v-3.041c0-.212.031-.4.094-.565a1.29 1.29 0 0 1 .248-.416 1.05 1.05 0 0 1 .777-.347c.344 0 .58.091.708.273.13.181.194.45.194.807v3.289h1.129v-3.002c0-.435.086-.772.257-1.01.172-.238.45-.357.832-.357.218 0 .39.033.516.1.125.065.22.16.282.282.063.122.1.267.114.436.013.168.02.355.02.56v2.99h1.129V33.35c0-.62-.15-1.063-.45-1.327-.301-.264-.722-.396-1.264-.396-.376 0-.69.076-.94.228a2.28 2.28 0 0 0-.665.624 1.176 1.176 0 0 0-.57-.644 1.855 1.855 0 0 0-.866-.208 2.09 2.09 0 0 0-.545.064c-.158.043-.299.101-.42.174a1.513 1.513 0 0 0-.333.267 2.9 2.9 0 0 0-.277.347h-.03v-.713h-1.07v5.12h1.13Zm11.61.138a2.05 2.05 0 0 0 .367-.04 3.309 3.309 0 0 0 .345-.088v-.783a.74.74 0 0 1-.158.02h-.119c-.106 0-.177-.03-.213-.09-.036-.059-.054-.158-.054-.296v-2.635c0-.271-.06-.5-.179-.689a1.427 1.427 0 0 0-.47-.46 2.11 2.11 0 0 0-.659-.258 3.505 3.505 0 0 0-.743-.08c-.284 0-.561.027-.832.08-.27.053-.513.145-.728.277a1.642 1.642 0 0 0-.53.525c-.139.218-.218.492-.238.823h1.13c.026-.278.142-.482.346-.614.205-.133.466-.199.783-.199.112 0 .231.009.356.025.126.017.24.05.342.1.103.049.188.12.258.212.07.093.104.212.104.357 0 .165-.041.289-.124.371a.75.75 0 0 1-.337.184c-.142.04-.305.067-.49.084-.185.016-.38.044-.585.084a7.352 7.352 0 0 0-.708.114c-.234.05-.446.13-.634.243-.188.112-.34.267-.455.465-.116.198-.174.456-.174.773 0 .25.048.47.144.658.096.189.224.344.386.466.162.122.348.215.56.277.211.063.432.094.663.094.304 0 .62-.05.946-.148.327-.1.603-.258.828-.476.046.232.145.393.297.486.152.092.343.138.574.138Zm-2.23-.891c-.099 0-.21-.01-.331-.03a1.215 1.215 0 0 1-.337-.104.791.791 0 0 1-.263-.203.474.474 0 0 1-.109-.317c0-.145.025-.269.075-.371a.652.652 0 0 1 .203-.248c.086-.063.185-.112.297-.148.112-.037.228-.065.347-.085.25-.046.502-.08.752-.104.251-.023.463-.09.634-.203v.842a.764.764 0 0 1-.128.45 1.082 1.082 0 0 1-.322.303 1.35 1.35 0 0 1-.411.168 1.84 1.84 0 0 1-.406.05Zm4.745.753v-3.021c0-.185.03-.36.09-.525a1.35 1.35 0 0 1 .247-.431c.106-.122.235-.218.386-.288.152-.069.324-.104.516-.104.336 0 .584.091.742.273.159.181.245.474.258.876v3.22h1.13V33.37c0-.58-.163-1.017-.486-1.307-.324-.29-.766-.436-1.327-.436-.337 0-.644.08-.922.243a1.893 1.893 0 0 0-.673.668l-.02-.02v-.752h-1.07v5.12h1.13Zm5.686 0v-3.021c0-.185.03-.36.09-.525a1.35 1.35 0 0 1 .247-.431c.106-.122.234-.218.386-.288.152-.069.324-.104.515-.104.337 0 .585.091.743.273.159.181.245.474.258.876v3.22h1.13V33.37c0-.58-.163-1.017-.486-1.307-.324-.29-.766-.436-1.328-.436-.336 0-.644.08-.92.243a1.893 1.893 0 0 0-.674.668l-.02-.02v-.752h-1.07v5.12h1.13Z"/><g fill-rule="nonzero"><path fill="#73CF11" d="M19.104 22.642H40.33v21.226H19.104zM42.099 22.642h21.226v21.226H42.099zM65.095 22.642h21.226v21.226H65.095zM88.09 22.642h21.226v21.226H88.09z"/><path fill="#DCDCE6" d="M111.085 22.642h21.226v21.226h-21.226z"/><path fill="#FFF" d="m29.717 36.948 3.228-.818 1.35 4.156-4.578-3.338zm7.43-5.373h-5.683l-1.747-5.351-1.747 5.35h-5.682l4.599 3.317-1.747 5.351 4.6-3.316 2.83-2.035 4.576-3.316zm15.565 5.373 3.229-.818 1.348 4.156-4.577-3.338zm7.43-5.373h-5.683l-1.747-5.351-1.746 5.35h-5.683l4.6 3.317-1.747 5.351 4.599-3.316 2.83-2.035 4.577-3.316zm15.566 5.373 3.228-.818 1.349 4.156-4.577-3.338zm7.429-5.373h-5.682l-1.747-5.351-1.747 5.35h-5.682l4.599 3.317-1.747 5.351 4.599-3.316 2.83-2.035 4.577-3.316zm15.566 5.373 3.228-.818 1.349 4.156-4.577-3.338zm7.43-5.373h-5.683l-1.747-5.351-1.747 5.35h-5.682l4.599 3.317-1.747 5.351 4.6-3.316 2.83-2.035 4.576-3.316zm15.565 5.373 3.229-.818 1.348 4.156-4.577-3.338zm7.43-5.373h-5.683l-1.747-5.351-1.746 5.35h-5.683l4.6 3.317-1.748 5.351 4.6-3.316 2.83-2.035 4.577-3.316z"/></g><path fill="#1B1B21" fill-rule="nonzero" d="M29.48 73.604v-2.242h-6.538v-2.971h5.875v-2.072h-5.875V63.72h6.401v-2.242h-9.068v12.125h9.204Zm3.328 0 1.834-2.768 1.833 2.768h2.751l-3.243-4.67 2.887-4.11h-2.666l-1.529 2.293-1.545-2.292h-2.75l2.886 4.16-3.158 4.619h2.7Zm11.496.22c1.166 0 2.122-.305 2.87-.916.747-.612 1.2-1.5 1.358-2.666h-2.326c-.08.543-.275.976-.586 1.299-.312.322-.756.484-1.333.484-.374 0-.69-.085-.951-.255a1.902 1.902 0 0 1-.62-.654 2.994 2.994 0 0 1-.331-.891 4.77 4.77 0 0 1 0-1.962c.068-.334.184-.64.348-.917.164-.277.376-.504.637-.679.26-.175.583-.263.968-.263 1.03 0 1.624.504 1.783 1.511h2.36c-.034-.566-.17-1.056-.407-1.469a3.318 3.318 0 0 0-.926-1.036 4.011 4.011 0 0 0-1.29-.62 5.504 5.504 0 0 0-1.503-.203c-.713 0-1.347.119-1.902.356a4.003 4.003 0 0 0-1.41.994 4.26 4.26 0 0 0-.874 1.511 5.849 5.849 0 0 0-.297 1.894c0 .656.107 1.259.322 1.808.215.55.515 1.022.9 1.418a4.01 4.01 0 0 0 1.401.925c.55.221 1.152.332 1.809.332Zm8.066-10.358v-1.987h-2.412v1.987h2.412Zm0 10.138v-8.78h-2.412v8.78h2.412Zm5.315.085c.238 0 .481-.006.73-.017.25-.012.476-.034.68-.068v-1.868c-.114.022-.233.04-.357.05a4.317 4.317 0 0 1-.39.018c-.408 0-.68-.068-.816-.204-.136-.136-.204-.408-.204-.815v-4.347h1.766v-1.613h-1.766v-2.633h-2.411v2.633h-1.46v1.613h1.46v5.179c0 .441.074.798.22 1.07.148.271.349.48.604.628.254.147.549.246.883.297.334.051.687.077 1.06.077Zm5.043-10.223v-1.987h-2.411v1.987h2.411Zm0 10.138v-8.78h-2.411v8.78h2.411Zm4.314 0v-4.602c0-.894.147-1.537.441-1.927.294-.391.77-.586 1.426-.586.578 0 .98.178 1.206.535.227.356.34.897.34 1.621v4.959h2.411v-5.4c0-.544-.048-1.039-.144-1.486a2.826 2.826 0 0 0-.501-1.138 2.354 2.354 0 0 0-.977-.73c-.413-.175-.942-.263-1.587-.263-.51 0-1.008.116-1.495.348-.487.232-.883.603-1.188 1.112h-.051v-1.222H64.63v8.779h2.412Zm11.547 3.311c1.007 0 1.811-.136 2.411-.407.6-.272 1.058-.603 1.375-.994.317-.39.524-.812.62-1.265.097-.453.145-.855.145-1.206v-8.218h-2.293v1.171h-.034c-.294-.51-.66-.871-1.095-1.087-.436-.215-.943-.322-1.52-.322-.611 0-1.152.119-1.622.356-.47.238-.863.558-1.18.96a4.283 4.283 0 0 0-.721 1.392 5.473 5.473 0 0 0-.247 1.639c0 .6.071 1.169.213 1.707.141.537.365 1.007.67 1.409.306.402.697.719 1.172.95.475.233 1.042.35 1.698.35.532 0 1.039-.111 1.52-.332.481-.22.852-.563 1.112-1.027h.034v1.154c.011.623-.139 1.138-.45 1.546-.311.407-.806.61-1.486.61-.43 0-.81-.087-1.137-.262-.329-.176-.55-.49-.663-.943h-2.394c.034.498.173.926.416 1.282.243.357.55.648.917.875a4.18 4.18 0 0 0 1.223.5c.447.108.885.162 1.316.162Zm.203-5.383c-.373 0-.684-.08-.934-.238a1.885 1.885 0 0 1-.602-.611c-.153-.249-.26-.53-.323-.84a4.794 4.794 0 0 1-.093-.943c0-.328.036-.642.11-.942.074-.3.192-.566.357-.799.164-.232.368-.416.61-.551.244-.136.536-.204.875-.204.397 0 .725.073.985.22.26.148.47.346.629.595.158.249.271.535.34.857.067.323.101.666.101 1.028 0 .317-.042.62-.127.908a2.407 2.407 0 0 1-.382.773c-.17.226-.385.407-.646.543-.26.136-.56.204-.9.204Zm14.706 2.293c.498 0 .988-.049 1.469-.145a3.724 3.724 0 0 0 1.282-.5c.374-.238.676-.553.909-.943.232-.39.348-.875.348-1.452 0-.408-.08-.75-.238-1.027a2.176 2.176 0 0 0-.628-.697 3.38 3.38 0 0 0-.892-.45c-.334-.113-.676-.21-1.027-.288a40.7 40.7 0 0 0-1.002-.221 7.748 7.748 0 0 1-.875-.23 1.833 1.833 0 0 1-.62-.33.661.661 0 0 1-.237-.527.65.65 0 0 1 .136-.433c.09-.107.2-.19.33-.246.131-.057.275-.094.434-.11.158-.018.305-.026.441-.026.43 0 .804.082 1.121.246.317.164.493.479.526.943h2.293c-.045-.544-.184-.994-.416-1.35a2.748 2.748 0 0 0-.875-.858 3.66 3.66 0 0 0-1.197-.458 6.956 6.956 0 0 0-1.384-.136c-.475 0-.94.042-1.392.127-.453.085-.86.232-1.223.442a2.44 2.44 0 0 0-.874.857c-.221.362-.332.827-.332 1.393 0 .385.08.71.238.976.159.266.368.487.629.662.26.176.557.317.891.425.334.107.676.2 1.027.28.86.181 1.532.362 2.013.543.48.182.721.453.721.816 0 .215-.05.393-.152.534-.102.142-.23.255-.383.34a1.82 1.82 0 0 1-.509.187 2.58 2.58 0 0 1-.535.06c-.238 0-.467-.029-.688-.086a1.784 1.784 0 0 1-.585-.263 1.41 1.41 0 0 1-.417-.458 1.322 1.322 0 0 1-.16-.671h-2.293c.022.589.155 1.078.399 1.469.243.39.554.705.934.942.379.238.812.408 1.299.51.487.102.985.153 1.494.153Zm9.476 0c.996 0 1.845-.227 2.547-.68.702-.453 1.222-1.205 1.562-2.258h-2.123c-.079.271-.294.529-.645.772-.35.244-.77.366-1.257.366-.679 0-1.2-.176-1.562-.527-.362-.35-.56-.917-.594-1.698h6.334a6.198 6.198 0 0 0-.17-1.953 4.78 4.78 0 0 0-.773-1.664 3.897 3.897 0 0 0-1.367-1.163c-.554-.289-1.205-.433-1.952-.433-.668 0-1.277.119-1.826.356a4.316 4.316 0 0 0-1.418.977 4.304 4.304 0 0 0-.917 1.469 5.12 5.12 0 0 0-.322 1.834c0 .679.104 1.302.314 1.868.21.566.506 1.052.891 1.46.385.407.855.722 1.41.942.554.221 1.177.332 1.868.332Zm1.85-5.553h-3.922c.011-.17.048-.363.11-.578a1.773 1.773 0 0 1 .934-1.095c.255-.13.575-.195.96-.195.588 0 1.027.158 1.316.475.288.317.49.781.603 1.393Zm6.25 5.332v-3.957c0-.396.04-.764.118-1.104.08-.34.213-.636.4-.891.186-.255.433-.456.738-.603.306-.147.68-.22 1.12-.22a4.631 4.631 0 0 1 .866.085l.001-2.242a1.88 1.88 0 0 0-.526-.085c-.306 0-.6.045-.883.136-.283.09-.55.218-.799.382a3.004 3.004 0 0 0-1.12 1.35h-.034v-1.63h-2.293v8.779h2.412Zm9.05 0 2.972-8.78h-2.394l-1.851 5.995h-.034l-1.851-5.994h-2.53l3.006 8.779h2.683Zm6.453-10.138v-1.987h-2.411v1.987h2.411Zm0 10.138v-8.78h-2.411v8.78h2.411Zm6.063.22c1.166 0 2.122-.305 2.87-.916.747-.612 1.2-1.5 1.358-2.666h-2.326c-.08.543-.275.976-.586 1.299-.312.322-.756.484-1.333.484-.374 0-.69-.085-.951-.255a1.902 1.902 0 0 1-.62-.654 2.994 2.994 0 0 1-.331-.891 4.77 4.77 0 0 1 0-1.962c.068-.334.184-.64.348-.917.164-.277.376-.504.637-.679.26-.175.583-.263.968-.263 1.03 0 1.624.504 1.783 1.511h2.36c-.034-.566-.17-1.056-.408-1.469a3.318 3.318 0 0 0-.925-1.036 4.011 4.011 0 0 0-1.29-.62 5.504 5.504 0 0 0-1.503-.203c-.714 0-1.348.119-1.902.356a4.003 4.003 0 0 0-1.41.994 4.26 4.26 0 0 0-.874 1.511 5.849 5.849 0 0 0-.297 1.894c0 .656.107 1.259.322 1.808.215.55.515 1.022.9 1.418a4.01 4.01 0 0 0 1.401.925c.55.221 1.152.332 1.809.332Zm9.645 0c.996 0 1.845-.226 2.547-.679.702-.453 1.223-1.205 1.562-2.258h-2.122c-.08.271-.295.529-.646.772-.35.244-.77.366-1.256.366-.68 0-1.2-.176-1.562-.527-.363-.35-.56-.917-.595-1.698h6.334a6.198 6.198 0 0 0-.17-1.953 4.78 4.78 0 0 0-.772-1.664 3.897 3.897 0 0 0-1.367-1.163c-.555-.289-1.206-.433-1.953-.433-.668 0-1.277.119-1.826.356a4.316 4.316 0 0 0-1.417.977 4.304 4.304 0 0 0-.917 1.469 5.12 5.12 0 0 0-.323 1.834c0 .679.105 1.302.314 1.868.21.566.507 1.052.892 1.46.384.407.854.722 1.409.942.555.221 1.177.332 1.868.332Zm1.85-5.552h-3.922c.012-.17.048-.363.11-.578a1.773 1.773 0 0 1 .935-1.095c.254-.13.574-.195.959-.195.589 0 1.027.158 1.316.475.289.317.49.781.603 1.393Z"/><path fill="#6F6F87" fill-rule="nonzero" d="M21.095 96.057v-7.073h-1.238v7.073h1.238Zm5.24 0V93.62c0-.284.036-.535.109-.753a1.65 1.65 0 0 1 .297-.55 1.24 1.24 0 0 1 .44-.337c.17-.076.35-.113.54-.113.08 0 .16.004.243.014.083.01.164.022.243.035v-1.09a2.45 2.45 0 0 0-.426-.03c-.172 0-.34.034-.505.1a1.752 1.752 0 0 0-.45.262c-.136.11-.252.23-.347.362-.096.132-.16.267-.194.406h-.02v-.99h-1.06v5.12h1.13Zm4.438.138c.277 0 .543-.038.797-.114.254-.076.484-.188.688-.336a2.137 2.137 0 0 0 .833-1.293h-1.07c-.1.284-.25.497-.451.639-.201.142-.467.213-.797.213-.238 0-.443-.041-.615-.124a1.217 1.217 0 0 1-.425-.332 1.416 1.416 0 0 1-.253-.485 1.967 1.967 0 0 1-.084-.575h3.764a2.93 2.93 0 0 0-.074-1.114 2.707 2.707 0 0 0-.461-.956 2.38 2.38 0 0 0-.797-.669 2.295 2.295 0 0 0-1.085-.252c-.383 0-.726.072-1.03.218a2.369 2.369 0 0 0-.778.589 2.65 2.65 0 0 0-.495.862 3.083 3.083 0 0 0-.173 1.035c0 .396.054.76.163 1.09.109.33.27.614.485.851.215.238.477.423.788.555.31.132.667.198 1.07.198Zm1.258-3.15h-2.635c.006-.191.044-.37.114-.535a1.42 1.42 0 0 1 .277-.43c.116-.123.254-.218.416-.288.162-.07.342-.104.54-.104.191 0 .365.038.52.114a1.275 1.275 0 0 1 .654.728c.062.165.1.337.114.515Zm4.23 3.15c.66 0 1.19-.176 1.59-.53.399-.353.651-.863.757-1.53h-1.13c-.052.37-.186.657-.4.862-.215.204-.487.307-.818.307-.244 0-.452-.051-.624-.154a1.288 1.288 0 0 1-.42-.4 1.733 1.733 0 0 1-.238-.566 2.77 2.77 0 0 1-.075-.634c0-.39.047-.704.139-.946.092-.24.208-.429.347-.564.138-.136.29-.228.455-.278.165-.049.32-.074.466-.074.317 0 .58.081.787.243.208.162.336.401.382.718h1.129a1.967 1.967 0 0 0-.238-.822 1.819 1.819 0 0 0-.51-.575 2.23 2.23 0 0 0-.713-.341 3.086 3.086 0 0 0-.847-.114c-.423 0-.79.07-1.104.213a2.225 2.225 0 0 0-.788.584c-.211.248-.37.54-.475.877a3.587 3.587 0 0 0-.159 1.08c0 .376.055.726.163 1.05.11.323.27.602.48.837.212.234.471.419.779.554.307.136.662.203 1.064.203Zm5.527 0c.277 0 .543-.038.797-.114.254-.076.484-.188.689-.336a2.137 2.137 0 0 0 .832-1.293h-1.07c-.1.284-.25.497-.45.639-.202.142-.468.213-.798.213-.238 0-.443-.041-.614-.124a1.217 1.217 0 0 1-.426-.332 1.416 1.416 0 0 1-.253-.485 1.967 1.967 0 0 1-.084-.575h3.764a2.93 2.93 0 0 0-.074-1.114 2.707 2.707 0 0 0-.46-.956 2.38 2.38 0 0 0-.798-.669 2.295 2.295 0 0 0-1.085-.252c-.383 0-.726.072-1.03.218a2.369 2.369 0 0 0-.778.589 2.65 2.65 0 0 0-.495.862 3.083 3.083 0 0 0-.173 1.035c0 .396.054.76.163 1.09.109.33.27.614.485.851.215.238.478.423.788.555.31.132.667.198 1.07.198Zm1.258-3.15H40.41c.006-.191.044-.37.114-.535a1.42 1.42 0 0 1 .277-.43c.116-.123.254-.218.416-.288.162-.07.342-.104.54-.104.192 0 .365.038.52.114a1.275 1.275 0 0 1 .654.728c.063.165.1.337.114.515Zm3.15-2.991v-1.07h-1.13v1.07h1.13Zm0 6.003v-5.122h-1.13v5.122h1.13Zm3.853 0 1.833-5.122h-1.17l-1.247 3.933h-.02l-1.298-3.933H46.92l1.862 5.122h1.268Zm4.775.138c.277 0 .543-.038.797-.114.254-.076.484-.188.688-.336a2.137 2.137 0 0 0 .833-1.293h-1.07c-.1.284-.25.497-.451.639-.201.142-.467.213-.797.213-.238 0-.443-.041-.615-.124a1.217 1.217 0 0 1-.426-.332 1.416 1.416 0 0 1-.252-.485 1.967 1.967 0 0 1-.084-.575h3.764a2.93 2.93 0 0 0-.074-1.114 2.707 2.707 0 0 0-.461-.956 2.38 2.38 0 0 0-.797-.669 2.295 2.295 0 0 0-1.085-.252c-.383 0-.727.072-1.03.218a2.369 2.369 0 0 0-.778.589 2.65 2.65 0 0 0-.495.862 3.083 3.083 0 0 0-.174 1.035c0 .396.055.76.164 1.09.109.33.27.614.485.851.215.238.477.423.788.555.31.132.667.198 1.07.198Zm1.258-3.15h-2.635c.006-.191.044-.37.114-.535a1.42 1.42 0 0 1 .277-.43c.116-.123.254-.218.416-.288.162-.07.342-.104.54-.104.191 0 .365.038.52.114a1.275 1.275 0 0 1 .654.728c.062.165.1.337.114.515Zm4.14 3.15c.324 0 .63-.064.921-.193.291-.129.512-.342.664-.639h.02v.694h1.07v-7.073h-1.13v2.615h-.02a1.4 1.4 0 0 0-.321-.362 1.875 1.875 0 0 0-.421-.252 2.138 2.138 0 0 0-.476-.144 2.737 2.737 0 0 0-.485-.044c-.277 0-.55.05-.817.153a1.934 1.934 0 0 0-.714.48 2.4 2.4 0 0 0-.5.833c-.125.337-.188.736-.188 1.198 0 .383.05.742.149 1.075.099.334.247.622.445.867.198.244.448.437.748.58.3.141.652.212 1.055.212Zm.149-.891c-.245 0-.456-.05-.634-.149a1.303 1.303 0 0 1-.441-.396 1.765 1.765 0 0 1-.258-.565 2.498 2.498 0 0 1-.084-.644c0-.23.025-.457.075-.678.05-.221.132-.42.247-.594.116-.175.264-.317.446-.426.182-.11.404-.164.669-.164.435 0 .78.159 1.035.476.254.317.381.76.381 1.327 0 .225-.028.444-.084.659a1.881 1.881 0 0 1-.258.58c-.115.17-.264.31-.445.415a1.268 1.268 0 0 1-.65.159Zm8.261.802c.126 0 .248-.006.367-.02l.366-.04v-.871a1.18 1.18 0 0 1-.238.035 5.71 5.71 0 0 1-.237.005.804.804 0 0 1-.298-.045.331.331 0 0 1-.163-.134.53.53 0 0 1-.07-.218 2.727 2.727 0 0 1-.014-.307v-2.734h1.02v-.842h-1.02V89.4h-1.13v1.535h-.851v.842h.852V94.8c.006.21.028.4.064.564a.855.855 0 0 0 .208.411.959.959 0 0 0 .426.248 2.5 2.5 0 0 0 .718.084Zm2.675-.05v-3.02c0-.186.03-.36.089-.526a1.35 1.35 0 0 1 .247-.43c.106-.123.235-.218.387-.288.152-.07.323-.104.515-.104.337 0 .584.091.743.273.158.181.244.473.257.876v3.22h1.13V92.54c0-.581-.162-1.017-.486-1.307-.323-.291-.766-.436-1.327-.436-.337 0-.642.077-.916.232-.275.156-.48.349-.62.58h-.02v-2.625h-1.129v7.073h1.13Zm6.815.14c.277 0 .543-.039.797-.115.254-.076.484-.188.689-.336a2.137 2.137 0 0 0 .832-1.293h-1.07c-.1.284-.25.497-.45.639-.202.142-.468.213-.798.213-.238 0-.443-.041-.614-.124a1.217 1.217 0 0 1-.426-.332 1.416 1.416 0 0 1-.253-.485 1.967 1.967 0 0 1-.084-.575h3.764a2.93 2.93 0 0 0-.074-1.114 2.707 2.707 0 0 0-.46-.956 2.38 2.38 0 0 0-.798-.669 2.295 2.295 0 0 0-1.085-.252c-.383 0-.726.072-1.03.218a2.369 2.369 0 0 0-.778.589 2.65 2.65 0 0 0-.495.862 3.083 3.083 0 0 0-.173 1.035c0 .396.054.76.163 1.09.109.33.27.614.485.851.215.238.478.423.788.555.31.132.667.198 1.07.198Zm1.258-3.15h-2.635c.006-.192.044-.37.114-.536a1.42 1.42 0 0 1 .277-.43c.116-.123.254-.218.416-.288.162-.07.342-.104.54-.104.191 0 .365.038.52.114a1.275 1.275 0 0 1 .654.728c.063.165.1.337.114.515Zm5.903 4.903v-2.556h.02a1.4 1.4 0 0 0 .322.361c.129.103.27.187.421.253.152.066.31.114.476.144.165.03.33.044.495.044.376 0 .703-.074.98-.223a2.03 2.03 0 0 0 .69-.594c.18-.248.316-.533.405-.857a3.75 3.75 0 0 0 .134-1c0-.377-.05-.73-.149-1.06-.099-.33-.247-.62-.445-.867a2.08 2.08 0 0 0-.748-.584 2.446 2.446 0 0 0-1.055-.213c-.33 0-.637.064-.921.193a1.396 1.396 0 0 0-.664.639h-.02v-.694h-1.07v7.014h1.13Zm1.397-2.645a1.285 1.285 0 0 1-1.06-.515 1.616 1.616 0 0 1-.282-.57 2.623 2.623 0 0 1-.094-.718c0-.548.12-.987.361-1.318.241-.33.6-.495 1.075-.495.231 0 .436.051.614.154.179.102.327.237.446.406.119.168.208.361.268.58.059.217.089.442.089.673 0 .224-.025.444-.075.659-.05.214-.132.406-.247.574a1.382 1.382 0 0 1-.441.411 1.262 1.262 0 0 1-.654.159Zm7.618.891a2.05 2.05 0 0 0 .367-.04 3.309 3.309 0 0 0 .346-.088v-.783a.74.74 0 0 1-.159.02h-.119c-.105 0-.176-.03-.212-.09-.037-.059-.055-.158-.055-.297v-2.634c0-.271-.06-.5-.178-.689a1.427 1.427 0 0 0-.47-.46 2.11 2.11 0 0 0-.66-.258 3.505 3.505 0 0 0-.742-.08c-.284 0-.562.027-.833.08-.27.053-.513.145-.728.277a1.642 1.642 0 0 0-.53.525c-.138.218-.217.492-.237.822h1.129c.026-.277.142-.482.347-.614.204-.132.465-.198.782-.198.112 0 .231.008.357.025.125.016.24.05.342.099.102.05.188.12.257.213.07.092.104.211.104.357 0 .165-.041.289-.124.371a.75.75 0 0 1-.336.183c-.142.04-.306.068-.49.085-.186.016-.38.044-.585.084a7.352 7.352 0 0 0-.709.114c-.234.05-.445.13-.633.242-.189.113-.34.268-.456.466-.116.198-.173.456-.173.773 0 .25.047.47.143.658.096.188.225.344.386.466.162.122.349.214.56.277.211.063.433.094.664.094.304 0 .619-.05.946-.148.327-.1.602-.258.827-.476.046.231.145.393.297.486.152.092.344.138.575.138Zm-2.23-.891c-.098 0-.209-.01-.331-.03a1.215 1.215 0 0 1-.337-.104.791.791 0 0 1-.262-.203.474.474 0 0 1-.11-.317c0-.145.026-.27.075-.371a.652.652 0 0 1 .203-.248c.086-.063.185-.112.297-.149.113-.036.228-.064.347-.084.25-.046.502-.08.753-.104.25-.023.462-.09.634-.203v.842a.764.764 0 0 1-.129.45 1.082 1.082 0 0 1-.322.303 1.35 1.35 0 0 1-.411.168 1.84 1.84 0 0 1-.406.05Zm5.855.891c.66 0 1.19-.176 1.59-.53.4-.353.652-.863.758-1.53h-1.13c-.052.37-.186.657-.4.862-.215.204-.488.307-.818.307-.244 0-.452-.051-.624-.154a1.288 1.288 0 0 1-.42-.4 1.733 1.733 0 0 1-.239-.566 2.77 2.77 0 0 1-.074-.634c0-.39.046-.704.139-.946.092-.24.208-.429.346-.564.14-.136.291-.228.456-.278.165-.049.32-.074.466-.074.317 0 .58.081.787.243.208.162.335.401.382.718h1.129a1.967 1.967 0 0 0-.238-.822 1.819 1.819 0 0 0-.51-.575 2.23 2.23 0 0 0-.713-.341 3.086 3.086 0 0 0-.847-.114c-.423 0-.791.07-1.105.213a2.225 2.225 0 0 0-.787.584c-.212.248-.37.54-.476.877a3.587 3.587 0 0 0-.158 1.08c0 .376.054.726.163 1.05.11.323.27.602.48.837.212.234.471.419.778.554.307.136.662.203 1.065.203Zm4.428-.138v-1.833l.674-.654 1.565 2.487h1.377l-2.15-3.24 1.961-1.882h-1.386l-2.041 2.07v-4.021h-1.13v7.073h1.13Zm8.281.138a2.05 2.05 0 0 0 .367-.04 3.309 3.309 0 0 0 .346-.088v-.783a.74.74 0 0 1-.158.02h-.12c-.105 0-.176-.03-.212-.09-.036-.059-.055-.158-.055-.297v-2.634c0-.271-.059-.5-.178-.689a1.427 1.427 0 0 0-.47-.46 2.11 2.11 0 0 0-.66-.258 3.505 3.505 0 0 0-.742-.08c-.284 0-.561.027-.832.08-.27.053-.514.145-.728.277a1.642 1.642 0 0 0-.53.525c-.139.218-.218.492-.238.822h1.13c.026-.277.141-.482.346-.614s.466-.198.783-.198c.112 0 .23.008.356.025.126.016.24.05.342.099.102.05.188.12.258.213.069.092.104.211.104.357 0 .165-.042.289-.124.371a.75.75 0 0 1-.337.183c-.142.04-.305.068-.49.085-.185.016-.38.044-.585.084a7.352 7.352 0 0 0-.708.114c-.234.05-.446.13-.634.242-.188.113-.34.268-.456.466-.115.198-.173.456-.173.773 0 .25.048.47.144.658.095.188.224.344.386.466.162.122.348.214.56.277.21.063.432.094.663.094.304 0 .62-.05.946-.148.327-.1.603-.258.827-.476.047.231.146.393.298.486.151.092.343.138.574.138Zm-2.229-.891c-.099 0-.21-.01-.332-.03a1.215 1.215 0 0 1-.336-.104.791.791 0 0 1-.263-.203.474.474 0 0 1-.109-.317c0-.145.025-.27.075-.371a.652.652 0 0 1 .203-.248c.085-.063.184-.112.297-.149.112-.036.228-.064.346-.084.251-.046.502-.08.753-.104.251-.023.463-.09.634-.203v.842a.764.764 0 0 1-.129.45 1.082 1.082 0 0 1-.321.303 1.35 1.35 0 0 1-.412.168 1.84 1.84 0 0 1-.406.05Zm5.835 2.783c.812 0 1.434-.19 1.867-.57.432-.379.649-.955.649-1.728v-4.854h-1.13v.704h-.02a1.378 1.378 0 0 0-.623-.64 1.965 1.965 0 0 0-.892-.202c-.363 0-.688.069-.976.208-.287.138-.53.325-.728.56a2.5 2.5 0 0 0-.455.817c-.106.31-.159.637-.159.98 0 .37.043.717.129 1.04.086.324.223.61.411.857.188.248.426.443.713.585.288.142.636.213 1.045.213a1.741 1.741 0 0 0 1.536-.902h.02v.783c0 .422-.106.746-.317.97-.212.225-.545.337-1 .337-.146 0-.285-.008-.417-.024a1.073 1.073 0 0 1-.362-.11.868.868 0 0 1-.282-.232.904.904 0 0 1-.168-.387h-1.13c.027.298.113.549.258.753.145.205.325.37.54.496.215.125.452.214.713.267.261.053.52.08.778.08Zm.01-2.922c-.238 0-.441-.05-.61-.148a1.295 1.295 0 0 1-.416-.387 1.71 1.71 0 0 1-.242-.54 2.43 2.43 0 0 1-.08-.619c0-.211.024-.424.07-.639.046-.214.122-.406.228-.574a1.27 1.27 0 0 1 .416-.411c.171-.106.383-.159.634-.159.244 0 .454.046.629.139.175.092.317.218.426.376.109.159.19.34.242.545.053.205.08.416.08.634 0 .218-.025.434-.075.649-.05.215-.129.406-.237.574-.11.169-.251.304-.426.407a1.245 1.245 0 0 1-.64.153Zm5.903 1.03c.278 0 .544-.038.798-.114.254-.076.484-.188.688-.336a2.137 2.137 0 0 0 .832-1.293h-1.07c-.099.284-.249.497-.45.639-.202.142-.467.213-.798.213-.237 0-.442-.041-.614-.124a1.217 1.217 0 0 1-.426-.332 1.416 1.416 0 0 1-.252-.485 1.967 1.967 0 0 1-.084-.575h3.764a2.93 2.93 0 0 0-.075-1.114 2.707 2.707 0 0 0-.46-.956 2.38 2.38 0 0 0-.798-.669 2.295 2.295 0 0 0-1.084-.252c-.383 0-.727.072-1.03.218a2.369 2.369 0 0 0-.778.589 2.65 2.65 0 0 0-.495.862 3.083 3.083 0 0 0-.174 1.035c0 .396.055.76.164 1.09.109.33.27.614.485.851.215.238.477.423.788.555.31.132.667.198 1.07.198Zm1.258-3.15h-2.634c.006-.191.044-.37.113-.535a1.42 1.42 0 0 1 .278-.43c.115-.123.254-.218.416-.288.162-.07.342-.104.54-.104.191 0 .365.038.52.114a1.275 1.275 0 0 1 .654.728c.062.165.1.337.113.515Zm7.093 3.15c.41 0 .774-.067 1.094-.203.32-.135.591-.322.813-.56.221-.237.39-.521.505-.851a3.28 3.28 0 0 0 .173-1.09c0-.39-.058-.75-.173-1.08a2.394 2.394 0 0 0-.505-.852 2.334 2.334 0 0 0-.813-.56 2.789 2.789 0 0 0-1.094-.202c-.41 0-.774.067-1.095.203-.32.135-.59.322-.812.56-.221.237-.39.521-.505.851-.116.33-.173.69-.173 1.08 0 .396.057.76.173 1.09.115.33.284.614.505.852.221.237.492.424.812.56.32.135.685.202 1.095.202Zm0-.891a1.296 1.296 0 0 1-1.11-.575 1.816 1.816 0 0 1-.262-.58 2.593 2.593 0 0 1 0-1.312c.056-.218.144-.41.262-.58a1.4 1.4 0 0 1 .456-.41c.185-.106.403-.159.654-.159.25 0 .469.053.654.159a1.4 1.4 0 0 1 .455.41c.12.17.207.362.263.58a2.612 2.612 0 0 1 0 1.313 1.816 1.816 0 0 1-.263.58 1.296 1.296 0 0 1-1.11.575Zm4.656.753v-3.022c0-.185.03-.36.089-.525a1.35 1.35 0 0 1 .247-.43c.106-.123.235-.218.387-.288.152-.07.323-.104.515-.104.337 0 .584.091.743.273.158.181.244.473.257.876v3.22h1.13V92.54c0-.581-.162-1.017-.486-1.307-.323-.291-.766-.436-1.327-.436-.337 0-.644.08-.921.242a1.893 1.893 0 0 0-.674.669l-.02-.02v-.753h-1.07v5.122h1.13Zm5.715 0v-7.073h-1.13v7.073h1.13Zm1.932 2.03c.297 0 .541-.048.733-.143.191-.096.351-.225.48-.387.129-.161.238-.348.327-.56.09-.21.18-.432.272-.663l1.991-5.399h-1.178l-1.298 3.824h-.02l-1.337-3.824h-1.238l1.941 5.102-.128.396a2.18 2.18 0 0 1-.11.297.892.892 0 0 1-.143.223.54.54 0 0 1-.213.144.92.92 0 0 1-.327.05c-.092 0-.182-.009-.267-.026a5.642 5.642 0 0 0-.268-.044v.95c.258.04.519.06.783.06Zm8.945-1.98c.125 0 .247-.007.366-.02.119-.014.241-.027.367-.04v-.872a1.18 1.18 0 0 1-.238.035 5.71 5.71 0 0 1-.238.005.804.804 0 0 1-.297-.045.331.331 0 0 1-.164-.134.53.53 0 0 1-.069-.218 2.727 2.727 0 0 1-.015-.307v-2.734h1.02v-.842h-1.02V89.4h-1.129v1.535h-.852v.842h.852V94.8c.007.21.028.4.064.564a.855.855 0 0 0 .208.411.959.959 0 0 0 .426.248 2.5 2.5 0 0 0 .719.084Zm3.853-.05.94-3.804h.02l.952 3.804h1.159l1.604-5.122h-1.149l-1.04 3.824h-.02l-.92-3.824h-1.14l-.96 3.824h-.02l-1.001-3.824h-1.199l1.585 5.122h1.189Zm7.746.138c.41 0 .774-.067 1.095-.203.32-.135.59-.322.812-.56.221-.237.39-.521.505-.851a3.28 3.28 0 0 0 .173-1.09c0-.39-.057-.75-.173-1.08a2.394 2.394 0 0 0-.505-.852 2.334 2.334 0 0 0-.812-.56 2.789 2.789 0 0 0-1.095-.202c-.41 0-.774.067-1.095.203-.32.135-.59.322-.812.56-.221.237-.39.521-.505.851-.116.33-.173.69-.173 1.08 0 .396.057.76.173 1.09.116.33.284.614.505.852.221.237.492.424.812.56.32.135.686.202 1.095.202Zm0-.891a1.296 1.296 0 0 1-1.11-.575 1.816 1.816 0 0 1-.262-.58 2.593 2.593 0 0 1 0-1.312c.056-.218.144-.41.263-.58a1.4 1.4 0 0 1 .455-.41c.185-.106.403-.159.654-.159s.469.053.654.159a1.4 1.4 0 0 1 .455.41c.12.17.207.362.263.58a2.612 2.612 0 0 1 0 1.313 1.816 1.816 0 0 1-.263.58 1.296 1.296 0 0 1-1.11.575Zm8.43.891c.323 0 .63-.064.921-.193.29-.129.512-.342.664-.639h.02v.694h1.07v-7.073h-1.13v2.615h-.02a1.4 1.4 0 0 0-.322-.362 1.875 1.875 0 0 0-.42-.252 2.138 2.138 0 0 0-.476-.144 2.737 2.737 0 0 0-.486-.044c-.277 0-.55.05-.817.153a1.934 1.934 0 0 0-.713.48 2.4 2.4 0 0 0-.5.833c-.126.337-.188.736-.188 1.198 0 .383.05.742.148 1.075.1.334.248.622.446.867.198.244.447.437.748.58.3.141.652.212 1.055.212Zm.148-.891c-.244 0-.455-.05-.634-.149a1.303 1.303 0 0 1-.44-.396 1.765 1.765 0 0 1-.258-.565 2.498 2.498 0 0 1-.084-.644c0-.23.025-.457.074-.678.05-.221.132-.42.248-.594.115-.175.264-.317.446-.426.181-.11.404-.164.668-.164.436 0 .781.159 1.035.476.255.317.382.76.382 1.327 0 .225-.028.444-.085.659a1.881 1.881 0 0 1-.257.58c-.116.17-.264.31-.446.415a1.268 1.268 0 0 1-.649.159Zm7.875.891a2.05 2.05 0 0 0 .367-.04 3.309 3.309 0 0 0 .347-.088v-.783a.74.74 0 0 1-.159.02h-.119c-.105 0-.176-.03-.213-.09-.036-.059-.054-.158-.054-.297v-2.634c0-.271-.06-.5-.179-.689a1.427 1.427 0 0 0-.47-.46 2.11 2.11 0 0 0-.659-.258 3.505 3.505 0 0 0-.743-.08c-.284 0-.561.027-.832.08-.27.053-.513.145-.728.277a1.642 1.642 0 0 0-.53.525c-.138.218-.218.492-.238.822h1.13c.026-.277.142-.482.346-.614.205-.132.466-.198.783-.198.112 0 .231.008.357.025.125.016.239.05.341.099.103.05.189.12.258.213.07.092.104.211.104.357 0 .165-.041.289-.124.371a.75.75 0 0 1-.337.183c-.142.04-.305.068-.49.085-.185.016-.38.044-.585.084a7.352 7.352 0 0 0-.708.114c-.234.05-.446.13-.634.242-.188.113-.34.268-.455.466-.116.198-.174.456-.174.773 0 .25.048.47.144.658.096.188.224.344.386.466.162.122.349.214.56.277.211.063.432.094.664.094.303 0 .619-.05.946-.148.326-.1.602-.258.827-.476.046.231.145.393.297.486.152.092.343.138.574.138Zm-2.228-.891c-.1 0-.21-.01-.332-.03a1.215 1.215 0 0 1-.337-.104.791.791 0 0 1-.263-.203.474.474 0 0 1-.109-.317c0-.145.025-.27.075-.371a.652.652 0 0 1 .203-.248c.086-.063.185-.112.297-.149.112-.036.228-.064.347-.084.25-.046.502-.08.753-.104.25-.023.462-.09.634-.203v.842a.764.764 0 0 1-.13.45 1.082 1.082 0 0 1-.321.303 1.35 1.35 0 0 1-.411.168 1.84 1.84 0 0 1-.406.05Zm4.318 2.783c.298 0 .542-.048.733-.143.192-.096.352-.225.48-.387.13-.161.239-.348.328-.56.089-.21.18-.432.272-.663l1.991-5.399h-1.179l-1.297 3.824h-.02l-1.337-3.824h-1.238l1.941 5.102-.129.396a2.18 2.18 0 0 1-.109.297.892.892 0 0 1-.143.223.54.54 0 0 1-.213.144.92.92 0 0 1-.327.05c-.093 0-.182-.009-.268-.026a5.642 5.642 0 0 0-.267-.044v.95c.257.04.518.06.782.06Zm6.43-1.892c.263 0 .53-.03.802-.089.27-.06.516-.155.738-.287.22-.132.4-.304.54-.515.138-.212.207-.47.207-.773 0-.25-.047-.462-.143-.634a1.3 1.3 0 0 0-.377-.426 1.948 1.948 0 0 0-.53-.267 6.292 6.292 0 0 0-.604-.169c-.211-.046-.416-.089-.614-.128a3.695 3.695 0 0 1-.53-.144 1.137 1.137 0 0 1-.376-.213.43.43 0 0 1-.144-.337c0-.112.033-.203.1-.272a.646.646 0 0 1 .242-.159c.096-.036.198-.06.307-.074.109-.013.203-.02.282-.02.251 0 .474.046.669.139.195.092.318.274.371.545h1.179a1.697 1.697 0 0 0-.243-.728 1.6 1.6 0 0 0-.485-.49 2.06 2.06 0 0 0-.654-.273 3.331 3.331 0 0 0-.758-.084c-.23 0-.473.023-.728.069a2.243 2.243 0 0 0-.693.243c-.208.115-.38.267-.515.455a1.165 1.165 0 0 0-.203.699c0 .257.046.474.138.649.093.175.217.318.372.43.155.113.33.202.525.268s.398.122.61.168c.204.047.405.09.603.13.198.039.375.087.53.143.156.056.283.13.382.223.099.092.152.21.158.356a.488.488 0 0 1-.104.352.717.717 0 0 1-.292.203 1.573 1.573 0 0 1-.381.094 3.022 3.022 0 0 1-.362.025c-.304 0-.565-.066-.783-.198-.217-.132-.343-.364-.376-.694h-1.13c.007.304.069.567.184.788.116.221.274.406.476.554.201.15.439.26.713.332.274.073.573.11.896.11Zm10.024 0a2.05 2.05 0 0 0 .367-.04 3.309 3.309 0 0 0 .346-.088v-.783a.74.74 0 0 1-.159.02h-.118c-.106 0-.177-.03-.213-.09-.037-.059-.055-.158-.055-.297v-2.634c0-.271-.06-.5-.178-.689a1.427 1.427 0 0 0-.47-.46 2.11 2.11 0 0 0-.66-.258 3.505 3.505 0 0 0-.742-.08c-.284 0-.562.027-.832.08-.271.053-.514.145-.728.277a1.642 1.642 0 0 0-.53.525c-.14.218-.218.492-.238.822h1.13c.026-.277.141-.482.346-.614s.465-.198.782-.198c.113 0 .231.008.357.025.125.016.24.05.342.099.102.05.188.12.257.213.07.092.104.211.104.357 0 .165-.041.289-.124.371a.75.75 0 0 1-.336.183c-.142.04-.306.068-.49.085-.186.016-.38.044-.585.084a7.352 7.352 0 0 0-.708.114c-.235.05-.446.13-.634.242-.189.113-.34.268-.456.466-.116.198-.173.456-.173.773 0 .25.048.47.143.658.096.188.225.344.387.466.161.122.348.214.56.277.21.063.432.094.663.094.304 0 .619-.05.946-.148.327-.1.603-.258.827-.476.046.231.145.393.297.486.152.092.344.138.575.138Zm-2.229-.891c-.1 0-.21-.01-.332-.03a1.215 1.215 0 0 1-.337-.104.791.791 0 0 1-.262-.203.474.474 0 0 1-.11-.317c0-.145.026-.27.075-.371a.652.652 0 0 1 .203-.248c.086-.063.185-.112.297-.149.113-.036.228-.064.347-.084.251-.046.502-.08.753-.104.25-.023.462-.09.634-.203v.842a.764.764 0 0 1-.129.45 1.082 1.082 0 0 1-.322.303 1.35 1.35 0 0 1-.41.168 1.84 1.84 0 0 1-.407.05Zm5.082.753v-4.28h.96v-.842h-.96v-.525c0-.21.054-.353.163-.426a.689.689 0 0 1 .391-.109c.113 0 .21.005.293.015.082.01.16.025.232.045v-.882c-.165-.046-.429-.069-.792-.069-.185 0-.362.018-.53.054a1.044 1.044 0 0 0-.45.218 1.119 1.119 0 0 0-.318.466c-.079.201-.119.464-.119.787v.426h-.842v.842h.842v4.28h1.13Zm3.407.05c.126 0 .248-.007.367-.02l.366-.04v-.872a1.18 1.18 0 0 1-.238.035 5.71 5.71 0 0 1-.237.005.804.804 0 0 1-.297-.045.331.331 0 0 1-.164-.134.53.53 0 0 1-.07-.218 2.727 2.727 0 0 1-.014-.307v-2.734h1.02v-.842h-1.02V89.4h-1.13v1.535h-.851v.842h.852V94.8c.006.21.028.4.064.564a.855.855 0 0 0 .208.411.959.959 0 0 0 .426.248 2.5 2.5 0 0 0 .718.084Zm3.804.088c.277 0 .543-.038.797-.114.255-.076.484-.188.689-.336a2.137 2.137 0 0 0 .832-1.293h-1.07c-.099.284-.25.497-.45.639-.202.142-.468.213-.798.213-.238 0-.443-.041-.614-.124a1.217 1.217 0 0 1-.426-.332 1.416 1.416 0 0 1-.253-.485 1.967 1.967 0 0 1-.084-.575h3.764a2.93 2.93 0 0 0-.074-1.114 2.707 2.707 0 0 0-.46-.956 2.38 2.38 0 0 0-.798-.669 2.295 2.295 0 0 0-1.085-.252c-.383 0-.726.072-1.03.218a2.369 2.369 0 0 0-.778.589 2.65 2.65 0 0 0-.495.862 3.083 3.083 0 0 0-.173 1.035c0 .396.054.76.163 1.09.11.33.271.614.486.851.214.238.477.423.787.555.31.132.667.198 1.07.198Zm1.258-3.15h-2.635c.007-.191.045-.37.114-.535a1.42 1.42 0 0 1 .277-.43c.116-.123.255-.218.416-.288.162-.07.342-.104.54-.104.192 0 .365.038.52.114a1.275 1.275 0 0 1 .654.728c.063.165.1.337.114.515Zm3.12 3.012V93.62c0-.284.037-.535.11-.753a1.65 1.65 0 0 1 .296-.55 1.24 1.24 0 0 1 .441-.337c.169-.076.348-.113.54-.113.08 0 .16.004.243.014.082.01.163.022.242.035v-1.09a2.45 2.45 0 0 0-.426-.03c-.171 0-.34.034-.505.1a1.752 1.752 0 0 0-.45.262c-.136.11-.251.23-.347.362-.096.132-.16.267-.193.406h-.02v-.99h-1.06v5.12h1.13Zm6.24 0v-3.041c0-.212.032-.4.095-.565.063-.165.145-.304.248-.416a1.05 1.05 0 0 1 .777-.347c.344 0 .58.091.708.273.13.181.194.45.194.807v3.289h1.129v-3.002c0-.436.086-.772.257-1.01.172-.238.45-.357.832-.357.218 0 .39.033.515.1.126.065.22.16.283.282.063.122.1.267.114.435.013.169.02.355.02.56v2.992h1.129V92.52c0-.62-.15-1.063-.45-1.327-.301-.264-.722-.396-1.264-.396-.376 0-.69.076-.94.228a2.28 2.28 0 0 0-.665.624 1.176 1.176 0 0 0-.57-.644 1.855 1.855 0 0 0-.866-.208 2.09 2.09 0 0 0-.545.064 1.513 1.513 0 0 0-.753.44 2.9 2.9 0 0 0-.277.348h-.03v-.714h-1.07v5.122h1.13Zm11.61.138a2.05 2.05 0 0 0 .367-.04 3.308 3.308 0 0 0 .346-.088v-.783a.74.74 0 0 1-.158.02h-.119c-.106 0-.177-.03-.213-.09-.036-.059-.054-.158-.054-.297v-2.634c0-.271-.06-.5-.179-.689a1.427 1.427 0 0 0-.47-.46 2.11 2.11 0 0 0-.659-.258 3.505 3.505 0 0 0-.743-.08c-.284 0-.561.027-.832.08-.27.053-.513.145-.728.277a1.642 1.642 0 0 0-.53.525c-.139.218-.218.492-.238.822h1.13c.026-.277.142-.482.346-.614.205-.132.466-.198.783-.198.112 0 .23.008.356.025.126.016.24.05.342.099.103.05.188.12.258.213.069.092.104.211.104.357 0 .165-.042.289-.124.371a.75.75 0 0 1-.337.183c-.142.04-.305.068-.49.085-.185.016-.38.044-.585.084a7.352 7.352 0 0 0-.708.114c-.234.05-.446.13-.634.242-.188.113-.34.268-.456.466-.115.198-.173.456-.173.773 0 .25.048.47.144.658.095.188.224.344.386.466.162.122.348.214.56.277.211.063.432.094.663.094.304 0 .62-.05.946-.148.327-.1.603-.258.828-.476.046.231.145.393.297.486.152.092.343.138.574.138Zm-2.229-.891c-.099 0-.21-.01-.331-.03a1.215 1.215 0 0 1-.337-.104.791.791 0 0 1-.263-.203.474.474 0 0 1-.109-.317c0-.145.025-.27.075-.371a.652.652 0 0 1 .203-.248c.086-.063.185-.112.297-.149.112-.036.228-.064.347-.084.25-.046.501-.08.752-.104.251-.023.463-.09.634-.203v.842a.764.764 0 0 1-.128.45 1.082 1.082 0 0 1-.322.303 1.35 1.35 0 0 1-.411.168 1.84 1.84 0 0 1-.407.05Zm4.775.753v-1.833l.674-.654 1.565 2.487h1.377l-2.15-3.24 1.961-1.882h-1.386l-2.041 2.07v-4.021h-1.13v7.073h1.13Zm5.32-6.003v-1.07h-1.13v1.07h1.13Zm0 6.003v-5.122h-1.13v5.122h1.13Zm2.357 0v-3.022c0-.185.03-.36.089-.525a1.35 1.35 0 0 1 .248-.43c.105-.123.234-.218.386-.288.152-.07.324-.104.515-.104.337 0 .584.091.743.273.158.181.244.473.258.876v3.22h1.129V92.54c0-.581-.162-1.017-.486-1.307-.323-.291-.766-.436-1.327-.436-.337 0-.644.08-.921.242a1.893 1.893 0 0 0-.674.669l-.02-.02v-.753h-1.07v5.122h1.13Zm6.775 2.03c.813 0 1.435-.19 1.868-.57.432-.379.648-.955.648-1.728v-4.854h-1.129v.704h-.02a1.378 1.378 0 0 0-.624-.64 1.965 1.965 0 0 0-.891-.202c-.363 0-.689.069-.976.208-.287.138-.53.325-.728.56a2.5 2.5 0 0 0-.456.817c-.105.31-.158.637-.158.98 0 .37.043.717.129 1.04.085.324.222.61.41.857.189.248.427.443.714.585.287.142.635.213 1.045.213a1.741 1.741 0 0 0 1.535-.902h.02v.783c0 .422-.106.746-.317.97-.211.225-.545.337-1 .337-.146 0-.284-.008-.416-.024a1.073 1.073 0 0 1-.362-.11.868.868 0 0 1-.282-.232.904.904 0 0 1-.169-.387h-1.129c.027.298.112.549.258.753.145.205.325.37.54.496.214.125.452.214.713.267.26.053.52.08.777.08Zm.01-2.922c-.238 0-.44-.05-.609-.148a1.295 1.295 0 0 1-.416-.387 1.71 1.71 0 0 1-.243-.54 2.43 2.43 0 0 1-.079-.619c0-.211.023-.424.07-.639.046-.214.122-.406.227-.574a1.27 1.27 0 0 1 .416-.411c.172-.106.383-.159.634-.159.245 0 .454.046.63.139.174.092.316.218.425.376.11.159.19.34.243.545.053.205.08.416.08.634 0 .218-.026.434-.075.649-.05.215-.129.406-.238.574-.109.169-.25.304-.426.407a1.245 1.245 0 0 1-.639.153Zm8.153.941c.125 0 .247-.006.366-.02l.367-.04v-.871a1.18 1.18 0 0 1-.238.035 5.71 5.71 0 0 1-.238.005.804.804 0 0 1-.297-.045.331.331 0 0 1-.163-.134.53.53 0 0 1-.07-.218 2.727 2.727 0 0 1-.015-.307v-2.734h1.02v-.842h-1.02V89.4h-1.129v1.535h-.852v.842h.852V94.8c.007.21.028.4.064.564a.855.855 0 0 0 .208.411.959.959 0 0 0 .426.248 2.5 2.5 0 0 0 .719.084Zm2.674-.05v-3.02c0-.186.03-.36.09-.526a1.35 1.35 0 0 1 .247-.43c.106-.123.234-.218.386-.288.152-.07.324-.104.515-.104.337 0 .585.091.743.273.159.181.245.473.258.876v3.22h1.129V92.54c0-.581-.162-1.017-.485-1.307-.324-.291-.766-.436-1.328-.436-.336 0-.642.077-.916.232-.274.156-.48.349-.62.58h-.019v-2.625h-1.13v7.073h1.13Zm6.815.14c.278 0 .543-.039.798-.115.254-.076.483-.188.688-.336a2.137 2.137 0 0 0 .832-1.293h-1.07c-.099.284-.249.497-.45.639-.202.142-.468.213-.798.213-.238 0-.442-.041-.614-.124a1.217 1.217 0 0 1-.426-.332 1.416 1.416 0 0 1-.252-.485 1.967 1.967 0 0 1-.085-.575h3.764a2.93 2.93 0 0 0-.074-1.114 2.707 2.707 0 0 0-.46-.956 2.38 2.38 0 0 0-.798-.669 2.295 2.295 0 0 0-1.085-.252c-.383 0-.726.072-1.03.218a2.369 2.369 0 0 0-.777.589 2.65 2.65 0 0 0-.496.862 3.083 3.083 0 0 0-.173 1.035c0 .396.055.76.164 1.09.108.33.27.614.485.851.215.238.477.423.787.555.31.132.667.198 1.07.198Zm1.258-3.15h-2.635c.007-.192.045-.37.114-.536a1.42 1.42 0 0 1 .278-.43c.115-.123.254-.218.416-.288.161-.07.341-.104.54-.104.191 0 .364.038.52.114a1.275 1.275 0 0 1 .653.728c.063.165.101.337.114.515Zm7.093 3.15c.41 0 .774-.068 1.094-.204.32-.135.591-.322.813-.56.22-.237.39-.521.505-.851a3.28 3.28 0 0 0 .173-1.09c0-.39-.058-.75-.173-1.08a2.394 2.394 0 0 0-.505-.852 2.334 2.334 0 0 0-.813-.56 2.789 2.789 0 0 0-1.094-.202c-.41 0-.775.067-1.095.203-.32.135-.59.322-.812.56-.221.237-.39.521-.505.851-.116.33-.174.69-.174 1.08 0 .396.058.76.174 1.09.115.33.284.614.505.852.221.237.492.424.812.56.32.135.685.202 1.095.202Zm0-.892a1.296 1.296 0 0 1-1.11-.575 1.816 1.816 0 0 1-.262-.58 2.593 2.593 0 0 1 0-1.312c.056-.218.143-.41.262-.58a1.4 1.4 0 0 1 .456-.41c.185-.106.403-.159.654-.159.25 0 .469.053.653.159a1.4 1.4 0 0 1 .456.41c.119.17.206.362.263.58a2.612 2.612 0 0 1 0 1.313 1.816 1.816 0 0 1-.263.58 1.296 1.296 0 0 1-1.11.575Zm4.655.753V93.62c0-.284.037-.535.11-.753a1.65 1.65 0 0 1 .296-.55 1.24 1.24 0 0 1 .441-.337c.169-.076.349-.113.54-.113.08 0 .16.004.243.014.082.01.163.022.243.035v-1.09a2.45 2.45 0 0 0-.426-.03c-.172 0-.34.034-.506.1a1.752 1.752 0 0 0-.45.262c-.136.11-.251.23-.347.362-.096.132-.16.267-.193.406h-.02v-.99h-1.06v5.12h1.13Zm4.33.138c.323 0 .63-.064.92-.193.29-.129.512-.342.664-.639h.02v.694h1.07v-7.073h-1.13v2.615h-.02a1.4 1.4 0 0 0-.321-.362 1.875 1.875 0 0 0-.421-.252 2.138 2.138 0 0 0-.476-.144 2.737 2.737 0 0 0-.485-.044c-.278 0-.55.05-.817.153a1.934 1.934 0 0 0-.714.48 2.4 2.4 0 0 0-.5.833c-.125.337-.188.736-.188 1.198 0 .383.05.742.149 1.075.099.334.247.622.445.867.198.244.448.437.748.58.3.141.652.212 1.055.212Zm.148-.891c-.245 0-.456-.05-.634-.149a1.303 1.303 0 0 1-.441-.396 1.765 1.765 0 0 1-.258-.565 2.498 2.498 0 0 1-.084-.644c0-.23.025-.457.074-.678.05-.221.133-.42.248-.594.116-.175.264-.317.446-.426.181-.11.404-.164.669-.164.435 0 .78.159 1.035.476.254.317.381.76.381 1.327 0 .225-.028.444-.084.659a1.881 1.881 0 0 1-.258.58c-.115.17-.264.31-.445.415a1.268 1.268 0 0 1-.65.159Zm6.012.891c.278 0 .544-.038.798-.114.254-.076.484-.188.688-.336a2.137 2.137 0 0 0 .832-1.293h-1.07c-.099.284-.249.497-.45.639-.202.142-.467.213-.798.213-.237 0-.442-.041-.614-.124a1.217 1.217 0 0 1-.426-.332 1.416 1.416 0 0 1-.252-.485 1.967 1.967 0 0 1-.084-.575h3.764a2.93 2.93 0 0 0-.075-1.114 2.707 2.707 0 0 0-.46-.956 2.38 2.38 0 0 0-.798-.669 2.295 2.295 0 0 0-1.084-.252c-.383 0-.727.072-1.03.218a2.369 2.369 0 0 0-.778.589 2.65 2.65 0 0 0-.495.862 3.083 3.083 0 0 0-.174 1.035c0 .396.055.76.164 1.09.109.33.27.614.485.851.215.238.477.423.788.555.31.132.667.198 1.07.198Zm1.258-3.15h-2.634c.006-.191.044-.37.113-.535a1.42 1.42 0 0 1 .278-.43c.115-.123.254-.218.416-.288.162-.07.342-.104.54-.104.191 0 .365.038.52.114a1.275 1.275 0 0 1 .654.728c.062.165.1.337.113.515Zm3.12 3.012V93.62c0-.284.037-.535.11-.753a1.65 1.65 0 0 1 .297-.55 1.24 1.24 0 0 1 .44-.337c.17-.076.349-.113.54-.113.08 0 .16.004.243.014.083.01.164.022.243.035v-1.09a2.45 2.45 0 0 0-.426-.03c-.172 0-.34.034-.505.1a1.752 1.752 0 0 0-.45.262c-.136.11-.252.23-.348.362-.095.132-.16.267-.193.406h-.02v-.99h-1.06v5.12h1.13Zm7.886-2.16v-1.07h-2.883v1.07h2.883Zm5.586 2.21c.126 0 .248-.007.367-.02l.366-.04v-.872a1.18 1.18 0 0 1-.237.035 5.71 5.71 0 0 1-.238.005.804.804 0 0 1-.297-.045.331.331 0 0 1-.164-.134.53.53 0 0 1-.069-.218 2.727 2.727 0 0 1-.015-.307v-2.734h1.02v-.842h-1.02V89.4h-1.13v1.535h-.851v.842h.852V94.8c.007.21.028.4.064.564a.855.855 0 0 0 .208.411.959.959 0 0 0 .426.248 2.5 2.5 0 0 0 .718.084Zm2.675-.05v-3.022c0-.185.03-.36.09-.525a1.35 1.35 0 0 1 .247-.43c.105-.123.234-.218.386-.288.152-.07.324-.104.515-.104.337 0 .585.091.743.273.159.181.244.473.258.876v3.22h1.129V92.54c0-.581-.162-1.017-.485-1.307-.324-.291-.767-.436-1.328-.436-.337 0-.642.077-.916.232-.274.156-.48.349-.62.58h-.019v-2.625h-1.13v7.073h1.13Zm8.677.138a2.05 2.05 0 0 0 .367-.04 3.309 3.309 0 0 0 .347-.088v-.783a.74.74 0 0 1-.159.02h-.119c-.105 0-.176-.03-.213-.09-.036-.059-.054-.158-.054-.297v-2.634c0-.271-.06-.5-.179-.689a1.427 1.427 0 0 0-.47-.46 2.11 2.11 0 0 0-.659-.258 3.505 3.505 0 0 0-.743-.08c-.284 0-.561.027-.832.08-.27.053-.513.145-.728.277a1.642 1.642 0 0 0-.53.525c-.139.218-.218.492-.238.822h1.13c.026-.277.142-.482.346-.614.205-.132.466-.198.783-.198.112 0 .231.008.357.025.125.016.239.05.341.099.103.05.188.12.258.213.07.092.104.211.104.357 0 .165-.041.289-.124.371a.75.75 0 0 1-.337.183c-.142.04-.305.068-.49.085-.185.016-.38.044-.585.084a7.352 7.352 0 0 0-.708.114c-.234.05-.446.13-.634.242-.188.113-.34.268-.455.466-.116.198-.174.456-.174.773 0 .25.048.47.144.658.096.188.224.344.386.466.162.122.349.214.56.277.211.063.432.094.664.094.303 0 .619-.05.946-.148.326-.1.602-.258.827-.476.046.231.145.393.297.486.152.092.343.138.574.138Zm-2.228-.891c-.1 0-.21-.01-.332-.03a1.215 1.215 0 0 1-.337-.104.791.791 0 0 1-.263-.203.474.474 0 0 1-.109-.317c0-.145.025-.27.075-.371a.652.652 0 0 1 .203-.248c.086-.063.185-.112.297-.149.112-.036.228-.064.347-.084.25-.046.502-.08.753-.104.25-.023.462-.09.633-.203v.842a.764.764 0 0 1-.128.45 1.082 1.082 0 0 1-.322.303 1.35 1.35 0 0 1-.411.168 1.84 1.84 0 0 1-.406.05Zm4.744.753v-3.022c0-.185.03-.36.09-.525a1.35 1.35 0 0 1 .247-.43c.106-.123.235-.218.386-.288.152-.07.324-.104.516-.104.336 0 .584.091.742.273.159.181.245.473.258.876v3.22h1.13V92.54c0-.581-.163-1.017-.486-1.307-.324-.291-.766-.436-1.327-.436-.337 0-.644.08-.922.242a1.893 1.893 0 0 0-.673.669l-.02-.02v-.753h-1.07v5.122h1.13Zm5.716 0v-1.833l.674-.654 1.565 2.487h1.376l-2.149-3.24 1.961-1.882h-1.387l-2.04 2.07v-4.021h-1.13v7.073h1.13Zm6.151.138c.264 0 .532-.03.803-.089.27-.06.516-.155.738-.287.22-.132.4-.304.54-.515.138-.212.208-.47.208-.773 0-.25-.048-.462-.144-.634a1.3 1.3 0 0 0-.377-.426 1.948 1.948 0 0 0-.53-.267 6.292 6.292 0 0 0-.604-.169c-.211-.046-.416-.089-.614-.128a3.695 3.695 0 0 1-.53-.144 1.137 1.137 0 0 1-.376-.213.43.43 0 0 1-.144-.337c0-.112.033-.203.1-.272a.646.646 0 0 1 .242-.159c.096-.036.198-.06.307-.074.109-.013.203-.02.282-.02.251 0 .474.046.669.139.195.092.319.274.371.545h1.18a1.697 1.697 0 0 0-.244-.728 1.6 1.6 0 0 0-.485-.49 2.06 2.06 0 0 0-.654-.273 3.331 3.331 0 0 0-.757-.084c-.232 0-.474.023-.729.069a2.243 2.243 0 0 0-.693.243c-.208.115-.38.267-.515.455a1.165 1.165 0 0 0-.203.699c0 .257.046.474.139.649.092.175.216.318.371.43.155.113.33.202.525.268s.398.122.61.168c.204.047.405.09.603.13.199.039.375.087.53.143.156.056.283.13.382.223.099.092.152.21.158.356a.488.488 0 0 1-.104.352.717.717 0 0 1-.292.203 1.573 1.573 0 0 1-.381.094 3.022 3.022 0 0 1-.362.025c-.304 0-.564-.066-.782-.198-.218-.132-.344-.364-.377-.694h-1.13c.008.304.069.567.184.788.116.221.274.406.476.554.201.15.439.26.713.332.274.073.573.11.896.11Zm-307.986 14.18c.35 0 .693-.04 1.03-.123.337-.082.637-.213.901-.391a2.06 2.06 0 0 0 .64-.689c.16-.28.242-.619.242-1.015 0-.185-.028-.37-.084-.555a1.78 1.78 0 0 0-.258-.52 1.905 1.905 0 0 0-.43-.43 2.064 2.064 0 0 0-.605-.298 24.153 24.153 0 0 0-.46-.124 230.332 230.332 0 0 1-1.58-.42 1.508 1.508 0 0 1-.61-.323c-.155-.141-.233-.338-.233-.589 0-.178.042-.327.124-.446a.913.913 0 0 1 .312-.282c.126-.07.264-.119.416-.149.152-.03.3-.044.446-.044.43 0 .783.094 1.06.282.277.188.432.51.465.966h1.239c0-.37-.073-.695-.218-.976a2.11 2.11 0 0 0-.59-.708 2.577 2.577 0 0 0-.861-.43 3.7 3.7 0 0 0-1.046-.144c-.316 0-.63.04-.94.123-.31.083-.588.21-.833.382-.244.171-.44.388-.589.649a1.84 1.84 0 0 0-.223.926c0 .185.025.366.074.545.05.178.134.346.253.505.119.158.279.302.48.43.202.13.454.233.758.313.489.132.9.239 1.233.322.334.082.626.17.877.262.145.053.28.144.401.272.122.13.184.329.184.6 0 .132-.027.262-.08.391a.877.877 0 0 1-.257.342c-.12.099-.274.18-.466.242a2.242 2.242 0 0 1-.693.095c-.251 0-.484-.028-.699-.085a1.647 1.647 0 0 1-.57-.267 1.252 1.252 0 0 1-.385-.47 1.583 1.583 0 0 1-.14-.694h-1.237c.006.436.089.814.247 1.134.159.32.37.583.634.788.264.204.575.356.931.455.357.1.737.149 1.14.149Zm4.863-.167v-3.022c0-.185.03-.36.09-.525a1.35 1.35 0 0 1 .247-.43c.106-.123.234-.218.386-.288.152-.07.324-.104.515-.104.337 0 .585.091.743.273.159.181.245.473.258.876v3.22h1.13v-3.517c0-.581-.163-1.017-.486-1.308-.324-.29-.766-.435-1.328-.435-.336 0-.642.077-.916.232-.274.156-.48.349-.619.58h-.02v-2.625h-1.129v7.073h1.13Zm4.596.277.634-.693c.212.178.458.315.738.41.281.096.593.144.936.144.41 0 .775-.067 1.095-.203.32-.135.591-.322.812-.56.222-.237.39-.521.505-.851a3.28 3.28 0 0 0 .174-1.09c0-.74-.202-1.357-.604-1.852l.643-.704-.317-.277-.624.683a2.373 2.373 0 0 0-.738-.4 2.919 2.919 0 0 0-.946-.144c-.409 0-.774.067-1.094.203-.32.135-.591.322-.812.56-.222.237-.39.521-.506.851-.115.33-.173.69-.173 1.08 0 .753.202 1.37.604 1.852l-.644.714.317.277Zm1.08-1.813a1.873 1.873 0 0 1-.173-.495 2.612 2.612 0 0 1 .03-1.189c.056-.218.143-.41.262-.58a1.4 1.4 0 0 1 .456-.41c.185-.106.403-.159.653-.159.212 0 .398.036.56.11.162.072.302.174.421.306l-2.209 2.417Zm1.228.783c-.21 0-.397-.037-.56-.11a1.248 1.248 0 0 1-.42-.306l2.209-2.417c.079.152.137.315.173.49a2.601 2.601 0 0 1-.03 1.189 1.816 1.816 0 0 1-.262.58 1.296 1.296 0 0 1-1.11.575Zm4.993.753v-1.338h-1.377v1.338h1.377Z"/></g><g fill-rule="nonzero"><path fill="#DCDCE6" d="M42.5 17.689h17.512v17.689H42.5zM61.471 17.689h17.512v17.689H61.471zM80.442 17.689h17.512v17.689H80.442zM99.413 17.689h17.512v17.689H99.413zM118.384 17.689h17.512v17.689h-17.512z"/><path fill="#FFF" d="m51.256 29.61 2.663-.681 1.113 3.464-3.776-2.783zm6.129-4.477h-4.688l-1.441-4.459-1.441 4.459h-4.688l3.794 2.764-1.441 4.459 3.794-2.764 2.335-1.695 3.776-2.764zm12.842 4.477 2.663-.681 1.113 3.464-3.776-2.783zm6.13-4.477h-4.689l-1.441-4.459-1.441 4.459h-4.688l3.794 2.764-1.441 4.459 3.794-2.764 2.335-1.695 3.776-2.764zm12.841 4.477 2.663-.681 1.113 3.464-3.776-2.783zm6.13-4.477h-4.689l-1.44-4.459-1.442 4.459h-4.688l3.794 2.764-1.44 4.459 3.793-2.764 2.335-1.695 3.776-2.764zm12.841 4.477 2.663-.681 1.113 3.464-3.776-2.783zm6.13-4.477h-4.689l-1.44-4.459-1.442 4.459h-4.688l3.794 2.764-1.44 4.459 3.793-2.764 2.335-1.695 3.776-2.764zm12.841 4.477 2.664-.681 1.112 3.464-3.776-2.783zm6.13-4.477h-4.689l-1.44-4.459-1.442 4.459h-4.688l3.794 2.764-1.44 4.459 3.794-2.764 2.334-1.695 3.776-2.764z"/></g><g fill-rule="nonzero"><path fill="#DCDCE6" d="M42.5 229.245h17.512v17.689H42.5zM61.471 229.245h17.512v17.689H61.471zM80.442 229.245h17.512v17.689H80.442zM99.413 229.245h17.512v17.689H99.413zM118.384 229.245h17.512v17.689h-17.512z"/><path fill="#FFF" d="m51.256 241.166 2.663-.681 1.113 3.464-3.776-2.783zm6.129-4.477h-4.688l-1.441-4.459-1.441 4.459h-4.688l3.794 2.764-1.441 4.459 3.794-2.764 2.335-1.695 3.776-2.764zm12.842 4.477 2.663-.681 1.113 3.464-3.776-2.783zm6.13-4.477h-4.689l-1.441-4.459-1.441 4.459h-4.688l3.794 2.764-1.441 4.459 3.794-2.764 2.335-1.695 3.776-2.764zm12.841 4.477 2.663-.681 1.113 3.464-3.776-2.783zm6.13-4.477h-4.689l-1.44-4.459-1.442 4.459h-4.688l3.794 2.764-1.44 4.459 3.793-2.764 2.335-1.695 3.776-2.764zm12.841 4.477 2.663-.681 1.113 3.464-3.776-2.783zm6.13-4.477h-4.689l-1.44-4.459-1.442 4.459h-4.688l3.794 2.764-1.44 4.459 3.793-2.764 2.335-1.695 3.776-2.764zm12.841 4.477 2.664-.681 1.112 3.464-3.776-2.783zm6.13-4.477h-4.689l-1.44-4.459-1.442 4.459h-4.688l3.794 2.764-1.44 4.459 3.794-2.764 2.334-1.695 3.776-2.764z"/></g></g></svg>