<svg xmlns="http://www.w3.org/2000/svg" width="42" height="42" viewBox="0 0 42 42">
  <g fill="#34313F">
    <path d="M22.075 23.8L27.35 23.8C28.85 23.8 29.8 22.975 29.8 21.65 29.8 20.4 28.85 19.5 27.35 19.5L22.075 19.5C21.9 19.5 21.75 19.65 21.75 19.8L21.75 23.5C21.775 23.675 21.9 23.8 22.075 23.8zM22.075 32.325L27.525 32.325C29.2 32.325 30.2 31.475 30.2 29.975 30.2 28.675 29.25 27.625 27.525 27.625L22.075 27.625C21.9 27.625 21.75 27.775 21.75 27.925L21.75 32C21.775 32.2 21.9 32.325 22.075 32.325z"/>
    <path d="M41.375,0.1 L25.775,15.65 L28.325,15.65 C32.3,15.65 34.65,18.15 34.65,20.875 C34.65,23.025 33.2,24.6 31.65,25.3 C31.4,25.4 31.4,25.75 31.675,25.85 C33.475,26.55 34.75,28.425 34.75,30.625 C34.75,33.725 32.675,36.2 28.65,36.2 L17.6,36.2 C17.425,36.2 17.275,36.05 17.275,35.9 L17.275,24.125 L0.15,41.175 C-0.075,41.4 0.075,41.8 0.4,41.8 L41.575,41.8 C41.725,41.8 41.85,41.675 41.85,41.525 L41.85,0.325 C41.925,0.05 41.575,-0.1 41.375,0.1 Z"/>
  </g>
</svg>
