<svg height="175" viewBox="0 0 137 175" width="137" xmlns="http://www.w3.org/2000/svg"><g fill="none" fill-rule="evenodd"><path d="m54.744 92.053 38.488 14.42-38.488 14.129z" fill="#eff6fc" opacity=".708"/><path d="m54.744 92.123-38.489 13.968 38.489 14.582z" fill="#f3f8fc"/><g stroke="#368cd7" stroke-linecap="round" stroke-linejoin="round"><path d="m55.206 120.569 38.877-14.124-38.877-14.526-39.507 14.392 38.875 14.069z"/><path d="m55.175 91.902 15.608-9.153 39.597 14.738-16.469 8.922 10.846 17.903-39.596 14.279-9.986-18.193-.551.65-13.683 16.161-39.48-14.624 14.29-16.348L1.117 90.462l39.135-13.585z"/><path d="M14.269 127.462v18.402l40.512 13.973 39.18-14.085.232-17.382M55.243 120.886l-.506 39.962m0-68.795.388 28.162"/></g><path d="M86.038 22.423 129.88 3.7 92.975 24.432l1.911 14.655z" fill="#f3f8fc"/><path d="m92.442 24.475 14.845 4.837L95.741 40.07z" fill="#dbeaf8"/><g stroke="#368cd7" stroke-linecap="round" stroke-linejoin="round"><path d="m92.459 24.422 21.42 6.987 21.759-30.351zM135.674.973 76.96 19.319l9.464 2.985zM107.311 29.417l-14.914-4.966 3.141 16.063-9.473-18.21 9.473 18.21z"/></g><path d="M.105 153.29 56.308 174l57.107-24.214-18.82-3.524-39.842 14.327-40.983-14.094z" fill="#dcebf9" stroke="#dcebf9" stroke-linecap="round" stroke-linejoin="round" stroke-width=".5"/><path d="M88.548 45.853c-1.242 1.508-3.66 2.89-7.253 4.147l-11.553 5.457S27.47 71.064 51.265 100.042c10.954 13.344 7.425 15.952 7.425 15.952" stroke="#83b8e8" stroke-dasharray="3.5 6" stroke-linecap="round" stroke-linejoin="round" stroke-width="1.5"/></g></svg>