<svg width="233" height="149" viewBox="0 0 233 149" fill="none" xmlns="http://www.w3.org/2000/svg"><g filter="url(#a)" shape-rendering="crispEdges"><path d="M9 13a6 6 0 0 1 6-6h203a6 6 0 0 1 6 6v136H9V13Z" fill="#fff"/><path d="M224 149.5h.5V13a6.5 6.5 0 0 0-6.5-6.5H15A6.5 6.5 0 0 0 8.5 13v136.5H224Z" stroke="#000" stroke-opacity=".06"/></g><path d="M26.738 72.382c0 .3.051.557.154.77.103.213.246.389.429.528.183.132.392.231.627.297.242.059.502.088.781.088.3 0 .557-.033.77-.099.213-.073.385-.165.517-.275a.985.985 0 0 0 .286-.374c.059-.147.088-.293.088-.44 0-.3-.07-.52-.209-.66a1.097 1.097 0 0 0-.44-.308 8.464 8.464 0 0 0-.979-.286c-.367-.095-.821-.216-1.364-.363a3.136 3.136 0 0 1-.847-.341 2.12 2.12 0 0 1-.528-.484 1.769 1.769 0 0 1-.286-.561 2.403 2.403 0 0 1-.077-.605c0-.396.08-.737.242-1.023.169-.293.389-.535.66-.726.271-.19.58-.33.924-.418a3.904 3.904 0 0 1 1.045-.143c.41 0 .796.055 1.155.165.367.103.686.26.957.473.279.213.499.477.66.792.161.308.242.667.242 1.078H30.17c-.037-.506-.209-.862-.517-1.067-.308-.213-.7-.319-1.177-.319-.161 0-.326.018-.495.055-.169.03-.323.084-.462.165a1.01 1.01 0 0 0-.352.308.874.874 0 0 0-.132.495c0 .279.084.499.253.66.176.154.403.271.682.352.03.007.143.04.341.099a50.93 50.93 0 0 1 1.408.374c.242.059.414.103.517.132.257.08.48.19.671.33.19.14.348.3.473.484.132.176.227.367.286.572.066.205.099.41.099.616 0 .44-.092.818-.275 1.133-.176.308-.41.561-.704.759a2.998 2.998 0 0 1-1.001.429 4.615 4.615 0 0 1-1.144.143c-.447 0-.869-.055-1.265-.165a2.961 2.961 0 0 1-1.034-.506 2.489 2.489 0 0 1-.704-.869c-.176-.36-.268-.781-.275-1.265h1.375Zm9.96-.726a1.913 1.913 0 0 0-.132-.572 1.34 1.34 0 0 0-.286-.473 1.243 1.243 0 0 0-.44-.33 1.218 1.218 0 0 0-.572-.132c-.22 0-.422.04-.605.121a1.34 1.34 0 0 0-.462.319c-.125.132-.227.29-.308.473a1.75 1.75 0 0 0-.121.594h2.926Zm-2.926.825c0 .22.03.433.088.638.066.205.161.385.286.539.124.154.282.279.473.374.19.088.418.132.682.132.366 0 .66-.077.88-.231.227-.161.396-.4.506-.715h1.188c-.066.308-.18.583-.341.825a2.457 2.457 0 0 1-.583.616 2.484 2.484 0 0 1-.77.363 2.905 2.905 0 0 1-.88.132 3.01 3.01 0 0 1-1.188-.22 2.51 2.51 0 0 1-.88-.616 2.725 2.725 0 0 1-.54-.946 3.955 3.955 0 0 1-.175-1.21c0-.403.062-.785.187-1.144.132-.367.315-.686.55-.957.242-.279.531-.499.869-.66a2.62 2.62 0 0 1 1.144-.242c.447 0 .847.095 1.199.286.36.183.656.429.89.737.236.308.404.664.507 1.067.11.396.14.807.088 1.232h-4.18Zm9.038-.825a1.907 1.907 0 0 0-.132-.572 1.34 1.34 0 0 0-.286-.473 1.243 1.243 0 0 0-.44-.33 1.218 1.218 0 0 0-.572-.132c-.22 0-.422.04-.605.121a1.34 1.34 0 0 0-.462.319 1.65 1.65 0 0 0-.308.473 1.751 1.751 0 0 0-.12.594h2.925Zm-2.926.825c0 .22.03.433.088.638.066.205.161.385.286.539.125.154.282.279.473.374.19.088.418.132.682.132.367 0 .66-.077.88-.231.227-.161.396-.4.506-.715h1.188c-.066.308-.18.583-.34.825a2.455 2.455 0 0 1-.584.616 2.484 2.484 0 0 1-.77.363 2.905 2.905 0 0 1-.88.132 3.01 3.01 0 0 1-1.188-.22 2.511 2.511 0 0 1-.88-.616 2.726 2.726 0 0 1-.539-.946 3.955 3.955 0 0 1-.176-1.21c0-.403.063-.785.187-1.144a3 3 0 0 1 .55-.957c.242-.279.532-.499.87-.66a2.62 2.62 0 0 1 1.143-.242c.447 0 .847.095 1.2.286.358.183.656.429.89.737.235.308.404.664.506 1.067.11.396.14.807.088 1.232h-4.18Zm10.802 2.673c-.455 0-.862-.073-1.221-.22a2.73 2.73 0 0 1-.902-.627 2.77 2.77 0 0 1-.561-.946 3.741 3.741 0 0 1-.187-1.21c0-.433.062-.832.187-1.199a2.77 2.77 0 0 1 .56-.946c.25-.264.55-.47.903-.616.36-.154.766-.231 1.22-.231.456 0 .859.077 1.21.231.36.147.66.352.903.616.25.264.436.58.56.946.133.367.199.766.199 1.199 0 .44-.066.843-.198 1.21a2.585 2.585 0 0 1-1.463 1.573c-.352.147-.755.22-1.21.22Zm0-.99a1.439 1.439 0 0 0 1.232-.638c.132-.19.227-.403.286-.638a2.749 2.749 0 0 0 0-1.463 1.807 1.807 0 0 0-.286-.638 1.439 1.439 0 0 0-1.232-.638 1.44 1.44 0 0 0-1.232.638 1.966 1.966 0 0 0-.297.638 3.075 3.075 0 0 0 0 1.463c.066.235.165.447.297.638a1.44 1.44 0 0 0 1.232.638Zm8.907.836h-1.232v-.792h-.021a1.75 1.75 0 0 1-.694.693c-.3.169-.608.253-.924.253-.748 0-1.29-.183-1.628-.55-.33-.374-.495-.935-.495-1.683v-3.608h1.255V72.8c0 .499.095.85.285 1.056.191.205.459.308.803.308.264 0 .484-.04.66-.121.177-.08.32-.187.43-.319.11-.14.187-.304.23-.495.052-.19.078-.396.078-.616v-3.3h1.253V75Zm1.323-5.687h1.177v1.1h.022c.036-.154.106-.304.209-.451.11-.147.238-.279.385-.396a1.95 1.95 0 0 1 .506-.297c.183-.073.37-.11.56-.11.148 0 .247.004.298.011l.176.022v1.21a3.113 3.113 0 0 0-.275-.033 1.6 1.6 0 0 0-.264-.022c-.213 0-.415.044-.605.132-.183.08-.345.205-.484.374-.14.161-.25.363-.33.605-.08.242-.121.52-.121.836V75h-1.254v-5.687Zm6.929 0h1.177v1.1h.022c.036-.154.106-.304.209-.451.11-.147.238-.279.385-.396a1.95 1.95 0 0 1 .506-.297c.183-.073.37-.11.56-.11.147 0 .246.004.298.011l.176.022v1.21a3.113 3.113 0 0 0-.275-.033 1.6 1.6 0 0 0-.264-.022c-.213 0-.415.044-.605.132-.184.08-.345.205-.484.374-.14.161-.25.363-.33.605-.081.242-.121.52-.121.836V75h-1.254v-5.687Zm7.578 2.343a1.913 1.913 0 0 0-.132-.572 1.34 1.34 0 0 0-.286-.473 1.243 1.243 0 0 0-.44-.33 1.218 1.218 0 0 0-.572-.132c-.22 0-.421.04-.605.121a1.34 1.34 0 0 0-.462.319c-.124.132-.227.29-.308.473a1.75 1.75 0 0 0-.12.594h2.925Zm-2.926.825c0 .22.03.433.088.638.066.205.162.385.286.539.125.154.283.279.473.374.191.088.418.132.682.132.367 0 .66-.077.88-.231.228-.161.396-.4.506-.715H76.6c-.066.308-.18.583-.34.825a2.457 2.457 0 0 1-.584.616 2.484 2.484 0 0 1-.77.363 2.905 2.905 0 0 1-.88.132 3.01 3.01 0 0 1-1.188-.22 2.51 2.51 0 0 1-.88-.616 2.725 2.725 0 0 1-.539-.946 3.955 3.955 0 0 1-.176-1.21c0-.403.063-.785.187-1.144.132-.367.316-.686.55-.957.242-.279.532-.499.87-.66a2.62 2.62 0 0 1 1.143-.242c.448 0 .847.095 1.2.286.359.183.656.429.89.737.235.308.404.664.506 1.067.11.396.14.807.088 1.232h-4.18Zm4.573-3.168h1.364l1.44 4.367h.023l1.386-4.367h1.298L80.546 75h-1.408l-2.068-5.687Zm6.298-2.167h1.254v1.188h-1.254v-1.188Zm0 2.167h1.254V75h-1.254v-5.687Zm6.525 2.343a1.907 1.907 0 0 0-.132-.572 1.34 1.34 0 0 0-.286-.473 1.243 1.243 0 0 0-.44-.33 1.218 1.218 0 0 0-.572-.132c-.22 0-.421.04-.605.121a1.34 1.34 0 0 0-.462.319 1.65 1.65 0 0 0-.308.473 1.751 1.751 0 0 0-.12.594h2.925Zm-2.926.825c0 .22.03.433.088.638.066.205.161.385.286.539.125.154.283.279.473.374.19.088.418.132.682.132.367 0 .66-.077.88-.231.227-.161.396-.4.506-.715h1.188c-.066.308-.18.583-.34.825a2.455 2.455 0 0 1-.584.616 2.484 2.484 0 0 1-.77.363 2.905 2.905 0 0 1-.88.132 3.01 3.01 0 0 1-1.188-.22 2.511 2.511 0 0 1-.88-.616 2.726 2.726 0 0 1-.539-.946 3.955 3.955 0 0 1-.176-1.21c0-.403.063-.785.187-1.144a3 3 0 0 1 .55-.957c.242-.279.532-.499.87-.66a2.62 2.62 0 0 1 1.143-.242c.448 0 .847.095 1.2.286.359.183.656.429.89.737.235.308.404.664.506 1.067.11.396.14.807.088 1.232h-4.18Zm4.616-3.168h1.331l1.111 4.246h.022l1.067-4.246h1.265l1.023 4.246h.022l1.155-4.246h1.276L98.073 75h-1.287l-1.056-4.224h-.022L94.663 75h-1.32l-1.76-5.687Zm10.025 3.861c.037.367.176.623.418.77.242.147.532.22.869.22.117 0 .249-.007.396-.022.154-.022.297-.059.429-.11a.78.78 0 0 0 .319-.22.548.548 0 0 0 .121-.396.553.553 0 0 0-.176-.396 1.153 1.153 0 0 0-.429-.242 3.487 3.487 0 0 0-.583-.165c-.22-.044-.444-.092-.671-.143a6.624 6.624 0 0 1-.682-.187 2.291 2.291 0 0 1-.583-.297 1.412 1.412 0 0 1-.407-.473 1.559 1.559 0 0 1-.154-.726c0-.308.073-.565.22-.77.154-.213.345-.381.572-.506a2.47 2.47 0 0 1 .77-.275c.286-.051.557-.077.814-.077.293 0 .572.033.836.099.271.059.513.158.726.297.22.14.4.323.539.55a1.8 1.8 0 0 1 .275.803h-1.309c-.059-.3-.198-.502-.418-.605a1.675 1.675 0 0 0-.737-.154c-.088 0-.194.007-.319.022a1.378 1.378 0 0 0-.341.088.64.64 0 0 0-.264.176.403.403 0 0 0-.11.297c0 .154.051.279.154.374.11.095.249.176.418.242.176.059.374.11.594.154.22.044.447.092.682.143.227.051.451.114.671.187.22.073.414.172.583.297a1.389 1.389 0 0 1 .583 1.177c0 .337-.077.623-.231.858a1.812 1.812 0 0 1-.605.572 2.653 2.653 0 0 1-.814.319 4.151 4.151 0 0 1-1.892-.022 2.448 2.448 0 0 1-.792-.363 1.937 1.937 0 0 1-.528-.616 2.038 2.038 0 0 1-.198-.88h1.254Zm10.427 1.98c-.455 0-.862-.073-1.221-.22a2.725 2.725 0 0 1-.902-.627 2.77 2.77 0 0 1-.561-.946 3.73 3.73 0 0 1-.187-1.21c0-.433.062-.832.187-1.199a2.77 2.77 0 0 1 .561-.946c.249-.264.55-.47.902-.616a3.07 3.07 0 0 1 1.221-.231c.454 0 .858.077 1.21.231.359.147.66.352.902.616.249.264.436.58.561.946.132.367.198.766.198 1.199 0 .44-.066.843-.198 1.21a2.589 2.589 0 0 1-1.463 1.573c-.352.147-.756.22-1.21.22Zm0-.99c.278 0 .52-.059.726-.176.205-.117.374-.271.506-.462.132-.19.227-.403.286-.638a2.749 2.749 0 0 0 0-1.463 1.814 1.814 0 0 0-.286-.638 1.532 1.532 0 0 0-.506-.462 1.442 1.442 0 0 0-.726-.176 1.437 1.437 0 0 0-1.232.638 1.966 1.966 0 0 0-.297.638 3.055 3.055 0 0 0 0 1.463c.066.235.165.447.297.638a1.437 1.437 0 0 0 1.232.638Zm3.913-4.851h1.188v.836l.022.022a2.06 2.06 0 0 1 .748-.737 1.963 1.963 0 0 1 1.023-.275c.623 0 1.115.161 1.474.484.359.323.539.807.539 1.452V75h-1.254v-3.575c-.015-.447-.11-.77-.286-.968-.176-.205-.451-.308-.825-.308-.213 0-.403.04-.572.121a1.15 1.15 0 0 0-.429.319 1.44 1.44 0 0 0-.275.473 1.708 1.708 0 0 0-.099.583V75h-1.254v-5.687Z" fill="#000"/><g clip-path="url(#b)"><path d="M148.499 65.734h7.898v1.461h-3.106v8.217h-1.707v-8.217h-3.092v-1.461h.007Zm7.56 2.67h1.46v1.353h.028c.048-.192.137-.376.268-.554a2.543 2.543 0 0 1 1.095-.854c.227-.088.461-.136.696-.136.179 0 .309.007.378.014s.138.02.214.027v1.489a4.973 4.973 0 0 0-.338-.048 2.87 2.87 0 0 0-.337-.02c-.262 0-.51.054-.744.157-.234.102-.434.26-.606.457-.172.205-.31.451-.413.751-.103.301-.151.642-.151 1.032v3.333h-1.556v-7h.006Zm11.293 7.008h-1.529v-.977h-.027a2.114 2.114 0 0 1-.854.847 2.35 2.35 0 0 1-1.157.32c-.929 0-1.604-.225-2.017-.682-.414-.458-.62-1.148-.62-2.07v-4.446h1.556V72.7c0 .615.117 1.052.358 1.305.234.252.572.382.999.382.33 0 .599-.048.819-.15.22-.103.399-.232.53-.403.138-.164.234-.369.296-.601.062-.232.09-.485.09-.758V68.41h1.556v7Zm2.651-2.248c.048.451.22.765.516.95.303.177.661.273 1.081.273.145 0 .31-.014.496-.034.186-.02.365-.068.523-.13a1.01 1.01 0 0 0 .407-.28.676.676 0 0 0 .144-.478.657.657 0 0 0-.22-.485 1.558 1.558 0 0 0-.523-.307 5.34 5.34 0 0 0-.73-.198c-.276-.055-.551-.116-.834-.178a7.982 7.982 0 0 1-.84-.232 2.585 2.585 0 0 1-.723-.369 1.629 1.629 0 0 1-.509-.587c-.131-.24-.193-.533-.193-.888 0-.383.097-.697.282-.956.186-.26.427-.465.71-.622a3.3 3.3 0 0 1 .957-.334 5.863 5.863 0 0 1 1.005-.096c.365 0 .716.041 1.047.116.33.075.633.198.902.376.268.17.489.396.668.67.179.272.289.607.337.996h-1.625c-.076-.369-.241-.621-.51-.744a2.097 2.097 0 0 0-.922-.191c-.11 0-.241.006-.393.027-.151.02-.289.055-.427.102a.928.928 0 0 0-.337.219.524.524 0 0 0-.138.375c0 .192.069.342.2.458.131.116.303.212.516.294.214.075.455.143.73.198.276.054.558.116.847.177.282.062.558.144.833.233.276.088.517.211.73.368.214.157.386.349.517.58.13.233.199.527.199.868 0 .417-.096.765-.289 1.059a2.284 2.284 0 0 1-.744.703 3.509 3.509 0 0 1-1.019.396 5.14 5.14 0 0 1-1.108.123c-.448 0-.861-.047-1.24-.15a3.028 3.028 0 0 1-.984-.45 2.229 2.229 0 0 1-.654-.759c-.159-.3-.241-.662-.255-1.079h1.57v-.013Zm5.136-4.76h1.178v-2.103h1.556v2.103h1.405v1.154h-1.405v3.743c0 .164.007.3.021.424a.764.764 0 0 0 .096.3.44.44 0 0 0 .227.184c.104.041.234.062.413.062.111 0 .221 0 .331-.007.11-.007.22-.02.33-.048v1.196c-.172.02-.344.034-.502.054a4.06 4.06 0 0 1-.503.027c-.413 0-.743-.04-.991-.116a1.292 1.292 0 0 1-.586-.341 1.186 1.186 0 0 1-.289-.56 4.208 4.208 0 0 1-.089-.772v-4.132h-1.178v-1.168h-.014Zm5.24 0h1.474v.95h.027c.221-.41.524-.697.916-.875a3.042 3.042 0 0 1 1.274-.266c.558 0 1.04.096 1.453.294.413.19.757.457 1.033.799a3.5 3.5 0 0 1 .613 1.188c.137.45.206.936.206 1.448 0 .471-.062.929-.186 1.366-.124.444-.31.833-.558 1.175a2.72 2.72 0 0 1-.95.812c-.385.205-.833.308-1.356.308-.227 0-.455-.02-.682-.062a3.035 3.035 0 0 1-.654-.198 2.35 2.35 0 0 1-1.026-.84h-.027V78h-1.557v-9.596Zm5.44 3.51c0-.314-.041-.62-.124-.921a2.49 2.49 0 0 0-.372-.792 1.885 1.885 0 0 0-.613-.554 1.726 1.726 0 0 0-.847-.212c-.654 0-1.149.226-1.48.677-.33.45-.496 1.051-.496 1.803 0 .355.042.683.131.983.09.3.214.56.393.779.172.218.378.389.619.512.241.13.524.191.84.191.358 0 .654-.075.902-.218.248-.144.448-.335.606-.56.159-.233.276-.492.345-.786.062-.294.096-.594.096-.901Zm2.747-6.18h1.556v1.461h-1.556v-1.461Zm0 2.67h1.556v7.008h-1.556v-7.008Zm2.947-2.67h1.557v9.678h-1.557v-9.678Zm6.328 9.869a3.88 3.88 0 0 1-1.508-.28 3.338 3.338 0 0 1-1.122-.765 3.337 3.337 0 0 1-.696-1.168 4.484 4.484 0 0 1-.241-1.489c0-.533.083-1.024.241-1.475.159-.45.393-.84.696-1.168.303-.328.682-.58 1.122-.765a3.88 3.88 0 0 1 1.508-.28c.565 0 1.068.096 1.508.28.441.184.813.444 1.123.765.302.328.537.717.695 1.168.158.45.241.942.241 1.475 0 .54-.083 1.038-.241 1.489-.158.45-.393.84-.695 1.168-.303.328-.682.58-1.123.765-.44.184-.943.28-1.508.28Zm0-1.223c.345 0 .647-.075.902-.218a1.91 1.91 0 0 0 .627-.567 2.55 2.55 0 0 0 .365-.793c.076-.293.117-.594.117-.901 0-.3-.041-.594-.117-.895-.076-.3-.2-.56-.365-.792a1.815 1.815 0 0 0-1.529-.779c-.344 0-.647.076-.902.22a1.964 1.964 0 0 0-.626.56 2.436 2.436 0 0 0-.365.791c-.076.3-.117.594-.117.895 0 .307.041.608.117.901.075.294.199.56.365.793.165.232.371.423.626.567.255.15.558.218.902.218Zm4.021-5.976h1.178v-2.103h1.556v2.103h1.405v1.154h-1.405v3.743c0 .164.007.3.021.424a.764.764 0 0 0 .096.3.44.44 0 0 0 .227.184c.104.041.234.062.413.062.111 0 .221 0 .331-.007.11-.007.22-.02.33-.048v1.196c-.172.02-.344.034-.502.054a4.06 4.06 0 0 1-.503.027c-.413 0-.744-.04-.991-.116a1.292 1.292 0 0 1-.586-.341 1.186 1.186 0 0 1-.289-.56 4.208 4.208 0 0 1-.089-.772v-4.132h-1.178v-1.168h-.014Z" fill="#1B1B21"/><path d="M146.681 65.734h-7.134L137.344 59l-2.211 6.734-7.133-.007 5.777 4.166-2.21 6.727 5.777-4.159 5.77 4.16-2.204-6.728 5.771-4.159Z" fill="#00B67A"/><path d="m141.406 71.416-.496-1.523-3.566 2.568 4.062-1.045Z" fill="#005128"/></g><path fill="#F2F2F5" d="M25 47.999h183v1H25zM25 93h183v1H25z"/><rect x="25" y="22.999" width="57" height="13" rx="2" fill="#EDEDF2"/><rect x="25" y="106" width="50" height="13" rx="2" fill="#EDEDF2"/><rect x="90" y="22.999" width="76" height="13" rx="2" fill="#EDEDF2"/><rect x="83" y="106" width="48" height="13" rx="2" fill="#EDEDF2"/><defs><clipPath id="b"><path fill="#fff" transform="translate(128 59)" d="M0 0h78v19H0z"/></clipPath><filter id="a" x="0" y="0" width="233" height="160" filterUnits="userSpaceOnUse" color-interpolation-filters="sRGB"><feFlood flood-opacity="0" result="BackgroundImageFix"/><feColorMatrix in="SourceAlpha" values="0 0 0 0 0 0 0 0 0 0 0 0 0 0 0 0 0 0 127 0" result="hardAlpha"/><feOffset dy="2"/><feGaussianBlur stdDeviation="4"/><feComposite in2="hardAlpha" operator="out"/><feColorMatrix values="0 0 0 0 0 0 0 0 0 0 0 0 0 0 0 0 0 0 0.12 0"/><feBlend in2="BackgroundImageFix" result="effect1_dropShadow_2183:92406"/><feBlend in="SourceGraphic" in2="effect1_dropShadow_2183:92406" result="shape"/></filter></defs></svg>