<svg height="228" viewBox="0 0 305 228" width="305" xmlns="http://www.w3.org/2000/svg"><g fill="none" fill-rule="evenodd" transform=""><rect fill="#fff" fill-rule="evenodd" height="220" rx="2" width="289" x="8" y="8"/><rect height="219" rx="2" stroke="#eff3f6" width="288" x="8.5" y="8.5"/><rect fill="#bfcfdb" height="8" opacity=".5" rx="4" width="224" x="41" y="64"/><rect fill="#bfcfdb" height="8" opacity=".5" rx="4" width="168" x="41" y="80"/><rect fill="#368cd7" height="16" rx="8" width="52" x="41" y="100"/><rect fill="#bfcfdb" height="8" opacity=".5" rx="4" width="176" x="41" y="128"/><rect fill="#bfcfdb" height="8" opacity=".5" rx="4" width="136" x="41" y="144"/><g fill="#eff3f6"><rect height="4" rx="2" width="32" x="49" y="188"/><rect height="3" rx="1.5" width="144" x="49" y="209"/><rect height="4" rx="2" width="29" x="49" y="195"/><rect height="4" rx="2" width="40" x="97" y="188"/><rect height="4" rx="2" width="29" x="97" y="195"/><rect height="1" rx=".5" width="225" x="40" y="175"/></g><path d="m8 8h289v38h-289z" fill="#fcfcfc" fill-rule="evenodd"/><path d="m8.5 8.5h288v37h-288z" stroke="#eff3f6"/><path d="m10 0h285c1.104569 0 2 .8954305 2 2v14h-289v-14c0-1.1045695.8954305-2 2-2z" fill="#eff3f6"/><circle cx="21" cy="8" fill="#d2dde6" r="3"/><circle cx="31" cy="8" fill="#d2dde6" r="3"/><circle cx="41" cy="8" fill="#d2dde6" r="3"/><path d="m48 105h6v6h-6z" fill="#368cd7" opacity=".3"/><path d="m56 104h6v8h-6z" fill="#368cd7" opacity=".3"/><path d="m64 104h6v8h-6z" fill="#368cd7" opacity=".3"/><path d="m72 104h6v8h-6z" fill="#368cd7" opacity=".3"/><path d="m80 104h6v8h-6z" fill="#368cd7" opacity=".3"/><path d="m51 109.14-1.7633558 1.287051.6791514-2.074772-1.7689651-1.27933 2.1830943.004772.6700752-2.077721.6700752 2.077721 2.1830943-.004772-1.7689651 1.27933.6791514 2.074772z" fill="#fff"/><path d="m59 109.14-1.7633558 1.287051.6791514-2.074772-1.7689651-1.27933 2.1830943.004772.6700752-2.077721.6700752 2.077721 2.1830943-.004772-1.7689651 1.27933.6791514 2.074772z" fill="#fff"/><path d="m67 109.14-1.7633558 1.287051.6791514-2.074772-1.7689651-1.27933 2.1830943.004772.6700752-2.077721.6700752 2.077721 2.1830943-.004772-1.7689651 1.27933.6791514 2.074772z" fill="#fff"/><path d="m75 109.14-1.7633558 1.287051.6791514-2.074772-1.7689651-1.27933 2.1830943.004772.6700752-2.077721.6700752 2.077721 2.1830943-.004772-1.7689651 1.27933.6791514 2.074772z" fill="#fff"/><path d="m83 109.14-1.7633558 1.287051.6791514-2.074772-1.7689651-1.27933 2.1830943.004772.6700752-2.077721.6700752 2.077721 2.1830943-.004772-1.7689651 1.27933.6791514 2.074772z" fill="#fff"/><rect fill="#d2dde6" height="3" opacity=".5" rx="1.5" width="19" x="40" y="25"/><rect fill="#d2dde6" height="3" opacity=".5" rx="1.5" width="23" x="40" y="34"/><rect fill="#d2dde6" height="3" rx="1.5" width="65" x="72" y="25"/><rect fill="#d2dde6" height="3" rx="1.5" width="129" x="72" y="34"/><rect height="56" rx="2" stroke="#ff2c61" stroke-width="2" width="303" x="1" y="164"/></g></svg>