<svg width="70" height="48" viewBox="0 0 70 48" fill="none" xmlns="http://www.w3.org/2000/svg">
<rect width="70" height="48" fill="white" fill-opacity="0.01"/>
<path fill-rule="evenodd" clip-rule="evenodd" d="M61.9306 16.3995C61.9113 14.224 57.8872 13.2365 47.4703 13.2365C23.0286 13.2365 16.8276 12.1936 10.192 5.21794C10.4839 5.65581 10.7619 6.13375 11.0553 6.63817L11.0553 6.63817C13.5687 10.9588 17.2117 17.2216 40.3452 16.8716C60.2984 16.5645 56.4697 20.5168 51.1939 25.9627C49.3429 27.8735 47.3137 29.968 46.0711 32.1271C48.3457 30.0991 50.5213 28.2533 52.4926 26.5809C57.9993 21.9092 61.9115 18.5903 61.9306 16.431V16.3995ZM27.5847 38.7386C27.5837 40.7608 25.9186 42.4244 23.894 42.4249C21.8491 42.4249 20.1955 40.7732 20.1955 38.7386V38.7357C20.1955 36.7102 21.8636 35.0434 23.892 35.0434H23.894C25.9321 35.0434 27.5847 36.6956 27.5847 38.7386ZM40.7258 42.4249C42.7504 42.4244 44.4156 40.7608 44.4165 38.7386C44.4165 36.6956 42.7639 35.0434 40.7258 35.0434H40.7239C38.6964 35.0434 37.0283 36.7102 37.0283 38.7357V38.7386C37.0283 40.7732 38.6829 42.4249 40.7258 42.4249Z" fill="url(#paint0_linear_1703_67437)"/>
<defs>
<linearGradient id="paint0_linear_1703_67437" x1="56.5249" y1="34.6502" x2="56.5249" y2="5.21802" gradientUnits="userSpaceOnUse">
<stop stop-color="#04B6F0"/>
<stop offset="1" stop-color="#3ECAF0"/>
</linearGradient>
</defs>
</svg>
