<svg width="70" height="48" viewBox="0 0 70 48" fill="none" xmlns="http://www.w3.org/2000/svg">
<rect width="70" height="48" fill="white" fill-opacity="0.01"/>
<g clip-path="url(#clip0_1703_67529)">
<path d="M26.3409 43.5762L27.0852 38.9527L25.4272 38.9151H17.51L23.0121 4.79819C23.0291 4.69519 23.0846 4.59916 23.1658 4.53096C23.2469 4.46276 23.3508 4.42519 23.4589 4.42519H36.8085C41.2403 4.42519 44.2987 5.32706 45.8955 7.10716C46.6441 7.94224 47.1209 8.81489 47.3514 9.77522C47.5934 10.7829 47.5977 11.9868 47.3614 13.4551L47.3443 13.5623V14.5031L48.0929 14.9179C48.7234 15.2449 49.2244 15.6193 49.6086 16.048C50.2491 16.762 50.6632 17.6694 50.8383 18.7453C51.019 19.8518 50.9592 21.1684 50.6632 22.659C50.3216 24.3737 49.7694 25.8671 49.0237 27.0891C48.3377 28.215 47.4639 29.1489 46.4264 29.8726C45.4358 30.5602 44.2589 31.0821 42.9282 31.4161C41.6388 31.7446 40.1686 31.9102 38.5561 31.9102H37.5172C36.7743 31.9102 36.0527 32.1719 35.4863 32.6409C34.9185 33.1197 34.5427 33.7738 34.4275 34.4892L34.3492 34.9054L33.0342 43.0543L32.9744 43.3535C32.9587 43.4482 32.9317 43.4955 32.8918 43.5275C32.8563 43.5567 32.805 43.5762 32.7552 43.5762H26.3409V43.5762Z" fill="#253B80"/>
<path d="M48.8016 13.6708C48.7618 13.92 48.7162 14.1747 48.665 14.4363C46.9045 23.2756 40.8816 26.3292 33.1892 26.3292H29.2726C28.3319 26.3292 27.5392 26.9972 27.3926 27.9047L25.3873 40.3417L24.8195 43.8671C24.7241 44.4628 25.1938 45 25.8086 45H32.7552C33.5778 45 34.2766 44.4154 34.4061 43.6221L34.4744 43.277L35.7823 35.1601L35.8663 34.7147C35.9943 33.9186 36.6946 33.334 37.5172 33.334H38.5561C45.2863 33.334 50.555 30.6618 52.0949 22.929C52.7382 19.6987 52.4051 17.0014 50.703 15.1044C50.1878 14.5324 49.5488 14.0578 48.8016 13.6708V13.6708Z" fill="#179BD7"/>
<path d="M46.9601 12.9527C46.6911 12.8761 46.4136 12.8065 46.1289 12.7439C45.8429 12.6827 45.5497 12.6284 45.248 12.5811C44.192 12.4141 43.0349 12.3347 41.7953 12.3347H31.332C31.0744 12.3347 30.8296 12.3918 30.6105 12.4948C30.128 12.7216 29.7694 13.1684 29.6826 13.7154L27.4567 27.5024L27.3926 27.9047C27.5392 26.9972 28.3319 26.3292 29.2727 26.3292H33.1893C40.8816 26.3292 46.9046 23.2742 48.665 14.4363C48.7177 14.1747 48.7618 13.92 48.8017 13.6708C48.3562 13.4398 47.8738 13.2422 47.3543 13.0738C47.2262 13.032 47.0938 12.9916 46.9601 12.9527V12.9527Z" fill="#222D65"/>
<path d="M29.6825 13.7154C29.7693 13.1684 30.128 12.7216 30.6104 12.4962C30.831 12.3932 31.0744 12.3361 31.332 12.3361H41.7953C43.0349 12.3361 44.1919 12.4154 45.2479 12.5825C45.5497 12.6298 45.8428 12.6841 46.1289 12.7453C46.4135 12.8079 46.6911 12.8775 46.96 12.9541C47.0938 12.993 47.2262 13.0334 47.3557 13.0738C47.8752 13.2422 48.3576 13.4412 48.8031 13.6708C49.3268 10.4043 48.7988 8.18024 46.9928 6.16632C45.0017 3.9492 41.4082 3 36.8099 3H23.4603C22.521 3 21.7198 3.66806 21.5746 4.5769L16.0142 39.0445C15.9046 39.7265 16.4426 40.3417 17.1457 40.3417H25.3873L27.4567 27.5024L29.6825 13.7154V13.7154Z" fill="#253B80"/>
</g>
<defs>
<clipPath id="clip0_1703_67529">
<rect width="36.4" height="42" fill="white" transform="translate(16 3)"/>
</clipPath>
</defs>
</svg>
