<svg width="46" height="45" viewBox="0 0 46 45" fill="none" xmlns="http://www.w3.org/2000/svg">
<path d="M15.3389 34.1777C15.6944 34.0147 16.05 33.8814 16.4204 33.7332C16.8352 33.5851 17.25 33.437 17.6648 33.3036C18.1833 33.1407 18.7167 33.0073 19.25 32.8888C19.9759 32.7407 20.7019 32.6221 21.4278 32.5481C21.013 33.837 20.5685 35.1258 20.0648 36.3999C20.0796 36.6518 20.0944 36.8888 20.1093 37.1407C21.1018 36.9481 22.1241 36.8444 23.1759 36.8444C24.2278 36.8444 25.25 36.9481 26.2426 37.1407C26.2426 36.8888 26.2574 36.637 26.287 36.3999C25.7981 35.1258 25.3389 33.837 24.9241 32.5481C25.65 32.6221 26.3907 32.7258 27.1019 32.8888C27.6352 33.0073 28.1537 33.1407 28.687 33.3036C29.1018 33.437 29.5167 33.5703 29.9315 33.7332C30.3018 33.8666 30.6574 34.0147 31.013 34.1777C33.5315 35.3036 35.8278 36.9629 37.7093 39.1258C42.4352 35.0518 45.4278 29.0221 45.4278 22.2814C45.4278 9.99991 35.4722 0.029541 23.1759 0.029541C10.8944 0.029541 0.924072 9.9851 0.924072 22.2814C0.924072 29.0073 3.91667 35.0369 8.64259 39.1258C10.5241 36.9629 12.8204 35.3036 15.3389 34.1777Z" fill="#A0DBE8"/>
<path d="M16.8056 38.2073C17.8426 37.748 18.9537 37.3925 20.0945 37.1702C20.0945 36.9184 20.0797 36.6665 20.05 36.4295C20.5389 35.1554 20.9982 33.8665 21.413 32.5776C20.6871 32.6517 19.9463 32.7554 19.2352 32.9184C18.7019 33.0369 18.1834 33.1702 17.65 33.3332C17.2352 33.4665 16.8204 33.5999 16.4056 33.7628L18.0204 34.1628L16.8056 38.2073Z" fill="#525353"/>
<path d="M12.9833 40.5925C13.0277 40.1777 13.0426 39.7628 13.0426 39.3332C13.0426 39.0814 13.25 38.874 13.5018 38.874H13.9018L15.324 34.1628C12.8055 35.2888 10.5092 36.948 8.62775 39.111C9.66478 40.0147 10.7907 40.8147 11.9759 41.511C12.3166 41.1999 12.6426 40.8888 12.9833 40.5925Z" fill="#525353"/>
<path d="M30.9982 34.1777L32.4204 38.8888H32.8204C33.0722 38.8888 33.2797 39.0963 33.2797 39.3481C33.2797 39.7777 33.3093 40.1925 33.3389 40.6074C33.6796 40.9037 34.0204 41.2 34.3315 41.5259C35.5315 40.8296 36.6426 40.0296 37.6796 39.1259C35.813 36.9629 33.5167 35.3037 30.9982 34.1777Z" fill="#525353"/>
<path d="M28.2871 34.1333L29.9019 33.7333C29.4871 33.5851 29.0722 33.437 28.6574 33.3036C28.1389 33.1407 27.6056 33.0074 27.0722 32.8888C26.3463 32.7407 25.6204 32.6222 24.8945 32.5481C25.3093 33.837 25.7537 35.1259 26.2574 36.3999C26.2426 36.6518 26.2278 36.8888 26.213 37.1407C27.3685 37.3629 28.4648 37.7185 29.5019 38.1777L28.2871 34.1333Z" fill="#525353"/>
<path d="M23.1611 38.8888H26.3019C26.2426 38.3111 26.213 37.7333 26.2278 37.1703C25.2352 36.9777 24.213 36.874 23.1611 36.874C22.1093 36.874 21.0871 36.9777 20.0945 37.1703C20.1093 37.7481 20.0796 38.3111 20.0204 38.8888H23.1611Z" fill="black"/>
<path d="M11.9907 41.511C12.2426 41.6592 12.5092 41.8073 12.7759 41.9555C12.8648 41.511 12.9389 41.0518 12.9833 40.5925C12.6426 40.8888 12.3166 41.1999 11.9907 41.511Z" fill="black"/>
<path d="M16.5981 38.8887H20.0352C20.0944 38.3109 20.1241 37.7331 20.1093 37.1702C18.9537 37.3924 17.8574 37.7479 16.8204 38.2072L16.5981 38.8887Z" fill="black"/>
<path d="M33.3537 40.5925C33.3981 41.0518 33.4722 41.511 33.5611 41.9555C33.8278 41.8222 34.0796 41.674 34.3463 41.511C34.0204 41.1999 33.6944 40.8888 33.3537 40.5925Z" fill="black"/>
<path d="M29.7389 38.8887L29.5315 38.2072C28.4945 37.7479 27.3833 37.3924 26.2426 37.1702C26.2278 37.7479 26.2574 38.3109 26.3167 38.8887H29.7389Z" fill="black"/>
<path d="M16.5982 38.8887L16.8056 38.2072L18.0352 34.1332L16.4204 33.7332C16.05 33.8665 15.6945 34.0146 15.3389 34.1776L13.9167 38.8887H15.4426H16.5982Z" fill="#AA9678"/>
<path d="M29.5315 38.2072L29.7389 38.8887H30.8945H32.4204L30.9982 34.1776C30.6426 34.0146 30.2871 33.8813 29.9167 33.7332L28.3019 34.1332L29.5315 38.2072Z" fill="#AA9678"/>
<path d="M13.9763 39.863C13.9955 39.8439 14.0147 39.8439 14.0338 39.8247H13.9763C13.9763 39.8247 13.9763 39.8439 13.9763 39.863Z" fill="#C0B098"/>
<path d="M23.1611 39.8074H19.887H16.3167H14.0055C13.9907 39.8222 13.9759 39.8222 13.9611 39.837C13.9315 40.7111 13.813 41.5555 13.6204 42.3852C16.5093 43.7629 19.7389 44.5333 23.1611 44.5333V39.8074Z" fill="#C0B098"/>
<path d="M32.4042 39.8247H32.3467C32.3658 39.8439 32.385 39.8439 32.4042 39.863C32.4042 39.8439 32.4042 39.8247 32.4042 39.8247Z" fill="#AA9678"/>
<path d="M32.3315 39.8074H30.0204H26.4352H23.1611V44.5333C26.5685 44.5333 29.813 43.7629 32.7019 42.3852C32.5093 41.5555 32.3908 40.6963 32.3611 39.837C32.3611 39.8222 32.3463 39.8074 32.3315 39.8074Z" fill="#AA9678"/>
<path d="M24.1611 39.3481H23.1611V40.3481H24.1611V39.3481Z" fill="#786453"/>
<path d="M33.3537 40.5925C33.3093 40.1777 33.2944 39.7629 33.2944 39.3333C33.2944 39.0814 33.087 38.874 32.8352 38.874H32.4352H30.8796H29.7241H26.287H23.1463H20.0056H16.5685H15.413H13.887H13.487C13.2352 38.874 13.0278 39.0814 13.0278 39.3333C13.0278 39.7629 12.9981 40.1777 12.9685 40.5925C12.9241 41.0518 12.85 41.5111 12.7611 41.9555C13.0426 42.1037 13.3241 42.2518 13.6056 42.3851C13.7981 41.5555 13.9167 40.6962 13.9463 39.837C13.9463 39.8222 13.9463 39.8222 13.9463 39.8074H13.9907H16.3018H19.8722H23.1463H26.4352H30.0056H32.3167H32.3611C32.3611 39.8222 32.3611 39.8222 32.3611 39.837C32.3907 40.7111 32.5093 41.5555 32.7018 42.3851C32.9833 42.2518 33.2648 42.1037 33.5463 41.9555C33.4574 41.5111 33.3981 41.0518 33.3537 40.5925Z" fill="#8B7460"/>
<path d="M29.5315 35.7035C29.4574 35.6294 29.3982 35.5405 29.3241 35.4517C29.3982 35.5554 29.4722 35.6294 29.5315 35.7035Z" fill="#525353"/>
<path d="M30.05 36.222C30.05 36.222 29.8278 36.0442 29.5315 35.7183C29.8278 36.0442 30.05 36.222 30.05 36.222Z" fill="#AA9678"/>
<path d="M36.9359 17.0922C37.4864 17.0481 37.897 16.5662 37.853 16.0156C37.809 15.4651 37.327 15.0545 36.7765 15.0985C36.226 15.1425 35.8153 15.6245 35.8594 16.175C35.9034 16.7256 36.3854 17.1362 36.9359 17.0922Z" fill="white"/>
<path d="M37.976 17.3331C37.976 17.3331 37.976 17.3183 37.976 17.3331C37.7834 17.0665 37.5908 16.8294 37.3982 16.622C37.3093 16.5183 37.2204 16.4294 37.1315 16.3406C37.1019 16.3109 37.0574 16.2813 37.0278 16.2517C36.9686 16.1924 36.9093 16.148 36.85 16.1035V18.1776L37.6352 21.8072C37.65 21.8368 37.65 21.8665 37.6649 21.8961L38.213 22.5183H38.7908C38.7908 22.4591 38.7908 22.4146 38.7908 22.3554C38.7908 20.6368 38.5093 18.9924 38.0056 17.4517C37.9908 17.3924 37.9908 17.3628 37.976 17.3331Z" fill="#BBBCBD"/>
<path d="M37.7241 22.1479V22.1627C37.7241 22.1627 37.7241 22.1627 37.7241 22.1775C37.7389 22.2664 37.7389 22.3553 37.7389 22.4442C37.7389 22.459 37.7389 22.4738 37.7389 22.4886C37.7389 22.5034 37.7389 22.5182 37.7389 22.533C37.7389 22.6219 37.7389 22.7108 37.7241 22.7849V22.7997V22.8145C37.7093 22.9034 37.6944 22.9923 37.6796 23.0812L38.2278 22.4738L37.6796 21.8516C37.6944 21.9553 37.7093 22.0442 37.7241 22.1479Z" fill="#676A6A"/>
<path d="M37.8617 22.8444C37.8617 22.8296 37.8617 22.8296 37.8617 22.8147C37.8778 22.7259 37.8778 22.637 37.8778 22.5629C37.8778 22.5481 37.8778 22.5184 37.8778 22.5036C37.8778 22.4888 37.8778 22.474 37.8778 22.4444C37.8778 22.3555 37.8778 22.2666 37.8617 22.1777C37.8617 22.1629 37.8617 22.1629 37.8617 22.1481C37.8456 22.0592 37.8295 21.9703 37.8134 21.8814C37.7973 21.8518 37.7973 21.8222 37.7811 21.7925C37.7167 21.6147 37.6523 21.4666 37.5557 21.3333C37.5396 21.3184 37.5234 21.3036 37.5234 21.2888C37.4912 21.2592 37.4751 21.2296 37.4429 21.1999C37.4107 21.1555 37.3624 21.1259 37.3141 21.0962C37.298 21.0814 37.2818 21.0814 37.2657 21.0666C37.2335 21.037 37.1852 21.0222 37.153 21.0073C37.1369 21.0073 37.1208 20.9925 37.1047 20.9925C37.0564 20.9777 36.9919 20.9629 36.9275 20.9629C36.8631 20.9629 36.8148 20.9777 36.7503 20.9925C36.7342 20.9925 36.7181 21.0073 36.702 21.0073C36.6698 21.0222 36.6215 21.037 36.5893 21.0666C36.5732 21.0814 36.5571 21.0814 36.541 21.0962C36.4926 21.1259 36.4604 21.1703 36.4121 21.1999C36.3799 21.2296 36.3638 21.2592 36.3316 21.2888C36.3155 21.3036 36.2994 21.3184 36.2994 21.3333C36.2027 21.4666 36.1222 21.6147 36.0739 21.7925V21.8073C36.0417 21.8814 36.0255 21.9703 36.0094 22.0592C36.0094 22.0888 35.9933 22.1036 35.9933 22.1333C35.9772 22.237 35.9772 22.3259 35.9611 22.4296C35.9611 22.4444 35.9611 22.4592 35.9611 22.474C35.9611 23.3184 36.396 24.0147 36.9275 24.0147C37.0241 24.0147 37.1047 23.9851 37.2013 23.9555C37.2174 23.9555 37.2335 23.9407 37.2496 23.9407C37.2818 23.9259 37.3141 23.8962 37.3463 23.8814C37.3624 23.8666 37.3785 23.8518 37.3946 23.837C37.4429 23.8073 37.4751 23.7629 37.5234 23.7184C37.5557 23.6888 37.5718 23.6592 37.604 23.6147C37.6201 23.5851 37.6362 23.5703 37.6523 23.5407C37.6845 23.4962 37.7006 23.4518 37.7328 23.3925C37.7489 23.3777 37.7489 23.3629 37.765 23.3333C37.7973 23.2592 37.8134 23.1851 37.8456 23.111C37.8456 23.0222 37.8617 22.9333 37.8617 22.8444ZM36.9597 22.2814C36.7503 22.2814 36.5893 22.0296 36.5893 21.7036C36.5893 21.3925 36.7503 21.1259 36.9597 21.1259C37.1691 21.1259 37.3302 21.3777 37.3302 21.7036C37.3302 22.0296 37.153 22.2814 36.9597 22.2814Z" fill="black"/>
<path d="M36.8796 22.7036C37.4319 22.7036 37.8796 22.2559 37.8796 21.7036C37.8796 21.1513 37.4319 20.7036 36.8796 20.7036C36.3274 20.7036 35.8796 21.1513 35.8796 21.7036C35.8796 22.2559 36.3274 22.7036 36.8796 22.7036Z" fill="white"/>
<path d="M36.05 21.7925C36.1093 21.6147 36.1686 21.4665 36.2575 21.3332C36.2723 21.3184 36.2871 21.3036 36.2871 21.2888C36.3167 21.2591 36.3315 21.2295 36.3612 21.1999C36.3908 21.1554 36.4352 21.1258 36.4797 21.0962C36.4945 21.0814 36.5093 21.0814 36.5241 21.0665C36.5538 21.0369 36.5982 21.0221 36.6278 21.0073C36.6426 21.0073 36.6575 20.9925 36.6723 20.9925C36.7167 20.9777 36.776 20.9628 36.8352 20.9628C36.8945 20.9628 36.9389 20.9777 36.9982 20.9925C37.013 20.9925 37.0278 21.0073 37.0426 21.0073C37.0723 21.0221 37.1167 21.0369 37.1463 21.0665C37.1612 21.0814 37.176 21.0814 37.1908 21.0962C37.2352 21.1258 37.2649 21.1702 37.3093 21.1999C37.3389 21.2295 37.3538 21.2591 37.3834 21.2888C37.3982 21.3036 37.413 21.3184 37.413 21.3332C37.5019 21.4665 37.576 21.6147 37.6204 21.7925L36.8352 18.1628L36.05 21.7925Z" fill="#909393"/>
<path d="M26.3463 22.4592C26.3463 22.3851 26.3463 22.311 26.3315 22.2369C26.3167 22.1629 26.3167 22.1036 26.3019 22.0295C26.2871 21.9555 26.2722 21.8962 26.2426 21.8369C26.2278 21.7777 26.1982 21.7036 26.1685 21.6443C26.1389 21.5851 26.1093 21.5258 26.0797 21.4666C25.976 21.2888 25.8574 21.1258 25.7093 20.9925C25.5167 20.8147 25.2945 20.6666 25.0574 20.5629C24.9389 20.5184 24.8056 20.474 24.6871 20.4443C24.6871 20.4443 24.6871 20.4443 24.6722 20.4443C24.5389 20.4147 24.4056 20.3999 24.2722 20.3999C24.1389 20.3999 24.0056 20.4147 23.8722 20.4443H23.8574C23.7241 20.474 23.6056 20.5036 23.4871 20.548C23.4871 20.548 23.4871 20.548 23.4722 20.548C23.3537 20.5925 23.2352 20.6518 23.1315 20.7258C23.0278 20.7999 22.9241 20.874 22.8352 20.9629H22.8204C22.6722 21.111 22.5389 21.274 22.4352 21.4518C22.4056 21.511 22.376 21.5703 22.3463 21.6295C22.3463 21.6295 22.3463 21.6443 22.3315 21.6443C22.3019 21.7036 22.2871 21.748 22.2722 21.8073C22.2722 21.8221 22.2574 21.8221 22.2574 21.8369C22.2426 21.8962 22.2278 21.9406 22.213 21.9999C22.213 22.0147 22.1982 22.0295 22.1982 22.0443C22.1834 22.1036 22.1834 22.1481 22.1685 22.2073C22.1685 22.2221 22.1685 22.2369 22.1537 22.2518C22.1537 22.3258 22.1389 22.3999 22.1389 22.474C22.1389 22.6073 22.1537 22.7406 22.1834 22.874C22.1834 22.874 22.1834 22.874 22.1834 22.8888C22.213 23.0221 22.2426 23.1406 22.3019 23.274C22.4056 23.511 22.5537 23.7332 22.7315 23.9258C22.8797 24.074 23.0426 24.2073 23.2204 24.311C23.2797 24.3406 23.3389 24.3703 23.3982 24.3999H23.413C23.4722 24.4295 23.5315 24.4443 23.576 24.4592C23.5908 24.4592 23.5908 24.4592 23.6056 24.474C23.6648 24.4888 23.7093 24.5036 23.7685 24.5184C23.7834 24.5184 23.7982 24.5332 23.813 24.5332C23.8722 24.5481 23.9167 24.548 23.976 24.5629C23.9908 24.5629 24.0056 24.5629 24.0204 24.5777C24.0945 24.5777 24.1685 24.5925 24.2426 24.5925C24.5389 24.5925 24.8056 24.5332 25.0574 24.4295C25.176 24.3703 25.2945 24.311 25.413 24.2369C25.6352 24.0888 25.8278 23.8962 25.976 23.674C26.05 23.5555 26.1093 23.4369 26.1685 23.3184C26.2722 23.0666 26.3315 22.7851 26.3315 22.5036V22.4888C26.3463 22.4592 26.3463 22.4592 26.3463 22.4592ZM24.2574 22.2073C23.8278 22.2073 23.4722 21.8518 23.4722 21.4221C23.4722 20.9925 23.8278 20.6369 24.2574 20.6369C24.6871 20.6369 25.0426 20.9925 25.0426 21.4221C25.0426 21.8518 24.6871 22.2073 24.2574 22.2073Z" fill="black"/>
<path d="M24.2574 22.4221C24.8097 22.4221 25.2574 21.9744 25.2574 21.4221C25.2574 20.8698 24.8097 20.4221 24.2574 20.4221C23.7052 20.4221 23.2574 20.8698 23.2574 21.4221C23.2574 21.9744 23.7052 22.4221 24.2574 22.4221Z" fill="white"/>
<path d="M22.8056 20.9629L24.2574 16.5333C24.2574 16.5333 24.2574 16.2666 24.2574 16.0148C24.2574 15.9407 24.2574 15.8666 24.2574 15.8073C24.2574 15.7777 24.2574 15.7629 24.2574 15.7481C24.2574 15.7185 24.2574 15.6888 24.2574 15.6592C24.2574 15.6444 24.2574 15.6148 24.2574 15.5999C24.2574 15.5851 24.2574 15.5555 24.2574 15.5407C24.2574 15.5259 24.2574 15.5111 24.2574 15.5111C24.2574 15.4962 24.2574 15.4962 24.2574 15.4962C23.4574 15.3333 22.6278 15.2444 21.7833 15.2444C21.5019 15.2444 21.2204 15.2592 20.9389 15.274C20.8944 15.274 20.8648 15.274 20.8204 15.2888C19.3685 15.3925 17.9463 15.7777 16.6278 16.3851C15.5019 16.9036 14.4352 17.5851 13.5019 18.3851C13.25 18.6073 12.9981 18.8296 12.7611 19.0666C12.7167 19.1111 12.6722 19.1555 12.6278 19.1999C12.4056 19.4222 12.1833 19.6592 11.9759 19.8962C11.9315 19.9555 11.887 19.9999 11.8426 20.0592C11.6352 20.3111 11.4278 20.5629 11.2352 20.8148C11.2204 20.8296 11.2056 20.8592 11.1907 20.874C11.013 21.1259 10.8352 21.3777 10.6574 21.6444C10.6278 21.6888 10.5833 21.7481 10.5537 21.7925C10.4204 22.0148 10.287 22.237 10.1685 22.4592H16.7315H16.7463L22.8056 20.9629Z" fill="#BBBCBD"/>
<path d="M28.3611 20.4738C28.3759 20.296 28.3908 20.1331 28.3908 19.9553C28.4056 19.7182 28.4056 19.496 28.4204 19.259C28.4204 19.0812 28.4204 18.9034 28.4204 18.7108C28.4204 18.6516 28.4204 18.6071 28.4204 18.5479C28.4204 18.0738 28.3908 17.6145 28.3759 17.1405C28.3759 17.1405 28.3611 17.1405 28.3611 17.1256C28.3611 17.1256 28.3463 17.1256 28.3463 17.1108C28.2574 17.0664 28.05 16.9479 27.8574 16.8293H27.8426C27.7982 16.7997 27.7537 16.7701 27.7093 16.7553C27.6796 16.7405 27.65 16.7108 27.6204 16.696L27.6056 16.6812C27.5759 16.6664 27.5463 16.6516 27.5315 16.6368C27.2352 16.4738 26.9241 16.3405 26.613 16.2071C25.8722 15.896 24.8648 15.6145 24.287 15.4812V15.8812V15.9701V15.9997C24.287 16.2664 24.287 16.5182 24.287 16.5182L25.7241 20.9331C25.8722 21.0664 26.0056 21.2293 26.0945 21.4071C26.1241 21.4664 26.1537 21.5256 26.1833 21.5849C26.213 21.6442 26.2426 21.7034 26.2574 21.7775C26.2722 21.8368 26.3019 21.9108 26.3167 21.9701C26.3315 22.0442 26.3463 22.1034 26.3463 22.1775C26.3611 22.2516 26.3611 22.3256 26.3611 22.3997V22.4145H28.1093C28.2278 21.7775 28.3167 21.1256 28.3611 20.4738C28.3611 20.5034 28.3611 20.4886 28.3611 20.4738Z" fill="#E2DDDB"/>
<path d="M26.3611 28.7701C26.7611 28.3701 27.1315 27.9997 27.4871 27.6293C27.6945 27.4071 27.9019 27.1849 28.1093 26.9775C29.576 25.3923 30.6426 23.896 31.2945 21.9849C31.3093 21.9405 31.3241 21.8812 31.3389 21.8071C31.3389 21.7923 31.3389 21.7923 31.3389 21.7775C31.3537 21.7034 31.3686 21.6293 31.3834 21.5405C31.3834 21.4812 31.3982 21.4219 31.3982 21.3627C31.2352 20.5331 30.9241 19.7182 30.6426 18.9182C30.6426 18.9182 30.6426 18.9182 30.6426 18.9331C30.6426 18.9331 30.6426 18.9331 30.6278 18.9182C30.5686 18.8738 30.5241 18.8145 30.4648 18.7701C30.3019 18.6219 30.1389 18.4738 29.9611 18.3256C29.4426 17.896 28.9093 17.496 28.3463 17.1553C28.376 17.6293 28.3908 18.0886 28.3908 18.5627C28.3908 18.6219 28.3908 18.6664 28.3908 18.7256C28.3908 18.9034 28.3908 19.0812 28.3908 19.2738C28.3908 19.5108 28.376 19.7479 28.3611 19.9701C28.3463 20.1479 28.3463 20.3108 28.3315 20.4886C28.3315 20.5034 28.3315 20.5182 28.3315 20.5479C28.2723 21.1997 28.1982 21.8516 28.0797 22.4886L27.8723 23.4664C27.4426 25.2145 26.5686 26.7849 25.8574 28.4145C25.6648 28.8442 25.4871 29.2886 25.3241 29.7331C25.3093 29.7775 25.2945 29.8219 25.2797 29.8664C25.5019 29.6293 25.7093 29.4219 25.8574 29.2738C26.05 29.0812 26.1982 28.9182 26.3611 28.7701Z" fill="#FBB040"/>
<path d="M22.8204 20.9628C22.9093 20.8739 23.013 20.7999 23.1167 20.7258C23.2204 20.6517 23.3389 20.5925 23.4574 20.548C23.4574 20.548 23.4574 20.548 23.4722 20.548C23.5907 20.5036 23.7093 20.4591 23.8426 20.4443H23.8574C23.9907 20.4147 24.1241 20.3999 24.2574 20.3999C24.3907 20.3999 24.5241 20.4147 24.6574 20.4443C24.6574 20.4443 24.6574 20.4443 24.6722 20.4443C24.8056 20.4739 24.9241 20.5036 25.0426 20.5628C25.2796 20.6665 25.5019 20.7999 25.6944 20.9925L24.2574 16.5776L22.8204 20.9628Z" fill="#909393"/>
<path d="M22.3167 23.274C22.2723 23.1555 22.2278 23.0221 22.1982 22.8888C22.1982 22.8888 22.1982 22.8888 22.1982 22.874C22.1686 22.7407 22.1537 22.6073 22.1537 22.474C22.1537 22.3999 22.1537 22.3259 22.1686 22.2518C22.1686 22.237 22.1686 22.2222 22.1834 22.2073C22.1834 22.1481 22.1982 22.1036 22.213 22.0444C22.213 22.0296 22.2278 22.0147 22.2278 21.9999C22.2426 21.9407 22.2574 21.8962 22.2723 21.837C22.2723 21.8221 22.2871 21.8221 22.2871 21.8073C22.3019 21.7481 22.3315 21.6888 22.3463 21.6444C22.3463 21.6444 22.3463 21.6296 22.3612 21.6296C22.3908 21.5703 22.4204 21.511 22.45 21.4518C22.5537 21.274 22.6871 21.111 22.8352 20.9629L16.7612 22.4592H16.7463L22.7612 23.9259C22.5686 23.7481 22.4204 23.5259 22.3167 23.274Z" fill="#676A6A"/>
<path d="M35.976 22.1333C35.976 22.1036 35.9908 22.074 35.9908 22.0592C36.0056 21.9703 36.0204 21.8814 36.05 21.8073C36.05 21.7925 36.05 21.7925 36.05 21.7777L36.8352 18.1481V16.074C36.1834 15.5407 35.5019 15.2444 34.776 15.2444C33.8575 15.2444 33.013 15.7481 32.376 16.3703C31.6797 17.0518 31.1463 17.9111 30.7019 18.7703C30.6871 18.8148 30.6575 18.8444 30.6426 18.8888C30.776 19.0073 30.9093 19.1259 31.0426 19.2444C31.3389 19.5111 31.6352 19.7925 31.9167 20.074C32.05 20.2073 32.1834 20.3407 32.3167 20.474C32.45 20.6222 32.5982 20.7555 32.7315 20.9036C32.9093 21.0962 33.0871 21.274 33.25 21.4666C33.3241 21.5407 33.3982 21.6296 33.4723 21.7036C33.6797 21.9407 33.8871 22.1629 34.0945 22.3999C34.1241 22.4296 34.1538 22.4592 34.1686 22.474H35.9612C35.9612 22.4592 35.9612 22.4444 35.9612 22.4296C35.9612 22.3407 35.9612 22.237 35.976 22.1333Z" fill="#E2DDDB"/>
<path d="M9.08706 24.7554C9.08706 24.7406 9.10187 24.7258 9.10187 24.7109C9.22039 24.4146 9.33891 24.1183 9.47224 23.822C9.50187 23.7332 9.54631 23.6591 9.59076 23.585C9.69446 23.348 9.81298 23.1258 9.9315 22.9035C9.97594 22.8146 10.0204 22.7258 10.0796 22.622C10.1093 22.5776 10.1389 22.5183 10.1685 22.4739C10.3019 22.2517 10.4204 22.0295 10.5537 21.8072C10.5834 21.7628 10.6278 21.7035 10.6574 21.6591C10.8204 21.3924 10.9982 21.1406 11.1908 20.8887C11.2056 20.8739 11.2204 20.8443 11.2352 20.8295C11.4278 20.5628 11.6352 20.3109 11.8426 20.0739C11.8871 20.0146 11.9315 19.9702 11.9759 19.9109C12.1834 19.6739 12.4056 19.4369 12.6278 19.2146C12.6722 19.1702 12.7167 19.1258 12.7611 19.0813C12.9982 18.8443 13.2352 18.622 13.5019 18.3998C14.4945 15.0517 17.5611 12.6072 21.1759 12.6072C22.6278 12.6072 24.0796 13.022 25.3241 13.7924C26.5982 14.5776 27.6352 15.7183 28.3019 17.0369C28.3019 17.0369 28.3019 17.0517 28.3167 17.0517C28.3315 17.0813 28.3463 17.1109 28.3759 17.1554C28.9389 17.4961 29.4722 17.8961 29.9908 18.3258C30.1685 18.4739 30.3315 18.622 30.4945 18.7702C30.5537 18.8146 30.5982 18.8739 30.6574 18.9183C30.6722 18.8739 30.6871 18.8443 30.7167 18.7998C31.2204 15.585 32.6426 13.2591 34.3167 13.2591C35.5759 13.2591 36.7019 14.5776 37.3834 16.6072V16.622C37.5759 16.8295 37.7685 17.0665 37.9611 17.3183C37.9611 17.3183 37.9611 17.3332 37.9759 17.3332C37.9908 17.3628 37.9908 17.3924 38.0056 17.422L37.9759 17.3183C35.8871 11.1554 30.0648 6.71094 23.1908 6.71094C14.5685 6.71094 7.59076 13.6887 7.59076 22.3109C7.59076 24.0146 7.85743 25.6443 8.36113 27.1702C8.36113 27.1702 8.36113 27.1702 8.36113 27.1554C8.46483 26.6961 8.58335 26.2369 8.71669 25.7924C8.8352 25.4369 8.95372 25.0961 9.08706 24.7554Z" fill="#525353"/>
<path d="M38.213 22.4888L37.6648 23.0962C37.65 23.1703 37.6204 23.2443 37.5908 23.3184C37.5908 23.3332 37.576 23.348 37.5611 23.3777C37.5463 23.4221 37.5167 23.4814 37.4871 23.5258C37.4722 23.5554 37.4574 23.5703 37.4426 23.5999C37.413 23.6295 37.3982 23.674 37.3685 23.7036C37.3389 23.748 37.2945 23.7925 37.25 23.8221C37.2352 23.8369 37.2204 23.8517 37.2056 23.8666C37.176 23.8962 37.1463 23.911 37.1167 23.9258C37.1019 23.9258 37.0871 23.9406 37.0723 23.9406C36.9982 23.9851 36.9093 23.9999 36.8204 23.9999C36.3315 23.9999 35.9315 23.3184 35.9315 22.4592H34.1389C34.4797 22.8443 34.8056 23.2295 35.1167 23.6295L35.1315 23.6443C35.4426 24.0295 35.7537 24.4147 36.0648 24.7999C36.0797 24.8147 36.0945 24.8443 36.1093 24.8592C36.4056 25.2295 36.6871 25.5999 36.9685 25.9703C36.9982 25.9999 37.0278 26.0443 37.0574 26.074C37.3537 26.474 37.65 26.874 37.9463 27.2592C37.9463 27.2592 37.9463 27.2592 37.9463 27.274C38.4648 25.748 38.7463 24.1332 38.7611 22.4443L38.213 22.4888Z" fill="white"/>
<path d="M20.8204 15.274C20.8648 15.274 20.8945 15.274 20.9389 15.2592C21.2204 15.2444 21.5019 15.2296 21.7833 15.2296C22.6278 15.2296 23.4574 15.3185 24.2574 15.4814C24.2574 15.4814 24.2574 15.4814 24.2574 15.4962C24.2574 15.4962 24.2574 15.511 24.2574 15.5259C24.2574 15.5407 24.2574 15.5555 24.2574 15.5851C24.2574 15.5999 24.2574 15.6148 24.2574 15.6444C24.2574 15.674 24.2574 15.7036 24.2574 15.7333C24.2574 15.7481 24.2574 15.7777 24.2574 15.7925C24.2574 15.8222 24.2574 15.8518 24.2574 15.8814V15.4814C24.8204 15.6148 25.8278 15.8962 26.5833 16.2073C26.8945 16.3407 27.2056 16.4888 27.5019 16.637C27.5167 16.637 27.5463 16.6518 27.5759 16.6814C27.5759 16.6814 27.5907 16.6814 27.5907 16.6962C27.6204 16.711 27.65 16.7259 27.6796 16.7555C27.7241 16.7851 27.7685 16.7999 27.813 16.8296H27.8278C28.0204 16.9333 28.2278 17.0666 28.3167 17.111C28.3315 17.111 28.3315 17.1259 28.3315 17.1259L28.3463 17.1407C28.3315 17.111 28.3167 17.0814 28.287 17.037C28.287 17.037 28.287 17.0222 28.2722 17.0222C27.6056 15.6888 26.5537 14.5481 25.2945 13.7777C24.05 13.0222 22.5982 12.5925 21.1463 12.5925C17.5315 12.5925 14.4648 15.037 13.4722 18.3851C14.4204 17.5703 15.4722 16.8888 16.5982 16.3851C17.9463 15.7629 19.3833 15.3925 20.8204 15.274Z" fill="black"/>
<path d="M32.3908 16.3851C33.0278 15.7629 33.8722 15.2592 34.7908 15.2592C35.5167 15.2592 36.213 15.5555 36.85 16.0888C36.9093 16.1333 36.9685 16.1925 37.0278 16.237C37.0574 16.2666 37.1019 16.2962 37.1315 16.3259C37.2204 16.4148 37.3093 16.5036 37.3982 16.6073V16.5925C36.7019 14.5629 35.5908 13.2444 34.3315 13.2444C32.6574 13.2444 31.2352 15.5555 30.7315 18.7851C31.1463 17.9259 31.6945 17.0666 32.3908 16.3851Z" fill="black"/>
<path d="M17.6055 36.8739C17.7537 36.9331 17.887 36.9776 18.0352 37.022C19.65 37.585 21.3833 37.8961 23.1907 37.8961C25.25 37.8961 27.2204 37.4961 29.013 36.7702C29.1018 36.7257 29.2055 36.6961 29.2944 36.6517C29.4426 36.5924 29.6055 36.5183 29.7537 36.4443C29.887 36.385 30.0204 36.3257 30.1537 36.2517C30.1241 36.2517 30.0944 36.2665 30.0648 36.2665C29.5018 36.3257 28.9537 36.3406 28.4055 36.2517C25.1907 35.7924 24.4796 34.2369 24.5833 32.6369C24.3463 32.5035 24.1241 32.3554 23.8722 32.1776C21.3981 30.385 19.9315 28.4739 19.9315 28.4739C19.9315 28.4739 21.8426 29.9406 24.687 31.0517C24.7463 31.0813 24.8055 31.0961 24.8648 31.1257C24.9981 30.6665 25.1611 30.222 25.2944 29.8369C25.3092 29.7924 25.3241 29.748 25.3389 29.7035C25.5018 29.2591 25.6796 28.8146 25.8722 28.385C26.5833 26.7554 27.4574 25.1702 27.887 23.4369L28.0944 22.4591H26.3463V22.4739C26.3463 22.7702 26.287 23.0369 26.1833 23.2887C26.1241 23.4072 26.0648 23.5406 25.9907 23.6443C25.8426 23.8665 25.65 24.0591 25.4278 24.2072C25.3092 24.2813 25.1907 24.3406 25.0722 24.3998C24.8204 24.5035 24.5389 24.5628 24.2574 24.5628C24.1833 24.5628 24.1092 24.5628 24.0352 24.548C24.0204 24.548 24.0055 24.548 23.9907 24.5331C23.9315 24.5331 23.887 24.5183 23.8278 24.5035C23.813 24.5035 23.7981 24.4887 23.7833 24.4887C23.7241 24.4739 23.6796 24.4591 23.6204 24.4443C23.6055 24.4443 23.6055 24.4443 23.5907 24.4294C23.5315 24.4146 23.4722 24.385 23.4278 24.3702H23.413C23.3537 24.3406 23.2944 24.3109 23.2352 24.2813C23.0574 24.1776 22.8944 24.0591 22.7463 23.8961L16.7315 22.4294H10.1685C10.1389 22.4739 10.1092 22.5331 10.0796 22.5776C10.0352 22.6665 9.97592 22.7554 9.93147 22.8591C9.81295 23.0813 9.69443 23.3183 9.59073 23.5406C9.54629 23.6146 9.51666 23.7035 9.47221 23.7776C9.33888 24.0739 9.22036 24.3702 9.10184 24.6665C9.10184 24.6813 9.08703 24.6961 9.08703 24.7109C8.95369 25.0517 8.83517 25.4072 8.73147 25.7628C8.59814 26.2072 8.47962 26.6665 8.37592 27.1257C9.41295 30.2813 11.413 32.9924 14.05 34.8887C14.1241 34.948 14.213 34.9924 14.287 35.0517C14.7315 35.3628 15.1907 35.6591 15.6648 35.9109C16.287 36.2961 16.9389 36.6072 17.6055 36.8739Z" fill="white"/>
<path d="M28.3759 32.0146C28.3463 32.1775 28.3315 32.3405 28.3315 32.5035C28.3167 32.7849 28.3463 33.0664 28.3907 33.3183C28.4204 33.496 28.45 33.659 28.4945 33.822C28.5685 34.059 28.6426 34.2812 28.7463 34.4886C28.85 34.696 28.9537 34.8886 29.0574 35.0516C29.087 35.1109 29.1315 35.1701 29.1611 35.2146C29.2204 35.2886 29.2648 35.3627 29.3241 35.4368C29.3982 35.5257 29.4722 35.6146 29.5315 35.6886C29.813 36.0146 30.05 36.1923 30.05 36.1923C30.05 36.1923 30.05 36.1923 30.05 36.2072C30.05 36.222 30.05 36.2368 30.0648 36.2516C30.0945 36.2516 30.1241 36.2368 30.1537 36.2368C30.85 36.1479 31.5463 35.9553 32.2426 35.7183C32.5982 35.5849 32.9537 35.4516 33.2945 35.3035C33.3982 35.259 33.5019 35.1997 33.6056 35.1553C37.1759 33.422 40.1685 30.3701 40.1685 30.3701C35.6945 32.5775 31.2945 32.4886 28.3759 32.0146Z" fill="#9F2255"/>
<path d="M36.9982 25.9999C36.7167 25.6295 36.4204 25.2591 36.1389 24.8887C36.1241 24.8739 36.1093 24.8443 36.0945 24.8295C35.7833 24.4443 35.4722 24.0591 35.1611 23.6739L35.1463 23.6591C34.8204 23.2591 34.4945 22.8739 34.1685 22.4887C34.1537 22.4591 34.1241 22.4443 34.1093 22.4147C33.9019 22.1776 33.6945 21.9554 33.487 21.7184C33.413 21.6443 33.3389 21.5554 33.2648 21.4813C33.087 21.2887 32.9241 21.111 32.7463 20.9184C32.613 20.7702 32.4648 20.6369 32.3315 20.4887C32.1982 20.3554 32.0648 20.2221 31.9315 20.0887C31.65 19.8073 31.3537 19.5258 31.0574 19.2591C30.9241 19.1406 30.7907 19.0221 30.6574 18.9036C30.9389 19.7184 31.2648 20.5332 31.4278 21.3776C31.4722 21.5999 31.5019 21.8073 31.5315 22.0147C31.9315 24.9332 30.9833 26.8443 29.5019 29.3628C29.3982 29.5406 29.2796 29.7332 29.1759 29.911C28.8352 30.4739 28.613 31.0221 28.4945 31.5258C28.45 31.6887 28.4204 31.8517 28.3907 32.0147C31.3093 32.4888 35.6945 32.5776 40.1833 30.3702C40.1833 30.3702 39.3093 29.0813 37.9759 27.3036C37.6796 26.9036 37.3833 26.5036 37.087 26.1184C37.0574 26.0739 37.0278 26.0295 36.9982 25.9999Z" fill="#E2066F"/>
<path d="M30.05 36.222C30.05 36.222 29.8278 36.0443 29.5315 35.7183C29.4574 35.6443 29.3982 35.5554 29.3241 35.4665C29.2649 35.3924 29.2204 35.3183 29.1611 35.2443C29.1315 35.185 29.0871 35.1406 29.0574 35.0813C28.9537 34.9035 28.85 34.7257 28.7463 34.5183C28.6574 34.3109 28.5686 34.0887 28.4945 33.8517C28.45 33.6887 28.4056 33.5257 28.3908 33.348C28.3463 33.0961 28.3315 32.8146 28.3315 32.5332C28.3315 32.3702 28.3463 32.2072 28.376 32.0443C28.4056 31.8813 28.4352 31.7183 28.4797 31.5554C28.613 31.0517 28.8204 30.5183 29.1611 29.9406C29.2649 29.748 29.3834 29.5702 29.4871 29.3924C30.9686 26.8739 31.9167 24.9776 31.5167 22.0443C31.4871 21.8369 31.4574 21.6146 31.413 21.4072C31.3982 21.5554 31.3686 21.6887 31.3389 21.7924C31.3389 21.8072 31.3389 21.8072 31.3389 21.822C31.3241 21.8961 31.3093 21.9554 31.2945 21.9998C30.6426 23.9109 29.576 25.4072 28.1093 26.9924C27.9167 27.2146 27.7093 27.422 27.4871 27.6443C27.1315 28.0146 26.7463 28.3998 26.3611 28.785C26.1982 28.948 26.0352 29.0961 25.8723 29.2591C25.7241 29.4072 25.5167 29.6146 25.2945 29.8517C25.1611 30.2369 24.9982 30.6813 24.8649 31.1406C24.8056 31.1109 24.7463 31.0961 24.6871 31.0665C21.8426 29.9702 19.9315 28.4887 19.9315 28.4887C19.9315 28.4887 21.3982 30.3998 23.8723 32.1924C24.1093 32.3702 24.3463 32.5183 24.5834 32.6517C24.4797 34.2665 25.1908 35.8072 28.4056 36.2665C28.9537 36.3406 29.5019 36.3406 30.0649 36.2813C30.0649 36.2517 30.05 36.2369 30.05 36.222Z" fill="black"/>
</svg>
