<svg width="26" height="26" viewBox="0 0 26 26" fill="none" xmlns="http://www.w3.org/2000/svg">
<rect width="26" height="26" fill="white"/>
<rect width="26" height="26" fill="white"/>
<path d="M15.9607 17.2217H2.15246C1.51573 17.2217 1 16.7059 1 16.0692C1 15.4325 1.51573 14.9167 2.15246 14.9167H15.9607C16.5974 14.9167 17.1131 15.4325 17.1131 16.0692C17.1131 16.7059 16.5974 17.2217 15.9607 17.2217ZM23.8475 11.3666H10.0399C9.40317 11.3666 8.88744 10.8509 8.88744 10.2141C8.88744 9.57739 9.40317 9.06166 10.0399 9.06166H23.8475C24.4843 9.06166 25 9.57739 25 10.2141C25 10.8509 24.4843 11.3666 23.8475 11.3666ZM20.9929 5.82238C20.9929 6.45887 20.4769 6.97484 19.8404 6.97484C19.2039 6.97484 18.688 6.45887 18.688 5.82238C18.688 5.1859 19.2039 4.66992 19.8404 4.66992C20.4769 4.66992 20.9929 5.1859 20.9929 5.82238ZM7.31174 20.4627C7.31174 21.0992 6.79577 21.6151 6.15928 21.6151C5.52279 21.6151 5.00682 21.0992 5.00682 20.4627C5.00682 19.8262 5.52279 19.3102 6.15928 19.3102C6.79577 19.3102 7.31174 19.8262 7.31174 20.4627Z" fill="#93C8A2"/>
<path d="M12.9939 24.2677C11.8697 24.2677 10.7593 24.1007 9.69386 23.7704C9.0863 23.5821 8.74635 22.937 8.9345 22.3294C9.12283 21.7189 9.7696 21.3791 10.3758 21.5692C11.2201 21.8312 12.1007 21.9637 12.9939 21.9637C16.9025 21.9637 20.2961 19.4555 21.439 15.7206C21.5284 15.4285 21.7302 15.184 22 15.0408C22.2698 14.8977 22.5855 14.8677 22.8774 14.9575C23.4856 15.1418 23.8277 15.7869 23.6417 16.3945C22.2007 21.103 17.9216 24.2677 12.9939 24.2677ZM3.44792 11.36C3.08259 11.36 2.73889 11.1868 2.52166 10.893C2.30443 10.5993 2.23942 10.2199 2.34646 9.87063C3.78772 5.16242 8.06686 2 12.9939 2C14.119 2 15.2294 2.16702 16.294 2.4976C16.5858 2.58801 16.8298 2.79066 16.9722 3.06095C17.1146 3.33124 17.1438 3.64704 17.0534 3.93886C16.9632 4.23087 16.7606 4.475 16.4902 4.61741C16.2198 4.75982 15.9039 4.78879 15.6121 4.69793C14.7684 4.43877 13.8872 4.3063 12.9939 4.3063C9.08626 4.3063 5.69203 6.81447 4.5491 10.5494C4.4008 11.0332 3.95427 11.3638 3.44821 11.3643L3.44792 11.36Z" fill="#43AF79"/>
</svg>
