<?xml version="1.0" encoding="UTF-8"?>
<svg width="70px" height="48px" viewBox="0 0 70 48" version="1.1" xmlns="http://www.w3.org/2000/svg" xmlns:xlink="http://www.w3.org/1999/xlink" style="background: #FFFFFF;">
    <!-- Generator: Sketch 58 (84663) - https://sketch.com -->
    <title>big-logo-shopware</title>
    <desc>Created with Sketch.</desc>
    <g id="big-logo-shopware" stroke="none" stroke-width="1" fill="none" fill-rule="evenodd">
        <rect fill="#FFFFFF" opacity="0" x="0" y="0" width="70" height="48"></rect>
        <g id="sw-logo-blue" transform="translate(12.000000, 1.000000)" fill="#189EFF" fill-rule="nonzero">
            <g id="_Gruppe_3">
                <path d="M36.3731532,41.027027 C34.3963964,39.5351351 31.4706306,38.3996396 28.3790991,37.201982 C24.6990991,35.7763964 20.5052252,34.156036 17.392973,31.6654054 C13.8455856,28.8390991 12.1174775,25.2792793 12.1174775,20.7704505 C12.0561682,16.8570257 13.8572894,13.1471159 16.9702703,10.7747748 C20.5300901,7.97333333 25.9257658,6.48972973 32.5688288,6.48972973 C34.3122102,6.483197 36.0540143,6.59534814 37.7821622,6.82540541 C37.9241468,6.84364782 38.061519,6.76752763 38.1213273,6.63746838 C38.1811355,6.50740913 38.1495091,6.35357427 38.0432432,6.25765766 C30.4841892,-0.538490483 19.3384627,-1.50768424 10.7197965,3.8817054 C2.10113024,9.27109503 -1.90702125,19.7162507 0.893921567,29.4877218 C3.69486438,39.2591929 12.6278087,45.9948488 22.7927928,46.0002264 C27.6795066,46.0218475 32.4421151,44.4619333 36.369009,41.5533333 C36.4518392,41.4920272 36.5009705,41.3953001 36.5016216,41.2922523 C36.5026056,41.1886241 36.4550754,41.0904974 36.3731532,41.027027 Z" id="_Pfad_2"></path>
                <path d="M45.5151351,21.1102703 C45.5074302,21.0233072 45.4657341,20.9428932 45.3990991,20.8864865 C40.6416216,16.9371171 36.7917117,15.3333333 32.112973,15.3333333 C29.6264865,15.3333333 27.7036036,15.8347748 26.4272072,16.8210811 C25.3429803,17.6306322 24.7138922,18.9119367 24.7363964,20.2648649 C24.7363964,24.1810811 29.5228829,25.9672072 35.0677477,28.0351351 C37.9230631,29.1001802 40.8695495,30.2025225 43.5881081,31.7068468 C43.6359848,31.7344104 43.690343,31.7487152 43.7455856,31.7482976 C43.7837519,31.7474187 43.8215307,31.7404227 43.8574775,31.7275676 C43.9470226,31.6953523 44.018119,31.6257687 44.0522523,31.5369369 C45.0900496,28.8826926 45.6200201,26.0571207 45.6146358,23.2072072 C45.6104505,22.5441441 45.5855856,21.8354955 45.5151351,21.1102703 Z" id="_Pfad_3"></path>
            </g>
        </g>
    </g>
</svg>
