<svg xmlns="http://www.w3.org/2000/svg" width="48" height="54" viewBox="0 0 48 54">
  <g fill="none">
    <path fill="#95BF46" d="M41.246769,10.5139932 C41.2097137,10.2425972 40.9739242,10.0923999 40.7790613,10.0758559 C40.5845672,10.0594978 36.4682968,9.75185371 36.4682968,9.75185371 C36.4682968,9.75185371 33.6095095,6.89011284 33.2957379,6.57336023 C32.9817819,6.25679351 32.3686184,6.35308333 32.1306166,6.42372065 C32.0955892,6.43413036 31.5060231,6.6176015 30.530787,6.92189963 C29.57583,4.15105784 27.8904599,1.60476836 24.9254843,1.60476836 C24.8436309,1.60476836 24.7593808,1.60811434 24.6751307,1.61294742 C23.8318926,0.48851283 22.7873392,0 21.8851076,0 C14.9782612,0 11.6784975,8.70604961 10.6438993,13.1301765 C7.96006451,13.9687158 6.05346885,14.5648576 5.80993638,14.642001 C4.3118706,15.1158287 4.26449146,15.1634159 4.06778506,16.5867579 C3.91974829,17.6643488 0,48.2296746 0,48.2296746 L30.5435075,54 L47.0930233,50.3900612 C47.0930233,50.3900612 41.2834556,10.7853892 41.2469534,10.5139932 L41.246769,10.5139932 Z M28.8426516,7.44833355 L26.258184,8.25490021 C26.2591058,8.07124318 26.2600275,7.89056035 26.2600275,7.69296174 C26.2600275,5.97089825 26.0229475,4.58436203 25.6426238,3.48520816 C27.1703707,3.67853135 28.187824,5.43126631 28.8426516,7.44833355 Z M23.7474582,3.82668383 C24.1722113,4.89981342 24.4483745,6.43989287 24.4483745,8.51811716 C24.4483745,8.62444492 24.4474527,8.72166418 24.446531,8.81999876 C22.7657697,9.34494558 20.9393684,9.91487721 19.1089112,10.4866677 C20.1366883,6.48710834 22.0631942,4.55536355 23.7474582,3.82668383 Z M21.6954067,1.86798532 C21.9935082,1.86798532 22.2938219,1.97003766 22.5812307,2.16949514 C20.3676846,3.21976055 17.9950405,5.86494227 16.993073,11.1473125 L12.7739328,12.4648844 C13.9475344,8.43576892 16.7342391,1.86798532 21.6952224,1.86798532 L21.6954067,1.86798532 Z"/>
    <path fill="#5E8E3E" d="M40.8639415,9.94402306 C40.672062,9.92784955 36.6111277,9.62367736 36.6111277,9.62367736 C36.6111277,9.62367736 33.7907718,6.7942327 33.4812183,6.48105481 C33.3653631,6.36453205 33.2091313,6.30480035 33.0458064,6.27906977 L30.7674419,53.372093 L47.0930233,49.8032618 C47.0930233,49.8032618 41.3613732,10.6455489 41.3253617,10.3772157 C41.2888046,10.1088825 41.0561848,9.96038036 40.8639415,9.94402306"/>
    <path fill="#FFFFFF" d="M24.4883721,19.6320221 L22.4616439,25.6647576 C22.4616439,25.6647576 20.6859452,24.7164056 18.5092585,24.7164056 C15.3182007,24.7164056 15.1576225,26.7202939 15.1576225,27.2252511 C15.1576225,29.9805289 22.3351222,31.0362484 22.3351222,37.4900258 C22.3351222,42.5676301 19.1167826,45.8372093 14.7773249,45.8372093 C9.56997561,45.8372093 6.90697674,42.5941971 6.90697674,42.5941971 L8.3012793,37.9843561 C8.3012793,37.9843561 11.0386166,40.335998 13.3484165,40.335998 C14.8577055,40.335998 15.4716381,39.1468936 15.4716381,38.2780594 C15.4716381,34.6839958 9.58315877,34.5236774 9.58315877,28.6179141 C9.58315877,23.6473109 13.1484719,18.8372093 20.3453801,18.8372093 C23.1184218,18.8372093 24.4883721,19.6320221 24.4883721,19.6320221"/>
  </g>
</svg>
