<svg height="50" viewBox="0 0 50 50" width="50" xmlns="http://www.w3.org/2000/svg"><g fill="none" fill-rule="evenodd" transform=""><path d="m3 0h44c1.6568542 0 3 1.34314575 3 3v44c0 1.6568542-1.3431458 3-3 3h-44c-1.65685425 0-3-1.3431458-3-3v-44c0-1.65685425 1.34314575-3 3-3z" fill="#e5f1fb"/><path d="m21.886 24.95c0 .4680023.1619984.8729983.486 1.215s.7439974.6509986 1.26.927 1.0979968.5399987 1.746.792 1.3019967.5279985 1.962.828c.4200021-.2400012.7199991-.5189984.9-.837s.27-.6689981.27-1.053c0-.4800024-.1559984-.8909983-.468-1.233s-.7229974-.6539986-1.233-.936c-.5100025-.2820014-1.0829968-.5459988-1.719-.792s-1.2779968-.5189985-1.926-.819c-.4560023.2640013-.782999.5489985-.981.855s-.297.656998-.297 1.053zm9-9.216c-.1320007.204001-.2699993.3479996-.414.432s-.3299989.126-.558.126c-.2400012 0-.4859987-.0569994-.738-.171s-.5369984-.2429993-.855-.387-.677998-.2729994-1.08-.387-.8669974-.171-1.395-.171c-.9360047 0-1.6439976.1889981-2.124.567s-.72.8489972-.72 1.413c0 .3480017.1409986.6599986.423.936s.6539977.5339988 1.116.774.9869971.4769988 1.575.711 1.1879969.4859986 1.8.756c.6120031.2700013 1.2119971.5669984 1.8.891s1.1129977.6989979 1.575 1.125.8339986.9119973 1.116 1.458.423 1.1789964.423 1.899c0 .9600048-.2219978 1.8329961-.666 2.619s-1.1579951 1.4309975-2.142 1.935c.5400027.4440022.9719984.9599971 1.296 1.548s.486 1.2899959.486 2.106c0 .9000045-.1649983 1.7309962-.495 2.493-.3300016.7620038-.8159968 1.4189972-1.458 1.971s-1.4369953.9839984-2.385 1.296-2.0399938.468-3.276.468c-.6360032 0-1.2659969-.0569994-1.89-.171s-1.2179972-.275999-1.782-.486c-.5640028-.2100011-1.0919975-.4529986-1.584-.729s-.9179982-.5759984-1.278-.9l1.152-1.854c.1320007-.2160011.299999-.3839994.504-.504s.4619984-.18.774-.18c.3000015 0 .5759987.0749992.828.225.2520013.1500007.5399984.3119991.864.486s.7109978.3359992 1.161.486c.4500023.1500007 1.0169966.225 1.701.225.9000045 0 1.5959975-.1769982 2.088-.531s.738-.8549968.738-1.503c0-.4680023-.1439986-.8639984-.432-1.188s-.6659977-.6149987-1.134-.873-.998997-.4949989-1.593-.711-1.2029969-.4439988-1.827-.684-1.232997-.5129985-1.827-.819-1.1249977-.6719979-1.593-1.098-.8459986-.9269971-1.134-1.503-.432-1.265996-.432-2.07c0-.9480047.2429976-1.7969963.729-2.547.4860024-.7500038 1.226995-1.3529977 2.223-1.809-.5400027-.4680023-.9809983-1.0259968-1.323-1.674s-.513-1.4339954-.513-2.358c0-.7680038.1499985-1.4999965.45-2.196s.749997-1.3079974 1.35-1.836 1.3439956-.9479984 2.232-1.26 1.9259941-.468 3.114-.468c1.3080065 0 2.5049946.2189978 3.591.657s1.9709966 1.0049965 2.655 1.701z" fill="#fff" stroke="#308ada" stroke-width="1.8"/></g></svg>