<svg width="70" height="48" viewBox="0 0 70 48" fill="none" xmlns="http://www.w3.org/2000/svg">
<g id="wix">
<g id="wix_2">
<path id="Path" d="M39.5839 12.894C38.3885 13.5115 37.9197 14.5529 37.9197 17.4284C38.3608 17.0393 38.8731 16.7359 39.4292 16.5344C39.9841 16.335 40.508 16.0605 40.9857 15.7188C41.9983 14.9815 42.1389 14.0414 42.1389 12.4608C42.1389 12.4608 40.5028 12.4193 39.5839 12.894Z" fill="#1D1D1B"/>
<path id="Path_2" d="M32.4815 13.5668C31.8548 14.1657 31.4156 14.9285 31.2157 15.7649L27.981 28.0778L25.2947 18.0228C25.0444 16.8266 24.5396 15.6959 23.8133 14.705C22.8756 13.5668 20.9254 13.4931 20.7191 13.4931C20.5128 13.4931 18.5767 13.5668 17.625 14.705C16.8987 15.6959 16.3938 16.8266 16.1436 18.0228L13.4526 28.0778L10.2178 15.7649C10.0207 14.9284 9.58294 14.1654 8.95674 13.5668C7.37217 12.1936 5 12.4931 5 12.4931L11.1976 35.5061C11.1976 35.5061 13.2416 35.6535 14.2636 35.1374C15.6044 34.4646 16.242 33.9485 17.0765 30.815C17.7609 28.0225 19.8003 19.82 19.9925 19.2394C20.0862 18.9491 20.2034 18.2579 20.7191 18.2579C21.2348 18.2579 21.352 18.9491 21.4458 19.2394C21.6333 19.8246 23.6585 28.0225 24.3852 30.815C25.1962 33.9485 25.8385 34.4646 27.198 35.1374C28.22 35.6535 30.264 35.5061 30.264 35.5061L36.4382 12.4931C36.4382 12.4931 34.0661 12.1936 32.4815 13.5668Z" fill="#1D1D1B"/>
<path id="Path_3" d="M42.1389 16.2487C41.8007 16.6939 41.367 17.0604 40.8685 17.3224C40.3012 17.6312 39.7574 17.8431 39.1714 18.1196C38.2057 18.5804 37.9197 19.0965 37.9197 19.8661V35.5061C37.9197 35.5061 39.4855 35.6996 40.5075 35.1881C41.8202 34.5292 42.1249 33.8932 42.1343 31.0408V17.1012L42.1389 16.2487Z" fill="#1D1D1B"/>
<path id="Path_4" d="M57.6096 24.0549L65.4481 12.5668C65.4481 12.5668 62.1336 12.0092 60.4928 13.4885C59.6678 14.2946 58.9222 15.1756 58.2659 16.1197L55.3734 20.2163C55.2879 20.4802 55.0386 20.6594 54.7569 20.6594C54.4752 20.6594 54.2259 20.4802 54.1404 20.2163L51.2479 16.1197C50.59 15.1768 49.8445 14.2959 49.021 13.4885C47.3802 12.0185 44.0611 12.5668 44.0611 12.5668L51.923 24.0549L44.0845 35.5061C44.0845 35.5061 47.5396 35.9346 49.1804 34.4646C49.9554 33.7145 50.6483 32.8867 51.2479 31.9947L54.1404 27.8981C54.2259 27.6342 54.4752 27.455 54.7569 27.455C55.0386 27.455 55.2879 27.6342 55.3734 27.8981L58.2659 31.9947C58.8943 32.8823 59.607 33.7093 60.3943 34.4646C62.0351 35.9346 65.4293 35.5061 65.4293 35.5061L57.6096 24.0549Z" fill="#1D1D1B"/>
</g>
</g>
</svg>
