<svg xmlns="http://www.w3.org/2000/svg" width="50" height="30" viewBox="0 0 50 30">
  <g fill="none">
    <path fill="#9B5C8F" d="M4.64038859,0 L45.3392536,0 C47.9150372,0 50,2.1015848 50,4.69790334 L50,20.3571218 C50,22.9534403 47.9150372,25.0550251 45.3392536,25.0550251 L30.7441232,25.0550251 L32.7474453,30 L23.9370858,25.0550251 L4.66070111,25.0550251 C2.08511284,25.0550251 0.000150014617,22.9534403 0.000150014617,20.3571218 L0.000150014617,4.69790334 C-0.0203578165,2.12225613 2.0644097,0 4.64038859,0 Z"/>
    <path fill="#FFFFFF" d="M2.57198765,4.29071251 C2.85652543,3.89862856 3.28323446,3.69247724 3.85231002,3.65124697 C4.88891026,3.56858822 5.478296,4.06354961 5.62046724,5.13632938 C6.25047334,9.44766713 6.94140997,13.0989242 7.67296696,16.0899024 L12.12363,7.48804023 C12.5302241,6.70407054 13.0383692,6.29156967 13.6480651,6.25033941 C14.5422988,6.18849401 15.0908689,6.76591594 15.3144761,7.98300163 C15.8226212,10.7264 16.4729374,13.0574957 17.2451148,15.0377377 C17.77357,9.7983226 18.6678037,6.02337473 19.9278159,3.69247724 C20.2324685,3.11485709 20.679683,2.82604701 21.2690688,2.78461853 C21.7365935,2.74358649 22.1633025,2.88789241 22.5493911,3.19731762 C22.9354798,3.50674282 23.1387769,3.89862856 23.1793972,4.37317304 C23.1997074,4.74444365 23.1387769,5.05386885 22.9762955,5.36329406 C22.1836127,6.84857469 21.5331011,9.34459146 21.0048412,12.8099159 C20.4968914,16.1723629 20.3139045,18.7922687 20.4357656,20.6694351 C20.4765813,21.1848134 20.3951453,21.6387427 20.1920435,22.0308267 C19.9479308,22.4845578 19.5823476,22.7321376 19.1148229,22.7733679 C18.5863677,22.8145981 18.0377976,22.5672166 17.5093424,22.0102115 C15.6193241,20.0503864 14.1153945,17.1212536 13.018059,13.222615 C11.696921,15.8629377 10.7214466,17.8431797 10.0914405,19.1633411 C8.8923588,21.4944368 7.87626403,22.6909073 7.02265068,22.7527527 C6.4738853,22.793983 6.00655592,22.3194385 5.60015707,21.3295157 C4.56375212,18.6271494 3.44591117,13.4081512 2.2470248,5.67271926 C2.1655888,5.13632938 2.28744987,4.66178489 2.57198765,4.29071251 L2.57198765,4.29071251 Z M46.2459007,7.5292705 C45.5143437,6.22972428 44.4371231,5.44595281 42.9943193,5.13632938 C42.6080354,5.05386885 42.2424522,5.01263859 41.8967886,5.01263859 C39.9458397,5.01263859 38.3606694,6.04398986 37.1209674,8.10689064 C36.064057,9.86016799 35.535797,11.7991798 35.535797,13.9239259 C35.535797,15.5122822 35.8609552,16.8736738 36.5112715,18.008299 C37.2428284,19.3078452 38.320049,20.0916167 39.7628528,20.4010419 C40.1489415,20.4837006 40.51472,20.5249309 40.8603836,20.5249309 C42.8316426,20.5249309 44.4168129,19.4935796 45.6362048,17.4306789 C46.6929199,15.6565881 47.2213751,13.7175764 47.2213751,11.5930284 C47.2416853,9.98405701 46.896217,8.6430823 46.2459007,7.5292705 L46.2459007,7.5292705 Z M43.685256,13.2432301 C43.4007182,14.6046217 42.8925731,15.6153579 42.1405107,16.2960537 C41.5513202,16.8324436 41.0025549,17.05921 40.4946051,16.9561344 C40.0067703,16.8530587 39.6001761,16.4199427 39.2955235,15.6153579 C39.0514107,14.9758923 38.929745,14.3364268 38.929745,13.7381915 C38.929745,13.222615 38.9703653,12.7068402 39.0719162,12.232494 C39.2549031,11.3866789 39.6003714,10.5614789 40.1489415,9.77770746 C40.8197632,8.7667731 41.5310101,8.35447045 42.262567,8.49877638 C42.7504019,8.60185204 43.156996,9.03516626 43.4616487,9.83955286 C43.7055661,10.4790184 43.8274272,11.1184839 43.8274272,11.7167192 C43.8274272,12.2531091 43.7868068,12.7686856 43.685256,13.2430319 L43.685256,13.2432301 Z M33.5237224,7.5292705 C32.7921654,6.22972428 31.6946346,5.44595281 30.272141,5.13632938 C29.8860524,5.05386885 29.5202739,5.01263859 29.1746103,5.01263859 C27.2236614,5.01263859 25.6384911,6.04398986 24.3987891,8.10689064 C23.342074,9.86016799 22.8136188,11.7991798 22.8136188,13.9239259 C22.8136188,15.5122822 23.1387769,16.8736738 23.7890932,18.008299 C24.5206502,19.3078452 25.5978707,20.0916167 27.0406745,20.4010419 C27.4269585,20.4837006 27.7925417,20.5249309 28.1382053,20.5249309 C30.1094643,20.5249309 31.6946346,19.4935796 32.9140265,17.4306789 C33.9709369,15.6565881 34.4991968,13.7175764 34.4991968,11.5930284 C34.4991968,9.98405701 34.1740387,8.6430823 33.5237224,7.5292705 L33.5237224,7.5292705 Z M30.9427675,13.2432301 C30.6582297,14.6046217 30.1500847,15.6153579 29.3982175,16.2960537 C28.8088318,16.8324436 28.2600664,17.05921 27.7519213,16.9561344 C27.2642818,16.8530587 26.8578829,16.4199427 26.5528397,15.6153579 C26.3091176,14.9758923 26.1872565,14.3364268 26.1872565,13.7381915 C26.1872565,13.222615 26.2278768,12.7068402 26.3294277,12.232494 C26.5124146,11.3866789 26.8578829,10.5614789 27.4066483,9.77770746 C28.0772748,8.7667731 28.7885216,8.35447045 29.5200786,8.49877638 C30.0079134,8.60185204 30.4145076,9.03516626 30.7191602,9.83955286 C30.9632729,10.4790184 31.0849387,11.1184839 31.0849387,11.7167192 C31.1054442,12.2531091 31.0443184,12.7686856 30.9427675,13.2430319 L30.9427675,13.2432301 Z"/>
  </g>
</svg>
