<svg width="26" height="26" viewBox="0 0 26 26" fill="none" xmlns="http://www.w3.org/2000/svg">
<rect width="26" height="26" fill="white"/>
<rect width="26" height="26" fill="white"/>
<path d="M15.9999 13.0053C16.0003 13.8706 15.8442 14.7289 15.5391 15.5388C14.729 15.8438 13.8705 16.0001 13.0049 16.0003H12.9947C12.1034 15.9992 11.2493 15.8362 10.4612 15.5391C10.156 14.7292 9.99971 13.8708 10 13.0053V12.9947C9.99958 12.1295 10.1555 11.2714 10.4603 10.4616C11.2704 10.156 12.1291 9.99961 12.9948 10H13.005C13.8707 9.99958 14.7293 10.156 15.5392 10.4615C15.8443 11.2712 16.0004 12.1294 16 12.9947L15.9999 13.0053ZM24.8333 11H17.8287L22.7814 6.04694C22.3927 5.50086 21.959 4.98817 21.485 4.51422C21.011 4.04077 20.4985 3.60715 19.9527 3.21859L14.9996 8.17169V1.16706C14.3408 1.05624 13.674 1.00036 13.006 1H12.9936C12.3141 1.00038 11.6486 1.05813 11 1.16706V8.17169L6.04694 3.21859C5.50107 3.60705 4.98875 4.0406 4.51534 4.51469L4.51272 4.51656C4.03952 4.98993 3.6065 5.50181 3.21813 6.04694L8.17159 11H1.16706C1.16706 11 1 12.3156 1 12.9959V13.0041C1 13.6844 1.05766 14.351 1.16706 15H8.17169L3.21822 19.9531C3.99744 21.0466 4.95344 22.0026 6.04694 22.7818L11 17.8283V24.8333C11.6581 24.9436 12.3241 24.9993 12.9913 25H13.0082C13.6755 24.9994 14.3415 24.9436 14.9995 24.8333V17.8283L19.9531 22.7818C20.4987 22.3931 21.0111 21.9597 21.485 21.4862L21.4862 21.485C21.9595 21.0111 22.3927 20.4986 22.7814 19.9531L17.8279 15H24.8333C24.9423 14.3522 24.9993 13.6875 25 13.0087V12.9913C24.9993 12.3125 24.9423 11.6478 24.8333 11Z" fill="#FF4A00"/>
</svg>
